%TF.GenerationSoftware,KiCad,Pcbnew,(6.0.9-0)*%
%TF.CreationDate,2023-07-01T19:46:49+02:00*%
%TF.ProjectId,Daylight_Disco,4461796c-6967-4687-945f-446973636f2e,rev?*%
%TF.SameCoordinates,Original*%
%TF.FileFunction,Copper,L2,Bot*%
%TF.FilePolarity,Positive*%
%FSLAX46Y46*%
G04 Gerber Fmt 4.6, Leading zero omitted, Abs format (unit mm)*
G04 Created by KiCad (PCBNEW (6.0.9-0)) date 2023-07-01 19:46:49*
%MOMM*%
%LPD*%
G01*
G04 APERTURE LIST*
G04 Aperture macros list*
%AMRoundRect*
0 Rectangle with rounded corners*
0 $1 Rounding radius*
0 $2 $3 $4 $5 $6 $7 $8 $9 X,Y pos of 4 corners*
0 Add a 4 corners polygon primitive as box body*
4,1,4,$2,$3,$4,$5,$6,$7,$8,$9,$2,$3,0*
0 Add four circle primitives for the rounded corners*
1,1,$1+$1,$2,$3*
1,1,$1+$1,$4,$5*
1,1,$1+$1,$6,$7*
1,1,$1+$1,$8,$9*
0 Add four rect primitives between the rounded corners*
20,1,$1+$1,$2,$3,$4,$5,0*
20,1,$1+$1,$4,$5,$6,$7,0*
20,1,$1+$1,$6,$7,$8,$9,0*
20,1,$1+$1,$8,$9,$2,$3,0*%
G04 Aperture macros list end*
%TA.AperFunction,ComponentPad*%
%ADD10C,0.800000*%
%TD*%
%TA.AperFunction,ComponentPad*%
%ADD11C,6.400000*%
%TD*%
%TA.AperFunction,ComponentPad*%
%ADD12RoundRect,0.250000X-0.725000X0.600000X-0.725000X-0.600000X0.725000X-0.600000X0.725000X0.600000X0*%
%TD*%
%TA.AperFunction,ComponentPad*%
%ADD13O,1.950000X1.700000*%
%TD*%
%TA.AperFunction,ComponentPad*%
%ADD14R,1.700000X1.700000*%
%TD*%
%TA.AperFunction,SMDPad,CuDef*%
%ADD15C,1.700000*%
%TD*%
%TA.AperFunction,SMDPad,CuDef*%
%ADD16R,3.768750X1.700000*%
%TD*%
%TA.AperFunction,ComponentPad*%
%ADD17RoundRect,0.250000X0.725000X-0.600000X0.725000X0.600000X-0.725000X0.600000X-0.725000X-0.600000X0*%
%TD*%
%TA.AperFunction,ViaPad*%
%ADD18C,0.800000*%
%TD*%
%TA.AperFunction,Conductor*%
%ADD19C,1.000000*%
%TD*%
%TA.AperFunction,Conductor*%
%ADD20C,0.500000*%
%TD*%
G04 APERTURE END LIST*
D10*
X244450000Y-33000000D03*
X245152944Y-34697056D03*
X246850000Y-35400000D03*
X248547056Y-34697056D03*
X249250000Y-33000000D03*
X245152944Y-31302944D03*
X246850000Y-30600000D03*
X248547056Y-31302944D03*
D11*
X246850000Y-33000000D03*
D10*
X49150000Y-35400000D03*
X47452944Y-34697056D03*
X50847056Y-31302944D03*
X49150000Y-30600000D03*
X51550000Y-33000000D03*
X50847056Y-34697056D03*
D11*
X49150000Y-33000000D03*
D10*
X47452944Y-31302944D03*
X46750000Y-33000000D03*
D12*
X263200000Y-30500000D03*
D13*
X263200000Y-33000000D03*
X263200000Y-35500000D03*
D14*
X23400000Y-33000000D03*
D15*
X19800000Y-33000000D03*
D16*
X21700000Y-33000000D03*
D17*
X36500000Y-35500000D03*
D13*
X36500000Y-33000000D03*
X36500000Y-30500000D03*
D18*
X72600000Y-32000000D03*
X142600000Y-32000000D03*
X156600000Y-32000000D03*
X269600000Y-32000000D03*
X184600000Y-32000000D03*
X100600000Y-32000000D03*
X240600000Y-32000000D03*
X212600000Y-32000000D03*
X128600000Y-32000000D03*
X58600000Y-32000000D03*
X114600000Y-32000000D03*
X86600000Y-32000000D03*
X43600000Y-32000000D03*
X255600000Y-32000000D03*
X226600000Y-32000000D03*
X170600000Y-32000000D03*
X29600000Y-32000000D03*
X198600000Y-32000000D03*
X38600000Y-35400000D03*
X259962740Y-36200000D03*
X259000000Y-36200000D03*
X38600000Y-36400000D03*
X260925480Y-36200000D03*
X269600000Y-34000000D03*
X255600000Y-34000000D03*
X266400000Y-32000000D03*
D19*
X260925480Y-35274520D02*
X260925480Y-36200000D01*
X262200000Y-33000000D02*
X259962740Y-35237260D01*
X38600000Y-34931497D02*
X38600000Y-35400000D01*
X36500000Y-33000000D02*
X36668503Y-33000000D01*
X262200000Y-33000000D02*
X259000000Y-36200000D01*
X263200000Y-33000000D02*
X262200000Y-33000000D01*
X263200000Y-33000000D02*
X260925480Y-35274520D01*
X38600000Y-35400000D02*
X38600000Y-36400000D01*
X36668503Y-33000000D02*
X38600000Y-34931497D01*
X259962740Y-35237260D02*
X259962740Y-36200000D01*
D20*
X265000000Y-28200000D02*
X34800000Y-28200000D01*
X34800000Y-28200000D02*
X30000000Y-33000000D01*
X268750000Y-33150000D02*
X268750000Y-31950000D01*
X30000000Y-33000000D02*
X23200000Y-33000000D01*
X269600000Y-34000000D02*
X268750000Y-33150000D01*
X268750000Y-31950000D02*
X265000000Y-28200000D01*
X264800000Y-29000000D02*
X260600000Y-29000000D01*
X260600000Y-29000000D02*
X255600000Y-34000000D01*
X266400000Y-30600000D02*
X264800000Y-29000000D01*
X266400000Y-32000000D02*
X266400000Y-30600000D01*
%TA.AperFunction,Conductor*%
G36*
X33682750Y-28028502D02*
G01*
X33729243Y-28082158D01*
X33739347Y-28152432D01*
X33709853Y-28217012D01*
X33703724Y-28223595D01*
X29722724Y-32204595D01*
X29660412Y-32238621D01*
X29633629Y-32241500D01*
X24884500Y-32241500D01*
X24816379Y-32221498D01*
X24769886Y-32167842D01*
X24758500Y-32115500D01*
X24758500Y-32101866D01*
X24751745Y-32039684D01*
X24700615Y-31903295D01*
X24613261Y-31786739D01*
X24496705Y-31699385D01*
X24360316Y-31648255D01*
X24298134Y-31641500D01*
X19814985Y-31641500D01*
X19813446Y-31641491D01*
X19710081Y-31640228D01*
X19710079Y-31640228D01*
X19704911Y-31640165D01*
X19484091Y-31673955D01*
X19271756Y-31743357D01*
X19212279Y-31774319D01*
X19146257Y-31808688D01*
X19073607Y-31846507D01*
X19069474Y-31849610D01*
X19069471Y-31849612D01*
X18956632Y-31934334D01*
X18894965Y-31980635D01*
X18740629Y-32142138D01*
X18737715Y-32146410D01*
X18737714Y-32146411D01*
X18690540Y-32215566D01*
X18614743Y-32326680D01*
X18583597Y-32393779D01*
X18537936Y-32492148D01*
X18520688Y-32529305D01*
X18460989Y-32744570D01*
X18437251Y-32966695D01*
X18437548Y-32971848D01*
X18437548Y-32971851D01*
X18446283Y-33123349D01*
X18450110Y-33189715D01*
X18451247Y-33194761D01*
X18451248Y-33194767D01*
X18473238Y-33292339D01*
X18499222Y-33407639D01*
X18548752Y-33529617D01*
X18576876Y-33598878D01*
X18583266Y-33614616D01*
X18599808Y-33641610D01*
X18665895Y-33749454D01*
X18699987Y-33805088D01*
X18846250Y-33973938D01*
X19018126Y-34116632D01*
X19211000Y-34229338D01*
X19419692Y-34309030D01*
X19424760Y-34310061D01*
X19424763Y-34310062D01*
X19532379Y-34331957D01*
X19638597Y-34353567D01*
X19643772Y-34353757D01*
X19643774Y-34353757D01*
X19764620Y-34358188D01*
X19764601Y-34358697D01*
X19766316Y-34358372D01*
X19767491Y-34358500D01*
X19770892Y-34358500D01*
X19770929Y-34358502D01*
X19775443Y-34358585D01*
X19856673Y-34361564D01*
X19856677Y-34361564D01*
X19861837Y-34361753D01*
X19866957Y-34361097D01*
X19866959Y-34361097D01*
X19879261Y-34359521D01*
X19895271Y-34358500D01*
X24298134Y-34358500D01*
X24360316Y-34351745D01*
X24496705Y-34300615D01*
X24613261Y-34213261D01*
X24700615Y-34096705D01*
X24751745Y-33960316D01*
X24758500Y-33898134D01*
X24758500Y-33884500D01*
X24778502Y-33816379D01*
X24832158Y-33769886D01*
X24884500Y-33758500D01*
X29932930Y-33758500D01*
X29951880Y-33759933D01*
X29966115Y-33762099D01*
X29966119Y-33762099D01*
X29973349Y-33763199D01*
X29980641Y-33762606D01*
X29980644Y-33762606D01*
X30026018Y-33758915D01*
X30036233Y-33758500D01*
X30044293Y-33758500D01*
X30057583Y-33756951D01*
X30072507Y-33755211D01*
X30076882Y-33754778D01*
X30142339Y-33749454D01*
X30142342Y-33749453D01*
X30149637Y-33748860D01*
X30156601Y-33746604D01*
X30162560Y-33745413D01*
X30168415Y-33744029D01*
X30175681Y-33743182D01*
X30244327Y-33718265D01*
X30248455Y-33716848D01*
X30310936Y-33696607D01*
X30310938Y-33696606D01*
X30317899Y-33694351D01*
X30324154Y-33690555D01*
X30329628Y-33688049D01*
X30335058Y-33685330D01*
X30341937Y-33682833D01*
X30348058Y-33678820D01*
X30402976Y-33642814D01*
X30406680Y-33640477D01*
X30469107Y-33602595D01*
X30477484Y-33595197D01*
X30477508Y-33595224D01*
X30480500Y-33592571D01*
X30483733Y-33589868D01*
X30489852Y-33585856D01*
X30543128Y-33529617D01*
X30545506Y-33527175D01*
X31136907Y-32935774D01*
X35013102Y-32935774D01*
X35013302Y-32941103D01*
X35013302Y-32941105D01*
X35015389Y-32996699D01*
X35021751Y-33166158D01*
X35069093Y-33391791D01*
X35071051Y-33396750D01*
X35071052Y-33396752D01*
X35143636Y-33580544D01*
X35153776Y-33606221D01*
X35156543Y-33610780D01*
X35156544Y-33610783D01*
X35208624Y-33696607D01*
X35273377Y-33803317D01*
X35276874Y-33807347D01*
X35416034Y-33967715D01*
X35424477Y-33977445D01*
X35460120Y-34006670D01*
X35500114Y-34065329D01*
X35502046Y-34136299D01*
X35465302Y-34197048D01*
X35446532Y-34211248D01*
X35365680Y-34261281D01*
X35300652Y-34301522D01*
X35175695Y-34426697D01*
X35171855Y-34432927D01*
X35171854Y-34432928D01*
X35092865Y-34561072D01*
X35082885Y-34577262D01*
X35080581Y-34584209D01*
X35041763Y-34701243D01*
X35027203Y-34745139D01*
X35016500Y-34849600D01*
X35016500Y-36150400D01*
X35016837Y-36153646D01*
X35016837Y-36153650D01*
X35024006Y-36222740D01*
X35027474Y-36256166D01*
X35029655Y-36262702D01*
X35029655Y-36262704D01*
X35050168Y-36324187D01*
X35083450Y-36423946D01*
X35176522Y-36574348D01*
X35301697Y-36699305D01*
X35307927Y-36703145D01*
X35307928Y-36703146D01*
X35442616Y-36786169D01*
X35452262Y-36792115D01*
X35528154Y-36817287D01*
X35613611Y-36845632D01*
X35613613Y-36845632D01*
X35620139Y-36847797D01*
X35626975Y-36848497D01*
X35626978Y-36848498D01*
X35666001Y-36852496D01*
X35724600Y-36858500D01*
X37275400Y-36858500D01*
X37278646Y-36858163D01*
X37278650Y-36858163D01*
X37374308Y-36848238D01*
X37374312Y-36848237D01*
X37381166Y-36847526D01*
X37387702Y-36845345D01*
X37387704Y-36845345D01*
X37482726Y-36813643D01*
X37547223Y-36792125D01*
X37618171Y-36789541D01*
X37679255Y-36825724D01*
X37698349Y-36852496D01*
X37753036Y-36955347D01*
X37753040Y-36955353D01*
X37755934Y-36960796D01*
X37815803Y-37034202D01*
X37877040Y-37109287D01*
X37877043Y-37109290D01*
X37880935Y-37114062D01*
X37885682Y-37117989D01*
X37885684Y-37117991D01*
X38028575Y-37236201D01*
X38028579Y-37236203D01*
X38033325Y-37240130D01*
X38207299Y-37334198D01*
X38396232Y-37392682D01*
X38402357Y-37393326D01*
X38402358Y-37393326D01*
X38586796Y-37412711D01*
X38586798Y-37412711D01*
X38592925Y-37413355D01*
X38675424Y-37405847D01*
X38783749Y-37395989D01*
X38783752Y-37395988D01*
X38789888Y-37395430D01*
X38795794Y-37393692D01*
X38795798Y-37393691D01*
X38900924Y-37362751D01*
X38979619Y-37339590D01*
X38985077Y-37336737D01*
X38985081Y-37336735D01*
X39075853Y-37289280D01*
X39154890Y-37247960D01*
X39309025Y-37124032D01*
X39314009Y-37118093D01*
X39372857Y-37047960D01*
X39436154Y-36972526D01*
X39439121Y-36967128D01*
X39439125Y-36967123D01*
X39528467Y-36804608D01*
X39531433Y-36799213D01*
X39533682Y-36792125D01*
X39589373Y-36616564D01*
X39589373Y-36616563D01*
X39591235Y-36610694D01*
X39608500Y-36456773D01*
X39608500Y-35797386D01*
X46717759Y-35797386D01*
X46725216Y-35807753D01*
X46964935Y-36001874D01*
X46970272Y-36005751D01*
X47290685Y-36213830D01*
X47296394Y-36217127D01*
X47636811Y-36390578D01*
X47642836Y-36393260D01*
X47999502Y-36530171D01*
X48005784Y-36532212D01*
X48374816Y-36631094D01*
X48381266Y-36632465D01*
X48758629Y-36692234D01*
X48765167Y-36692920D01*
X49146699Y-36712916D01*
X49153301Y-36712916D01*
X49534833Y-36692920D01*
X49541371Y-36692234D01*
X49918734Y-36632465D01*
X49925184Y-36631094D01*
X50294216Y-36532212D01*
X50300498Y-36530171D01*
X50657164Y-36393260D01*
X50663189Y-36390578D01*
X51003606Y-36217127D01*
X51009315Y-36213830D01*
X51329728Y-36005751D01*
X51335065Y-36001874D01*
X51573835Y-35808522D01*
X51581527Y-35797386D01*
X244417759Y-35797386D01*
X244425216Y-35807753D01*
X244664935Y-36001874D01*
X244670272Y-36005751D01*
X244990685Y-36213830D01*
X244996394Y-36217127D01*
X245336811Y-36390578D01*
X245342836Y-36393260D01*
X245699502Y-36530171D01*
X245705784Y-36532212D01*
X246074816Y-36631094D01*
X246081266Y-36632465D01*
X246458629Y-36692234D01*
X246465167Y-36692920D01*
X246846699Y-36712916D01*
X246853301Y-36712916D01*
X247234833Y-36692920D01*
X247241371Y-36692234D01*
X247618734Y-36632465D01*
X247625184Y-36631094D01*
X247994216Y-36532212D01*
X248000498Y-36530171D01*
X248357164Y-36393260D01*
X248363189Y-36390578D01*
X248703606Y-36217127D01*
X248709315Y-36213830D01*
X248736059Y-36196462D01*
X257986626Y-36196462D01*
X257990590Y-36238393D01*
X258002669Y-36366171D01*
X258005239Y-36393362D01*
X258024145Y-36456782D01*
X258056567Y-36565539D01*
X258061741Y-36582896D01*
X258153982Y-36757846D01*
X258157858Y-36762632D01*
X258157859Y-36762634D01*
X258235490Y-36858500D01*
X258278447Y-36911547D01*
X258283182Y-36915492D01*
X258337558Y-36960796D01*
X258430396Y-37038146D01*
X258604041Y-37132822D01*
X258698405Y-37162394D01*
X258786886Y-37190122D01*
X258786889Y-37190123D01*
X258792768Y-37191965D01*
X258798891Y-37192630D01*
X258798895Y-37192631D01*
X258983263Y-37212659D01*
X258983267Y-37212659D01*
X258989388Y-37213324D01*
X259186413Y-37196087D01*
X259192330Y-37194368D01*
X259192335Y-37194367D01*
X259323064Y-37156386D01*
X259376336Y-37140909D01*
X259381805Y-37138074D01*
X259381808Y-37138073D01*
X259422340Y-37117064D01*
X259492024Y-37103473D01*
X259540252Y-37118093D01*
X259564616Y-37131266D01*
X259570039Y-37134198D01*
X259758972Y-37192682D01*
X259765097Y-37193326D01*
X259765098Y-37193326D01*
X259949536Y-37212711D01*
X259949538Y-37212711D01*
X259955665Y-37213355D01*
X260038164Y-37205847D01*
X260146489Y-37195989D01*
X260146492Y-37195988D01*
X260152628Y-37195430D01*
X260158534Y-37193692D01*
X260158538Y-37193691D01*
X260263664Y-37162751D01*
X260342359Y-37139590D01*
X260347817Y-37136737D01*
X260347826Y-37136733D01*
X260384873Y-37117365D01*
X260454509Y-37103531D01*
X260503177Y-37118192D01*
X260527354Y-37131265D01*
X260527357Y-37131266D01*
X260532779Y-37134198D01*
X260721712Y-37192682D01*
X260727837Y-37193326D01*
X260727838Y-37193326D01*
X260912276Y-37212711D01*
X260912278Y-37212711D01*
X260918405Y-37213355D01*
X261000904Y-37205847D01*
X261109229Y-37195989D01*
X261109232Y-37195988D01*
X261115368Y-37195430D01*
X261121274Y-37193692D01*
X261121278Y-37193691D01*
X261226404Y-37162751D01*
X261305099Y-37139590D01*
X261310557Y-37136737D01*
X261310561Y-37136735D01*
X261406983Y-37086326D01*
X261480370Y-37047960D01*
X261634505Y-36924032D01*
X261649001Y-36906757D01*
X261694531Y-36852496D01*
X261761634Y-36772526D01*
X261764601Y-36767128D01*
X261764605Y-36767123D01*
X261853947Y-36604608D01*
X261856913Y-36599213D01*
X261888866Y-36498483D01*
X261928529Y-36439600D01*
X261993731Y-36411507D01*
X262063771Y-36423124D01*
X262104133Y-36454001D01*
X262106547Y-36456782D01*
X262124477Y-36477445D01*
X262150136Y-36498484D01*
X262298627Y-36620240D01*
X262298633Y-36620244D01*
X262302755Y-36623624D01*
X262307391Y-36626263D01*
X262307394Y-36626265D01*
X262442455Y-36703146D01*
X262503114Y-36737675D01*
X262719825Y-36816337D01*
X262725074Y-36817286D01*
X262725077Y-36817287D01*
X262942608Y-36856623D01*
X262942615Y-36856624D01*
X262946692Y-36857361D01*
X262963889Y-36858172D01*
X262969356Y-36858430D01*
X262969363Y-36858430D01*
X262970844Y-36858500D01*
X263382890Y-36858500D01*
X263453649Y-36852496D01*
X263549409Y-36844371D01*
X263549413Y-36844370D01*
X263554720Y-36843920D01*
X263559875Y-36842582D01*
X263559881Y-36842581D01*
X263772703Y-36787343D01*
X263772707Y-36787342D01*
X263777872Y-36786001D01*
X263782738Y-36783809D01*
X263782741Y-36783808D01*
X263983202Y-36693507D01*
X263988075Y-36691312D01*
X264179319Y-36562559D01*
X264209060Y-36534188D01*
X264286542Y-36460273D01*
X264346135Y-36403424D01*
X264358185Y-36387229D01*
X264473797Y-36231840D01*
X264483754Y-36218458D01*
X264491821Y-36202593D01*
X264585822Y-36017704D01*
X264588240Y-36012949D01*
X264616014Y-35923505D01*
X264655024Y-35797871D01*
X264656607Y-35792773D01*
X264686898Y-35564226D01*
X264678249Y-35333842D01*
X264630907Y-35108209D01*
X264628948Y-35103248D01*
X264548185Y-34898744D01*
X264548184Y-34898742D01*
X264546224Y-34893779D01*
X264538912Y-34881728D01*
X264429390Y-34701243D01*
X264426623Y-34696683D01*
X264381333Y-34644491D01*
X264279023Y-34526588D01*
X264279021Y-34526586D01*
X264275523Y-34522555D01*
X264201866Y-34462160D01*
X264101373Y-34379760D01*
X264101367Y-34379756D01*
X264097245Y-34376376D01*
X264065750Y-34358448D01*
X264016445Y-34307368D01*
X264002583Y-34237738D01*
X264028566Y-34171667D01*
X264057716Y-34144427D01*
X264088616Y-34123624D01*
X264179319Y-34062559D01*
X264346135Y-33903424D01*
X264483754Y-33718458D01*
X264495424Y-33695506D01*
X264543342Y-33601256D01*
X264588240Y-33512949D01*
X264594765Y-33491937D01*
X264655024Y-33297871D01*
X264656607Y-33292773D01*
X264668082Y-33206197D01*
X264686198Y-33069511D01*
X264686198Y-33069506D01*
X264686898Y-33064226D01*
X264684847Y-33009580D01*
X264678648Y-32844468D01*
X264678249Y-32833842D01*
X264630907Y-32608209D01*
X264546224Y-32393779D01*
X264477749Y-32280935D01*
X264452072Y-32238621D01*
X264426623Y-32196683D01*
X264386664Y-32150634D01*
X264279023Y-32026588D01*
X264279021Y-32026586D01*
X264275523Y-32022555D01*
X264248015Y-32000000D01*
X264239471Y-31992994D01*
X264199476Y-31934334D01*
X264197545Y-31863364D01*
X264234290Y-31802616D01*
X264253059Y-31788416D01*
X264392807Y-31701937D01*
X264404208Y-31692901D01*
X264518739Y-31578171D01*
X264527751Y-31566760D01*
X264612816Y-31428757D01*
X264618963Y-31415576D01*
X264670138Y-31261290D01*
X264673005Y-31247914D01*
X264682672Y-31153562D01*
X264683000Y-31147146D01*
X264683000Y-30772115D01*
X264678525Y-30756876D01*
X264677135Y-30755671D01*
X264669452Y-30754000D01*
X261735116Y-30754000D01*
X261719877Y-30758475D01*
X261718672Y-30759865D01*
X261717001Y-30767548D01*
X261717001Y-31147095D01*
X261717338Y-31153614D01*
X261727257Y-31249206D01*
X261730149Y-31262600D01*
X261781588Y-31416784D01*
X261787761Y-31429962D01*
X261873063Y-31567807D01*
X261882099Y-31579208D01*
X261996829Y-31693739D01*
X262008240Y-31702751D01*
X262112905Y-31767267D01*
X262160398Y-31820039D01*
X262171822Y-31890111D01*
X262143548Y-31955234D01*
X262084554Y-31994734D01*
X262057770Y-32000048D01*
X262049739Y-32000750D01*
X262019719Y-32003376D01*
X262019713Y-32003377D01*
X262013587Y-32003913D01*
X262008468Y-32005400D01*
X262003167Y-32005920D01*
X261914194Y-32032782D01*
X261913054Y-32033120D01*
X261823663Y-32059091D01*
X261818929Y-32061545D01*
X261813831Y-32063084D01*
X261808387Y-32065978D01*
X261808386Y-32065979D01*
X261731831Y-32106684D01*
X261730663Y-32107298D01*
X261663450Y-32142138D01*
X261648074Y-32150108D01*
X261643911Y-32153431D01*
X261639204Y-32155934D01*
X261634430Y-32159828D01*
X261634428Y-32159829D01*
X261567105Y-32214737D01*
X261566160Y-32215500D01*
X261527027Y-32246739D01*
X261524536Y-32249230D01*
X261523809Y-32249880D01*
X261519463Y-32253592D01*
X261506480Y-32264181D01*
X261485938Y-32280935D01*
X261482015Y-32285677D01*
X261482013Y-32285679D01*
X261456703Y-32316273D01*
X261448713Y-32325053D01*
X259293361Y-34480405D01*
X259283218Y-34489507D01*
X259253715Y-34513228D01*
X259222861Y-34549998D01*
X259221668Y-34551420D01*
X259214242Y-34559524D01*
X258251691Y-35522075D01*
X258249738Y-35524452D01*
X258249734Y-35524457D01*
X258217068Y-35564226D01*
X258157897Y-35636261D01*
X258064438Y-35810563D01*
X258006613Y-35999698D01*
X258005990Y-36005833D01*
X257990975Y-36153650D01*
X257986626Y-36196462D01*
X248736059Y-36196462D01*
X249029728Y-36005751D01*
X249035065Y-36001874D01*
X249273835Y-35808522D01*
X249282300Y-35796267D01*
X249275966Y-35785176D01*
X246862812Y-33372022D01*
X246848868Y-33364408D01*
X246847035Y-33364539D01*
X246840420Y-33368790D01*
X244424900Y-35784310D01*
X244417759Y-35797386D01*
X51581527Y-35797386D01*
X51582300Y-35796267D01*
X51575966Y-35785176D01*
X49162812Y-33372022D01*
X49148868Y-33364408D01*
X49147035Y-33364539D01*
X49140420Y-33368790D01*
X46724900Y-35784310D01*
X46717759Y-35797386D01*
X39608500Y-35797386D01*
X39608500Y-34993339D01*
X39609237Y-34979732D01*
X39612659Y-34948234D01*
X39612659Y-34948229D01*
X39613324Y-34942108D01*
X39610264Y-34907128D01*
X39608950Y-34892106D01*
X39608621Y-34887281D01*
X39608500Y-34884810D01*
X39608500Y-34881728D01*
X39605665Y-34852817D01*
X39604309Y-34838986D01*
X39604187Y-34837671D01*
X39600114Y-34791118D01*
X39596087Y-34745084D01*
X39594600Y-34739965D01*
X39594080Y-34734664D01*
X39567218Y-34645691D01*
X39566862Y-34644491D01*
X39540909Y-34555160D01*
X39538455Y-34550426D01*
X39536916Y-34545328D01*
X39526952Y-34526588D01*
X39493316Y-34463328D01*
X39492702Y-34462160D01*
X39452726Y-34385038D01*
X39452725Y-34385037D01*
X39449892Y-34379571D01*
X39446569Y-34375408D01*
X39444066Y-34370701D01*
X39385245Y-34298579D01*
X39384554Y-34297723D01*
X39353262Y-34258524D01*
X39350758Y-34256020D01*
X39350116Y-34255302D01*
X39346415Y-34250969D01*
X39319065Y-34217435D01*
X39311587Y-34211248D01*
X39283738Y-34188210D01*
X39274958Y-34180220D01*
X38098038Y-33003301D01*
X45437084Y-33003301D01*
X45457080Y-33384833D01*
X45457766Y-33391371D01*
X45517535Y-33768734D01*
X45518906Y-33775184D01*
X45617788Y-34144216D01*
X45619829Y-34150498D01*
X45756740Y-34507164D01*
X45759422Y-34513189D01*
X45932872Y-34853603D01*
X45936169Y-34859313D01*
X46144253Y-35179735D01*
X46148123Y-35185061D01*
X46341478Y-35423835D01*
X46353733Y-35432300D01*
X46364824Y-35425966D01*
X48777978Y-33012812D01*
X48784356Y-33001132D01*
X49514408Y-33001132D01*
X49514539Y-33002965D01*
X49518790Y-33009580D01*
X51934310Y-35425100D01*
X51947386Y-35432241D01*
X51957753Y-35424784D01*
X52151877Y-35185061D01*
X52155747Y-35179735D01*
X52363831Y-34859313D01*
X52367128Y-34853603D01*
X52540578Y-34513189D01*
X52543260Y-34507164D01*
X52680171Y-34150498D01*
X52682212Y-34144216D01*
X52781094Y-33775184D01*
X52782465Y-33768734D01*
X52842234Y-33391371D01*
X52842920Y-33384833D01*
X52862916Y-33003301D01*
X243137084Y-33003301D01*
X243157080Y-33384833D01*
X243157766Y-33391371D01*
X243217535Y-33768734D01*
X243218906Y-33775184D01*
X243317788Y-34144216D01*
X243319829Y-34150498D01*
X243456740Y-34507164D01*
X243459422Y-34513189D01*
X243632872Y-34853603D01*
X243636169Y-34859313D01*
X243844253Y-35179735D01*
X243848123Y-35185061D01*
X244041478Y-35423835D01*
X244053733Y-35432300D01*
X244064824Y-35425966D01*
X246477978Y-33012812D01*
X246484356Y-33001132D01*
X247214408Y-33001132D01*
X247214539Y-33002965D01*
X247218790Y-33009580D01*
X249634310Y-35425100D01*
X249647386Y-35432241D01*
X249657753Y-35424784D01*
X249851877Y-35185061D01*
X249855747Y-35179735D01*
X250063831Y-34859313D01*
X250067128Y-34853603D01*
X250240578Y-34513189D01*
X250243260Y-34507164D01*
X250380171Y-34150498D01*
X250382212Y-34144216D01*
X250481094Y-33775184D01*
X250482465Y-33768734D01*
X250542234Y-33391371D01*
X250542920Y-33384833D01*
X250562916Y-33003301D01*
X250562916Y-32996699D01*
X250542920Y-32615167D01*
X250542234Y-32608629D01*
X250482465Y-32231266D01*
X250481094Y-32224816D01*
X250382212Y-31855784D01*
X250380171Y-31849502D01*
X250243260Y-31492836D01*
X250240578Y-31486811D01*
X250067128Y-31146397D01*
X250063831Y-31140687D01*
X249855747Y-30820265D01*
X249851877Y-30814939D01*
X249658522Y-30576165D01*
X249646267Y-30567700D01*
X249635176Y-30574034D01*
X247222022Y-32987188D01*
X247214408Y-33001132D01*
X246484356Y-33001132D01*
X246485592Y-32998868D01*
X246485461Y-32997035D01*
X246481210Y-32990420D01*
X244065690Y-30574900D01*
X244052614Y-30567759D01*
X244042247Y-30575216D01*
X243848123Y-30814939D01*
X243844253Y-30820265D01*
X243636169Y-31140687D01*
X243632872Y-31146397D01*
X243459422Y-31486811D01*
X243456740Y-31492836D01*
X243319829Y-31849502D01*
X243317788Y-31855784D01*
X243218906Y-32224816D01*
X243217535Y-32231266D01*
X243157766Y-32608629D01*
X243157080Y-32615167D01*
X243137084Y-32996699D01*
X243137084Y-33003301D01*
X52862916Y-33003301D01*
X52862916Y-32996699D01*
X52842920Y-32615167D01*
X52842234Y-32608629D01*
X52782465Y-32231266D01*
X52781094Y-32224816D01*
X52682212Y-31855784D01*
X52680171Y-31849502D01*
X52543260Y-31492836D01*
X52540578Y-31486811D01*
X52367128Y-31146397D01*
X52363831Y-31140687D01*
X52155747Y-30820265D01*
X52151877Y-30814939D01*
X51958522Y-30576165D01*
X51946267Y-30567700D01*
X51935176Y-30574034D01*
X49522022Y-32987188D01*
X49514408Y-33001132D01*
X48784356Y-33001132D01*
X48785592Y-32998868D01*
X48785461Y-32997035D01*
X48781210Y-32990420D01*
X46365690Y-30574900D01*
X46352614Y-30567759D01*
X46342247Y-30575216D01*
X46148123Y-30814939D01*
X46144253Y-30820265D01*
X45936169Y-31140687D01*
X45932872Y-31146397D01*
X45759422Y-31486811D01*
X45756740Y-31492836D01*
X45619829Y-31849502D01*
X45617788Y-31855784D01*
X45518906Y-32224816D01*
X45517535Y-32231266D01*
X45457766Y-32608629D01*
X45457080Y-32615167D01*
X45437084Y-32996699D01*
X45437084Y-33003301D01*
X38098038Y-33003301D01*
X38015148Y-32920411D01*
X37981123Y-32858099D01*
X37979392Y-32844432D01*
X37979099Y-32844468D01*
X37978449Y-32839173D01*
X37978249Y-32833842D01*
X37930907Y-32608209D01*
X37846224Y-32393779D01*
X37777749Y-32280935D01*
X37752072Y-32238621D01*
X37726623Y-32196683D01*
X37686664Y-32150634D01*
X37579023Y-32026588D01*
X37579021Y-32026586D01*
X37575523Y-32022555D01*
X37493419Y-31955234D01*
X37401373Y-31879760D01*
X37401367Y-31879756D01*
X37397245Y-31876376D01*
X37391527Y-31873121D01*
X37365265Y-31858171D01*
X37315959Y-31807088D01*
X37302098Y-31737458D01*
X37328082Y-31671387D01*
X37357232Y-31644149D01*
X37474578Y-31565148D01*
X37482870Y-31558481D01*
X37641900Y-31406772D01*
X37648941Y-31398814D01*
X37780141Y-31222475D01*
X37785745Y-31213438D01*
X37885357Y-31017516D01*
X37889357Y-31007665D01*
X37954534Y-30797760D01*
X37956817Y-30787376D01*
X37958861Y-30771957D01*
X37956665Y-30757793D01*
X37943478Y-30754000D01*
X35058808Y-30754000D01*
X35045277Y-30757973D01*
X35043752Y-30768580D01*
X35068477Y-30886421D01*
X35071537Y-30896617D01*
X35152263Y-31101029D01*
X35156994Y-31110561D01*
X35271016Y-31298462D01*
X35277280Y-31307052D01*
X35421327Y-31473052D01*
X35428958Y-31480472D01*
X35598911Y-31619826D01*
X35607674Y-31625848D01*
X35634711Y-31641238D01*
X35684018Y-31692320D01*
X35697880Y-31761951D01*
X35671897Y-31828022D01*
X35642747Y-31855261D01*
X35616219Y-31873121D01*
X35520681Y-31937441D01*
X35516824Y-31941120D01*
X35516822Y-31941122D01*
X35451001Y-32003913D01*
X35353865Y-32096576D01*
X35350682Y-32100854D01*
X35314117Y-32149999D01*
X35216246Y-32281542D01*
X35213830Y-32286293D01*
X35213828Y-32286297D01*
X35173676Y-32365271D01*
X35111760Y-32487051D01*
X35110178Y-32492145D01*
X35110177Y-32492148D01*
X35068001Y-32627978D01*
X35043393Y-32707227D01*
X35042692Y-32712516D01*
X35016717Y-32908500D01*
X35013102Y-32935774D01*
X31136907Y-32935774D01*
X35077276Y-28995405D01*
X35139588Y-28961379D01*
X35166371Y-28958500D01*
X35921513Y-28958500D01*
X35989634Y-28978502D01*
X36036127Y-29032158D01*
X36046231Y-29102432D01*
X36016737Y-29167012D01*
X35953167Y-29206459D01*
X35927465Y-29213130D01*
X35917425Y-29216665D01*
X35717030Y-29306937D01*
X35707744Y-29312106D01*
X35525425Y-29434850D01*
X35517130Y-29441519D01*
X35358100Y-29593228D01*
X35351059Y-29601186D01*
X35219859Y-29777525D01*
X35214255Y-29786562D01*
X35114643Y-29982484D01*
X35110643Y-29992335D01*
X35045466Y-30202240D01*
X35043183Y-30212624D01*
X35041139Y-30228043D01*
X35043335Y-30242207D01*
X35056522Y-30246000D01*
X37941192Y-30246000D01*
X37954723Y-30242027D01*
X37956248Y-30231420D01*
X37950439Y-30203733D01*
X46717700Y-30203733D01*
X46724034Y-30214824D01*
X49137188Y-32627978D01*
X49151132Y-32635592D01*
X49152965Y-32635461D01*
X49159580Y-32631210D01*
X51575100Y-30215690D01*
X51581630Y-30203733D01*
X244417700Y-30203733D01*
X244424034Y-30214824D01*
X246837188Y-32627978D01*
X246851132Y-32635592D01*
X246852965Y-32635461D01*
X246859580Y-32631210D01*
X249275100Y-30215690D01*
X249282241Y-30202614D01*
X249274784Y-30192247D01*
X249035065Y-29998126D01*
X249029728Y-29994249D01*
X248709315Y-29786170D01*
X248703606Y-29782873D01*
X248363189Y-29609422D01*
X248357164Y-29606740D01*
X248000498Y-29469829D01*
X247994216Y-29467788D01*
X247625184Y-29368906D01*
X247618734Y-29367535D01*
X247241371Y-29307766D01*
X247234833Y-29307080D01*
X246853301Y-29287084D01*
X246846699Y-29287084D01*
X246465167Y-29307080D01*
X246458629Y-29307766D01*
X246081266Y-29367535D01*
X246074816Y-29368906D01*
X245705784Y-29467788D01*
X245699502Y-29469829D01*
X245342836Y-29606740D01*
X245336811Y-29609422D01*
X244996397Y-29782872D01*
X244990687Y-29786169D01*
X244670265Y-29994253D01*
X244664939Y-29998123D01*
X244426165Y-30191478D01*
X244417700Y-30203733D01*
X51581630Y-30203733D01*
X51582241Y-30202614D01*
X51574784Y-30192247D01*
X51335065Y-29998126D01*
X51329728Y-29994249D01*
X51009315Y-29786170D01*
X51003606Y-29782873D01*
X50663189Y-29609422D01*
X50657164Y-29606740D01*
X50300498Y-29469829D01*
X50294216Y-29467788D01*
X49925184Y-29368906D01*
X49918734Y-29367535D01*
X49541371Y-29307766D01*
X49534833Y-29307080D01*
X49153301Y-29287084D01*
X49146699Y-29287084D01*
X48765167Y-29307080D01*
X48758629Y-29307766D01*
X48381266Y-29367535D01*
X48374816Y-29368906D01*
X48005784Y-29467788D01*
X47999502Y-29469829D01*
X47642836Y-29606740D01*
X47636811Y-29609422D01*
X47296397Y-29782872D01*
X47290687Y-29786169D01*
X46970265Y-29994253D01*
X46964939Y-29998123D01*
X46726165Y-30191478D01*
X46717700Y-30203733D01*
X37950439Y-30203733D01*
X37931523Y-30113579D01*
X37928463Y-30103383D01*
X37847737Y-29898971D01*
X37843006Y-29889439D01*
X37728984Y-29701538D01*
X37722720Y-29692948D01*
X37578673Y-29526948D01*
X37571042Y-29519528D01*
X37401089Y-29380174D01*
X37392322Y-29374150D01*
X37201318Y-29265424D01*
X37191654Y-29260959D01*
X37031813Y-29202939D01*
X36974605Y-29160894D01*
X36949209Y-29094595D01*
X36963689Y-29025091D01*
X37013447Y-28974448D01*
X37074804Y-28958500D01*
X259264629Y-28958500D01*
X259332750Y-28978502D01*
X259379243Y-29032158D01*
X259389347Y-29102432D01*
X259359853Y-29167012D01*
X259353724Y-29173595D01*
X255443669Y-33083650D01*
X255380772Y-33117801D01*
X255324176Y-33129831D01*
X255324167Y-33129834D01*
X255317712Y-33131206D01*
X255311682Y-33133891D01*
X255311681Y-33133891D01*
X255149278Y-33206197D01*
X255149276Y-33206198D01*
X255143248Y-33208882D01*
X254988747Y-33321134D01*
X254984326Y-33326044D01*
X254984325Y-33326045D01*
X254910858Y-33407639D01*
X254860960Y-33463056D01*
X254822531Y-33529617D01*
X254773457Y-33614616D01*
X254765473Y-33628444D01*
X254706458Y-33810072D01*
X254705768Y-33816633D01*
X254705768Y-33816635D01*
X254697202Y-33898134D01*
X254686496Y-34000000D01*
X254687186Y-34006565D01*
X254705438Y-34180220D01*
X254706458Y-34189928D01*
X254765473Y-34371556D01*
X254768776Y-34377278D01*
X254768777Y-34377279D01*
X254770212Y-34379764D01*
X254860960Y-34536944D01*
X254865378Y-34541851D01*
X254865379Y-34541852D01*
X254957796Y-34644491D01*
X254988747Y-34678866D01*
X255143248Y-34791118D01*
X255149276Y-34793802D01*
X255149278Y-34793803D01*
X255283592Y-34853603D01*
X255317712Y-34868794D01*
X255404686Y-34887281D01*
X255498056Y-34907128D01*
X255498061Y-34907128D01*
X255504513Y-34908500D01*
X255695487Y-34908500D01*
X255701939Y-34907128D01*
X255701944Y-34907128D01*
X255795314Y-34887281D01*
X255882288Y-34868794D01*
X255916408Y-34853603D01*
X256050722Y-34793803D01*
X256050724Y-34793802D01*
X256056752Y-34791118D01*
X256211253Y-34678866D01*
X256242204Y-34644491D01*
X256334621Y-34541852D01*
X256334622Y-34541851D01*
X256339040Y-34536944D01*
X256429788Y-34379764D01*
X256431223Y-34377279D01*
X256431224Y-34377278D01*
X256434527Y-34371556D01*
X256489387Y-34202714D01*
X256520125Y-34152556D01*
X260877276Y-29795405D01*
X260939588Y-29761379D01*
X260966371Y-29758500D01*
X261591000Y-29758500D01*
X261659121Y-29778502D01*
X261705614Y-29832158D01*
X261717000Y-29884500D01*
X261717000Y-30227885D01*
X261721475Y-30243124D01*
X261722865Y-30244329D01*
X261730548Y-30246000D01*
X264664884Y-30246000D01*
X264680123Y-30241525D01*
X264681328Y-30240135D01*
X264683400Y-30230609D01*
X264717425Y-30168297D01*
X264779737Y-30134272D01*
X264850553Y-30139336D01*
X264895616Y-30168297D01*
X265604595Y-30877276D01*
X265638621Y-30939588D01*
X265641500Y-30966371D01*
X265641500Y-31463001D01*
X265624619Y-31526001D01*
X265570449Y-31619826D01*
X265565473Y-31628444D01*
X265506458Y-31810072D01*
X265505768Y-31816633D01*
X265505768Y-31816635D01*
X265498046Y-31890111D01*
X265486496Y-32000000D01*
X265487186Y-32006565D01*
X265503295Y-32159829D01*
X265506458Y-32189928D01*
X265565473Y-32371556D01*
X265568776Y-32377278D01*
X265568777Y-32377279D01*
X265578303Y-32393779D01*
X265660960Y-32536944D01*
X265788747Y-32678866D01*
X265943248Y-32791118D01*
X265949276Y-32793802D01*
X265949278Y-32793803D01*
X266111681Y-32866109D01*
X266117712Y-32868794D01*
X266211113Y-32888647D01*
X266298056Y-32907128D01*
X266298061Y-32907128D01*
X266304513Y-32908500D01*
X266495487Y-32908500D01*
X266501939Y-32907128D01*
X266501944Y-32907128D01*
X266588887Y-32888647D01*
X266682288Y-32868794D01*
X266688319Y-32866109D01*
X266850722Y-32793803D01*
X266850724Y-32793802D01*
X266856752Y-32791118D01*
X267011253Y-32678866D01*
X267139040Y-32536944D01*
X267221697Y-32393779D01*
X267231223Y-32377279D01*
X267231224Y-32377278D01*
X267234527Y-32371556D01*
X267293542Y-32189928D01*
X267296706Y-32159829D01*
X267312814Y-32006565D01*
X267313504Y-32000000D01*
X267306616Y-31934461D01*
X267302095Y-31891446D01*
X267314867Y-31821608D01*
X267363370Y-31769761D01*
X267432202Y-31752367D01*
X267499512Y-31774949D01*
X267516500Y-31789181D01*
X267954595Y-32227276D01*
X267988621Y-32289588D01*
X267991500Y-32316371D01*
X267991500Y-33082930D01*
X267990067Y-33101880D01*
X267986801Y-33123349D01*
X267987394Y-33130641D01*
X267987394Y-33130644D01*
X267991085Y-33176018D01*
X267991500Y-33186233D01*
X267991500Y-33194293D01*
X267991925Y-33197937D01*
X267994789Y-33222507D01*
X267995222Y-33226882D01*
X268001140Y-33299637D01*
X268003396Y-33306601D01*
X268004587Y-33312560D01*
X268005971Y-33318415D01*
X268006818Y-33325681D01*
X268031735Y-33394327D01*
X268033152Y-33398455D01*
X268034494Y-33402596D01*
X268055649Y-33467899D01*
X268059445Y-33474154D01*
X268061951Y-33479628D01*
X268064670Y-33485058D01*
X268067167Y-33491937D01*
X268071180Y-33498057D01*
X268071180Y-33498058D01*
X268107186Y-33552976D01*
X268109523Y-33556680D01*
X268147405Y-33619107D01*
X268151121Y-33623315D01*
X268151122Y-33623316D01*
X268154803Y-33627484D01*
X268154776Y-33627508D01*
X268157429Y-33630500D01*
X268160132Y-33633733D01*
X268164144Y-33639852D01*
X268215022Y-33688049D01*
X268220383Y-33693128D01*
X268222825Y-33695506D01*
X268679875Y-34152556D01*
X268710613Y-34202714D01*
X268765473Y-34371556D01*
X268768776Y-34377278D01*
X268768777Y-34377279D01*
X268770212Y-34379764D01*
X268860960Y-34536944D01*
X268865378Y-34541851D01*
X268865379Y-34541852D01*
X268957796Y-34644491D01*
X268988747Y-34678866D01*
X269143248Y-34791118D01*
X269149276Y-34793802D01*
X269149278Y-34793803D01*
X269283592Y-34853603D01*
X269317712Y-34868794D01*
X269404686Y-34887281D01*
X269498056Y-34907128D01*
X269498061Y-34907128D01*
X269504513Y-34908500D01*
X269695487Y-34908500D01*
X269701939Y-34907128D01*
X269701944Y-34907128D01*
X269795314Y-34887281D01*
X269882288Y-34868794D01*
X269916408Y-34853603D01*
X270050722Y-34793803D01*
X270050724Y-34793802D01*
X270056752Y-34791118D01*
X270211253Y-34678866D01*
X270242204Y-34644491D01*
X270334621Y-34541852D01*
X270334622Y-34541851D01*
X270339040Y-34536944D01*
X270429788Y-34379764D01*
X270431223Y-34377279D01*
X270431224Y-34377278D01*
X270434527Y-34371556D01*
X270493542Y-34189928D01*
X270494563Y-34180220D01*
X270512814Y-34006565D01*
X270513504Y-34000000D01*
X270502798Y-33898134D01*
X270494232Y-33816635D01*
X270494232Y-33816633D01*
X270493542Y-33810072D01*
X270434527Y-33628444D01*
X270426544Y-33614616D01*
X270377469Y-33529617D01*
X270339040Y-33463056D01*
X270289143Y-33407639D01*
X270215675Y-33326045D01*
X270215674Y-33326044D01*
X270211253Y-33321134D01*
X270056752Y-33208882D01*
X270050724Y-33206198D01*
X270050722Y-33206197D01*
X269888319Y-33133891D01*
X269888318Y-33133891D01*
X269882288Y-33131206D01*
X269875833Y-33129834D01*
X269875824Y-33129831D01*
X269819228Y-33117801D01*
X269756331Y-33083650D01*
X269545405Y-32872724D01*
X269511379Y-32810412D01*
X269508500Y-32783629D01*
X269508500Y-32017070D01*
X269509933Y-31998120D01*
X269512099Y-31983885D01*
X269512099Y-31983881D01*
X269513199Y-31976651D01*
X269508915Y-31923982D01*
X269508500Y-31913767D01*
X269508500Y-31905707D01*
X269506838Y-31891446D01*
X269505211Y-31877497D01*
X269504778Y-31873121D01*
X269498860Y-31800364D01*
X269496605Y-31793403D01*
X269495418Y-31787463D01*
X269494029Y-31781588D01*
X269493182Y-31774319D01*
X269468264Y-31705670D01*
X269466847Y-31701542D01*
X269446607Y-31639064D01*
X269446606Y-31639062D01*
X269444351Y-31632101D01*
X269440555Y-31625846D01*
X269438049Y-31620372D01*
X269435330Y-31614942D01*
X269432833Y-31608063D01*
X269406440Y-31567807D01*
X269392814Y-31547024D01*
X269390467Y-31543305D01*
X269379967Y-31526001D01*
X269352595Y-31480893D01*
X269345197Y-31472516D01*
X269345224Y-31472492D01*
X269342571Y-31469500D01*
X269339868Y-31466267D01*
X269335856Y-31460148D01*
X269279617Y-31406872D01*
X269277175Y-31404494D01*
X266096276Y-28223595D01*
X266062250Y-28161283D01*
X266067315Y-28090468D01*
X266109862Y-28033632D01*
X266176382Y-28008821D01*
X266185371Y-28008500D01*
X278829311Y-28008500D01*
X278892527Y-28025506D01*
X280615949Y-29025091D01*
X282428717Y-30076497D01*
X282477608Y-30127977D01*
X282491500Y-30185491D01*
X282491500Y-35814511D01*
X282471498Y-35882632D01*
X282428717Y-35923504D01*
X279860009Y-37413355D01*
X278892528Y-37974494D01*
X278829312Y-37991500D01*
X17170689Y-37991500D01*
X17107472Y-37974494D01*
X16109087Y-37395430D01*
X15058637Y-36786169D01*
X13571283Y-35923503D01*
X13522392Y-35872023D01*
X13508500Y-35814509D01*
X13508500Y-30185489D01*
X13528502Y-30117368D01*
X13571284Y-30076495D01*
X13706409Y-29998123D01*
X17107473Y-28025506D01*
X17170688Y-28008500D01*
X33614629Y-28008500D01*
X33682750Y-28028502D01*
G37*
%TD.AperFunction*%
%TA.AperFunction,Conductor*%
G36*
X33682750Y-28028502D02*
G01*
X33729243Y-28082158D01*
X33739347Y-28152432D01*
X33709853Y-28217012D01*
X33703724Y-28223595D01*
X29722724Y-32204595D01*
X29660412Y-32238621D01*
X29633629Y-32241500D01*
X24884500Y-32241500D01*
X24816379Y-32221498D01*
X24769886Y-32167842D01*
X24758500Y-32115500D01*
X24758500Y-32101866D01*
X24751745Y-32039684D01*
X24700615Y-31903295D01*
X24613261Y-31786739D01*
X24496705Y-31699385D01*
X24360316Y-31648255D01*
X24298134Y-31641500D01*
X19814985Y-31641500D01*
X19813446Y-31641491D01*
X19710081Y-31640228D01*
X19710079Y-31640228D01*
X19704911Y-31640165D01*
X19484091Y-31673955D01*
X19271756Y-31743357D01*
X19212279Y-31774319D01*
X19146257Y-31808688D01*
X19073607Y-31846507D01*
X19069474Y-31849610D01*
X19069471Y-31849612D01*
X18956632Y-31934334D01*
X18894965Y-31980635D01*
X18740629Y-32142138D01*
X18737715Y-32146410D01*
X18737714Y-32146411D01*
X18690540Y-32215566D01*
X18614743Y-32326680D01*
X18583597Y-32393779D01*
X18537936Y-32492148D01*
X18520688Y-32529305D01*
X18460989Y-32744570D01*
X18437251Y-32966695D01*
X18437548Y-32971848D01*
X18437548Y-32971851D01*
X18446283Y-33123349D01*
X18450110Y-33189715D01*
X18451247Y-33194761D01*
X18451248Y-33194767D01*
X18473238Y-33292339D01*
X18499222Y-33407639D01*
X18548752Y-33529617D01*
X18576876Y-33598878D01*
X18583266Y-33614616D01*
X18599808Y-33641610D01*
X18665895Y-33749454D01*
X18699987Y-33805088D01*
X18846250Y-33973938D01*
X19018126Y-34116632D01*
X19211000Y-34229338D01*
X19419692Y-34309030D01*
X19424760Y-34310061D01*
X19424763Y-34310062D01*
X19532379Y-34331957D01*
X19638597Y-34353567D01*
X19643772Y-34353757D01*
X19643774Y-34353757D01*
X19764620Y-34358188D01*
X19764601Y-34358697D01*
X19766316Y-34358372D01*
X19767491Y-34358500D01*
X19770892Y-34358500D01*
X19770929Y-34358502D01*
X19775443Y-34358585D01*
X19856673Y-34361564D01*
X19856677Y-34361564D01*
X19861837Y-34361753D01*
X19866957Y-34361097D01*
X19866959Y-34361097D01*
X19879261Y-34359521D01*
X19895271Y-34358500D01*
X24298134Y-34358500D01*
X24360316Y-34351745D01*
X24496705Y-34300615D01*
X24613261Y-34213261D01*
X24700615Y-34096705D01*
X24751745Y-33960316D01*
X24758500Y-33898134D01*
X24758500Y-33884500D01*
X24778502Y-33816379D01*
X24832158Y-33769886D01*
X24884500Y-33758500D01*
X29932930Y-33758500D01*
X29951880Y-33759933D01*
X29966115Y-33762099D01*
X29966119Y-33762099D01*
X29973349Y-33763199D01*
X29980641Y-33762606D01*
X29980644Y-33762606D01*
X30026018Y-33758915D01*
X30036233Y-33758500D01*
X30044293Y-33758500D01*
X30057583Y-33756951D01*
X30072507Y-33755211D01*
X30076882Y-33754778D01*
X30142339Y-33749454D01*
X30142342Y-33749453D01*
X30149637Y-33748860D01*
X30156601Y-33746604D01*
X30162560Y-33745413D01*
X30168415Y-33744029D01*
X30175681Y-33743182D01*
X30244327Y-33718265D01*
X30248455Y-33716848D01*
X30310936Y-33696607D01*
X30310938Y-33696606D01*
X30317899Y-33694351D01*
X30324154Y-33690555D01*
X30329628Y-33688049D01*
X30335058Y-33685330D01*
X30341937Y-33682833D01*
X30348058Y-33678820D01*
X30402976Y-33642814D01*
X30406680Y-33640477D01*
X30469107Y-33602595D01*
X30477484Y-33595197D01*
X30477508Y-33595224D01*
X30480500Y-33592571D01*
X30483733Y-33589868D01*
X30489852Y-33585856D01*
X30543128Y-33529617D01*
X30545506Y-33527175D01*
X31136907Y-32935774D01*
X35013102Y-32935774D01*
X35013302Y-32941103D01*
X35013302Y-32941105D01*
X35015389Y-32996699D01*
X35021751Y-33166158D01*
X35069093Y-33391791D01*
X35071051Y-33396750D01*
X35071052Y-33396752D01*
X35143636Y-33580544D01*
X35153776Y-33606221D01*
X35156543Y-33610780D01*
X35156544Y-33610783D01*
X35208624Y-33696607D01*
X35273377Y-33803317D01*
X35276874Y-33807347D01*
X35416034Y-33967715D01*
X35424477Y-33977445D01*
X35460120Y-34006670D01*
X35500114Y-34065329D01*
X35502046Y-34136299D01*
X35465302Y-34197048D01*
X35446532Y-34211248D01*
X35365680Y-34261281D01*
X35300652Y-34301522D01*
X35175695Y-34426697D01*
X35171855Y-34432927D01*
X35171854Y-34432928D01*
X35092865Y-34561072D01*
X35082885Y-34577262D01*
X35080581Y-34584209D01*
X35041763Y-34701243D01*
X35027203Y-34745139D01*
X35016500Y-34849600D01*
X35016500Y-36150400D01*
X35016837Y-36153646D01*
X35016837Y-36153650D01*
X35024006Y-36222740D01*
X35027474Y-36256166D01*
X35029655Y-36262702D01*
X35029655Y-36262704D01*
X35050168Y-36324187D01*
X35083450Y-36423946D01*
X35176522Y-36574348D01*
X35301697Y-36699305D01*
X35307927Y-36703145D01*
X35307928Y-36703146D01*
X35442616Y-36786169D01*
X35452262Y-36792115D01*
X35528154Y-36817287D01*
X35613611Y-36845632D01*
X35613613Y-36845632D01*
X35620139Y-36847797D01*
X35626975Y-36848497D01*
X35626978Y-36848498D01*
X35666001Y-36852496D01*
X35724600Y-36858500D01*
X37275400Y-36858500D01*
X37278646Y-36858163D01*
X37278650Y-36858163D01*
X37374308Y-36848238D01*
X37374312Y-36848237D01*
X37381166Y-36847526D01*
X37387702Y-36845345D01*
X37387704Y-36845345D01*
X37482726Y-36813643D01*
X37547223Y-36792125D01*
X37618171Y-36789541D01*
X37679255Y-36825724D01*
X37698349Y-36852496D01*
X37753036Y-36955347D01*
X37753040Y-36955353D01*
X37755934Y-36960796D01*
X37815803Y-37034202D01*
X37877040Y-37109287D01*
X37877043Y-37109290D01*
X37880935Y-37114062D01*
X37885682Y-37117989D01*
X37885684Y-37117991D01*
X38028575Y-37236201D01*
X38028579Y-37236203D01*
X38033325Y-37240130D01*
X38207299Y-37334198D01*
X38396232Y-37392682D01*
X38402357Y-37393326D01*
X38402358Y-37393326D01*
X38586796Y-37412711D01*
X38586798Y-37412711D01*
X38592925Y-37413355D01*
X38675424Y-37405847D01*
X38783749Y-37395989D01*
X38783752Y-37395988D01*
X38789888Y-37395430D01*
X38795794Y-37393692D01*
X38795798Y-37393691D01*
X38900924Y-37362751D01*
X38979619Y-37339590D01*
X38985077Y-37336737D01*
X38985081Y-37336735D01*
X39075853Y-37289280D01*
X39154890Y-37247960D01*
X39309025Y-37124032D01*
X39314009Y-37118093D01*
X39372857Y-37047960D01*
X39436154Y-36972526D01*
X39439121Y-36967128D01*
X39439125Y-36967123D01*
X39528467Y-36804608D01*
X39531433Y-36799213D01*
X39533682Y-36792125D01*
X39589373Y-36616564D01*
X39589373Y-36616563D01*
X39591235Y-36610694D01*
X39608500Y-36456773D01*
X39608500Y-35797386D01*
X46717759Y-35797386D01*
X46725216Y-35807753D01*
X46964935Y-36001874D01*
X46970272Y-36005751D01*
X47290685Y-36213830D01*
X47296394Y-36217127D01*
X47636811Y-36390578D01*
X47642836Y-36393260D01*
X47999502Y-36530171D01*
X48005784Y-36532212D01*
X48374816Y-36631094D01*
X48381266Y-36632465D01*
X48758629Y-36692234D01*
X48765167Y-36692920D01*
X49146699Y-36712916D01*
X49153301Y-36712916D01*
X49534833Y-36692920D01*
X49541371Y-36692234D01*
X49918734Y-36632465D01*
X49925184Y-36631094D01*
X50294216Y-36532212D01*
X50300498Y-36530171D01*
X50657164Y-36393260D01*
X50663189Y-36390578D01*
X51003606Y-36217127D01*
X51009315Y-36213830D01*
X51329728Y-36005751D01*
X51335065Y-36001874D01*
X51573835Y-35808522D01*
X51581527Y-35797386D01*
X244417759Y-35797386D01*
X244425216Y-35807753D01*
X244664935Y-36001874D01*
X244670272Y-36005751D01*
X244990685Y-36213830D01*
X244996394Y-36217127D01*
X245336811Y-36390578D01*
X245342836Y-36393260D01*
X245699502Y-36530171D01*
X245705784Y-36532212D01*
X246074816Y-36631094D01*
X246081266Y-36632465D01*
X246458629Y-36692234D01*
X246465167Y-36692920D01*
X246846699Y-36712916D01*
X246853301Y-36712916D01*
X247234833Y-36692920D01*
X247241371Y-36692234D01*
X247618734Y-36632465D01*
X247625184Y-36631094D01*
X247994216Y-36532212D01*
X248000498Y-36530171D01*
X248357164Y-36393260D01*
X248363189Y-36390578D01*
X248703606Y-36217127D01*
X248709315Y-36213830D01*
X248736059Y-36196462D01*
X257986626Y-36196462D01*
X257990590Y-36238393D01*
X258002669Y-36366171D01*
X258005239Y-36393362D01*
X258024145Y-36456782D01*
X258056567Y-36565539D01*
X258061741Y-36582896D01*
X258153982Y-36757846D01*
X258157858Y-36762632D01*
X258157859Y-36762634D01*
X258235490Y-36858500D01*
X258278447Y-36911547D01*
X258283182Y-36915492D01*
X258337558Y-36960796D01*
X258430396Y-37038146D01*
X258604041Y-37132822D01*
X258698405Y-37162394D01*
X258786886Y-37190122D01*
X258786889Y-37190123D01*
X258792768Y-37191965D01*
X258798891Y-37192630D01*
X258798895Y-37192631D01*
X258983263Y-37212659D01*
X258983267Y-37212659D01*
X258989388Y-37213324D01*
X259186413Y-37196087D01*
X259192330Y-37194368D01*
X259192335Y-37194367D01*
X259323064Y-37156386D01*
X259376336Y-37140909D01*
X259381805Y-37138074D01*
X259381808Y-37138073D01*
X259422340Y-37117064D01*
X259492024Y-37103473D01*
X259540252Y-37118093D01*
X259564616Y-37131266D01*
X259570039Y-37134198D01*
X259758972Y-37192682D01*
X259765097Y-37193326D01*
X259765098Y-37193326D01*
X259949536Y-37212711D01*
X259949538Y-37212711D01*
X259955665Y-37213355D01*
X260038164Y-37205847D01*
X260146489Y-37195989D01*
X260146492Y-37195988D01*
X260152628Y-37195430D01*
X260158534Y-37193692D01*
X260158538Y-37193691D01*
X260263664Y-37162751D01*
X260342359Y-37139590D01*
X260347817Y-37136737D01*
X260347826Y-37136733D01*
X260384873Y-37117365D01*
X260454509Y-37103531D01*
X260503177Y-37118192D01*
X260527354Y-37131265D01*
X260527357Y-37131266D01*
X260532779Y-37134198D01*
X260721712Y-37192682D01*
X260727837Y-37193326D01*
X260727838Y-37193326D01*
X260912276Y-37212711D01*
X260912278Y-37212711D01*
X260918405Y-37213355D01*
X261000904Y-37205847D01*
X261109229Y-37195989D01*
X261109232Y-37195988D01*
X261115368Y-37195430D01*
X261121274Y-37193692D01*
X261121278Y-37193691D01*
X261226404Y-37162751D01*
X261305099Y-37139590D01*
X261310557Y-37136737D01*
X261310561Y-37136735D01*
X261406983Y-37086326D01*
X261480370Y-37047960D01*
X261634505Y-36924032D01*
X261649001Y-36906757D01*
X261694531Y-36852496D01*
X261761634Y-36772526D01*
X261764601Y-36767128D01*
X261764605Y-36767123D01*
X261853947Y-36604608D01*
X261856913Y-36599213D01*
X261888866Y-36498483D01*
X261928529Y-36439600D01*
X261993731Y-36411507D01*
X262063771Y-36423124D01*
X262104133Y-36454001D01*
X262106547Y-36456782D01*
X262124477Y-36477445D01*
X262150136Y-36498484D01*
X262298627Y-36620240D01*
X262298633Y-36620244D01*
X262302755Y-36623624D01*
X262307391Y-36626263D01*
X262307394Y-36626265D01*
X262442455Y-36703146D01*
X262503114Y-36737675D01*
X262719825Y-36816337D01*
X262725074Y-36817286D01*
X262725077Y-36817287D01*
X262942608Y-36856623D01*
X262942615Y-36856624D01*
X262946692Y-36857361D01*
X262963889Y-36858172D01*
X262969356Y-36858430D01*
X262969363Y-36858430D01*
X262970844Y-36858500D01*
X263382890Y-36858500D01*
X263453649Y-36852496D01*
X263549409Y-36844371D01*
X263549413Y-36844370D01*
X263554720Y-36843920D01*
X263559875Y-36842582D01*
X263559881Y-36842581D01*
X263772703Y-36787343D01*
X263772707Y-36787342D01*
X263777872Y-36786001D01*
X263782738Y-36783809D01*
X263782741Y-36783808D01*
X263983202Y-36693507D01*
X263988075Y-36691312D01*
X264179319Y-36562559D01*
X264209060Y-36534188D01*
X264286542Y-36460273D01*
X264346135Y-36403424D01*
X264358185Y-36387229D01*
X264473797Y-36231840D01*
X264483754Y-36218458D01*
X264491821Y-36202593D01*
X264585822Y-36017704D01*
X264588240Y-36012949D01*
X264616014Y-35923505D01*
X264655024Y-35797871D01*
X264656607Y-35792773D01*
X264686898Y-35564226D01*
X264678249Y-35333842D01*
X264630907Y-35108209D01*
X264628948Y-35103248D01*
X264548185Y-34898744D01*
X264548184Y-34898742D01*
X264546224Y-34893779D01*
X264538912Y-34881728D01*
X264429390Y-34701243D01*
X264426623Y-34696683D01*
X264381333Y-34644491D01*
X264279023Y-34526588D01*
X264279021Y-34526586D01*
X264275523Y-34522555D01*
X264201866Y-34462160D01*
X264101373Y-34379760D01*
X264101367Y-34379756D01*
X264097245Y-34376376D01*
X264065750Y-34358448D01*
X264016445Y-34307368D01*
X264002583Y-34237738D01*
X264028566Y-34171667D01*
X264057716Y-34144427D01*
X264088616Y-34123624D01*
X264179319Y-34062559D01*
X264346135Y-33903424D01*
X264483754Y-33718458D01*
X264495424Y-33695506D01*
X264543342Y-33601256D01*
X264588240Y-33512949D01*
X264594765Y-33491937D01*
X264655024Y-33297871D01*
X264656607Y-33292773D01*
X264668082Y-33206197D01*
X264686198Y-33069511D01*
X264686198Y-33069506D01*
X264686898Y-33064226D01*
X264684847Y-33009580D01*
X264678648Y-32844468D01*
X264678249Y-32833842D01*
X264630907Y-32608209D01*
X264546224Y-32393779D01*
X264477749Y-32280935D01*
X264452072Y-32238621D01*
X264426623Y-32196683D01*
X264386664Y-32150634D01*
X264279023Y-32026588D01*
X264279021Y-32026586D01*
X264275523Y-32022555D01*
X264248015Y-32000000D01*
X264239471Y-31992994D01*
X264199476Y-31934334D01*
X264197545Y-31863364D01*
X264234290Y-31802616D01*
X264253059Y-31788416D01*
X264392807Y-31701937D01*
X264404208Y-31692901D01*
X264518739Y-31578171D01*
X264527751Y-31566760D01*
X264612816Y-31428757D01*
X264618963Y-31415576D01*
X264670138Y-31261290D01*
X264673005Y-31247914D01*
X264682672Y-31153562D01*
X264683000Y-31147146D01*
X264683000Y-30772115D01*
X264678525Y-30756876D01*
X264677135Y-30755671D01*
X264669452Y-30754000D01*
X261735116Y-30754000D01*
X261719877Y-30758475D01*
X261718672Y-30759865D01*
X261717001Y-30767548D01*
X261717001Y-31147095D01*
X261717338Y-31153614D01*
X261727257Y-31249206D01*
X261730149Y-31262600D01*
X261781588Y-31416784D01*
X261787761Y-31429962D01*
X261873063Y-31567807D01*
X261882099Y-31579208D01*
X261996829Y-31693739D01*
X262008240Y-31702751D01*
X262112905Y-31767267D01*
X262160398Y-31820039D01*
X262171822Y-31890111D01*
X262143548Y-31955234D01*
X262084554Y-31994734D01*
X262057770Y-32000048D01*
X262049739Y-32000750D01*
X262019719Y-32003376D01*
X262019713Y-32003377D01*
X262013587Y-32003913D01*
X262008468Y-32005400D01*
X262003167Y-32005920D01*
X261914194Y-32032782D01*
X261913054Y-32033120D01*
X261823663Y-32059091D01*
X261818929Y-32061545D01*
X261813831Y-32063084D01*
X261808387Y-32065978D01*
X261808386Y-32065979D01*
X261731831Y-32106684D01*
X261730663Y-32107298D01*
X261663450Y-32142138D01*
X261648074Y-32150108D01*
X261643911Y-32153431D01*
X261639204Y-32155934D01*
X261634430Y-32159828D01*
X261634428Y-32159829D01*
X261567105Y-32214737D01*
X261566160Y-32215500D01*
X261527027Y-32246739D01*
X261524536Y-32249230D01*
X261523809Y-32249880D01*
X261519463Y-32253592D01*
X261506480Y-32264181D01*
X261485938Y-32280935D01*
X261482015Y-32285677D01*
X261482013Y-32285679D01*
X261456703Y-32316273D01*
X261448713Y-32325053D01*
X259293361Y-34480405D01*
X259283218Y-34489507D01*
X259253715Y-34513228D01*
X259222861Y-34549998D01*
X259221668Y-34551420D01*
X259214242Y-34559524D01*
X258251691Y-35522075D01*
X258249738Y-35524452D01*
X258249734Y-35524457D01*
X258217068Y-35564226D01*
X258157897Y-35636261D01*
X258064438Y-35810563D01*
X258006613Y-35999698D01*
X258005990Y-36005833D01*
X257990975Y-36153650D01*
X257986626Y-36196462D01*
X248736059Y-36196462D01*
X249029728Y-36005751D01*
X249035065Y-36001874D01*
X249273835Y-35808522D01*
X249282300Y-35796267D01*
X249275966Y-35785176D01*
X246862812Y-33372022D01*
X246848868Y-33364408D01*
X246847035Y-33364539D01*
X246840420Y-33368790D01*
X244424900Y-35784310D01*
X244417759Y-35797386D01*
X51581527Y-35797386D01*
X51582300Y-35796267D01*
X51575966Y-35785176D01*
X49162812Y-33372022D01*
X49148868Y-33364408D01*
X49147035Y-33364539D01*
X49140420Y-33368790D01*
X46724900Y-35784310D01*
X46717759Y-35797386D01*
X39608500Y-35797386D01*
X39608500Y-34993339D01*
X39609237Y-34979732D01*
X39612659Y-34948234D01*
X39612659Y-34948229D01*
X39613324Y-34942108D01*
X39610264Y-34907128D01*
X39608950Y-34892106D01*
X39608621Y-34887281D01*
X39608500Y-34884810D01*
X39608500Y-34881728D01*
X39605665Y-34852817D01*
X39604309Y-34838986D01*
X39604187Y-34837671D01*
X39600114Y-34791118D01*
X39596087Y-34745084D01*
X39594600Y-34739965D01*
X39594080Y-34734664D01*
X39567218Y-34645691D01*
X39566862Y-34644491D01*
X39540909Y-34555160D01*
X39538455Y-34550426D01*
X39536916Y-34545328D01*
X39526952Y-34526588D01*
X39493316Y-34463328D01*
X39492702Y-34462160D01*
X39452726Y-34385038D01*
X39452725Y-34385037D01*
X39449892Y-34379571D01*
X39446569Y-34375408D01*
X39444066Y-34370701D01*
X39385245Y-34298579D01*
X39384554Y-34297723D01*
X39353262Y-34258524D01*
X39350758Y-34256020D01*
X39350116Y-34255302D01*
X39346415Y-34250969D01*
X39319065Y-34217435D01*
X39311587Y-34211248D01*
X39283738Y-34188210D01*
X39274958Y-34180220D01*
X38098038Y-33003301D01*
X45437084Y-33003301D01*
X45457080Y-33384833D01*
X45457766Y-33391371D01*
X45517535Y-33768734D01*
X45518906Y-33775184D01*
X45617788Y-34144216D01*
X45619829Y-34150498D01*
X45756740Y-34507164D01*
X45759422Y-34513189D01*
X45932872Y-34853603D01*
X45936169Y-34859313D01*
X46144253Y-35179735D01*
X46148123Y-35185061D01*
X46341478Y-35423835D01*
X46353733Y-35432300D01*
X46364824Y-35425966D01*
X48777978Y-33012812D01*
X48784356Y-33001132D01*
X49514408Y-33001132D01*
X49514539Y-33002965D01*
X49518790Y-33009580D01*
X51934310Y-35425100D01*
X51947386Y-35432241D01*
X51957753Y-35424784D01*
X52151877Y-35185061D01*
X52155747Y-35179735D01*
X52363831Y-34859313D01*
X52367128Y-34853603D01*
X52540578Y-34513189D01*
X52543260Y-34507164D01*
X52680171Y-34150498D01*
X52682212Y-34144216D01*
X52781094Y-33775184D01*
X52782465Y-33768734D01*
X52842234Y-33391371D01*
X52842920Y-33384833D01*
X52862916Y-33003301D01*
X243137084Y-33003301D01*
X243157080Y-33384833D01*
X243157766Y-33391371D01*
X243217535Y-33768734D01*
X243218906Y-33775184D01*
X243317788Y-34144216D01*
X243319829Y-34150498D01*
X243456740Y-34507164D01*
X243459422Y-34513189D01*
X243632872Y-34853603D01*
X243636169Y-34859313D01*
X243844253Y-35179735D01*
X243848123Y-35185061D01*
X244041478Y-35423835D01*
X244053733Y-35432300D01*
X244064824Y-35425966D01*
X246477978Y-33012812D01*
X246484356Y-33001132D01*
X247214408Y-33001132D01*
X247214539Y-33002965D01*
X247218790Y-33009580D01*
X249634310Y-35425100D01*
X249647386Y-35432241D01*
X249657753Y-35424784D01*
X249851877Y-35185061D01*
X249855747Y-35179735D01*
X250063831Y-34859313D01*
X250067128Y-34853603D01*
X250240578Y-34513189D01*
X250243260Y-34507164D01*
X250380171Y-34150498D01*
X250382212Y-34144216D01*
X250481094Y-33775184D01*
X250482465Y-33768734D01*
X250542234Y-33391371D01*
X250542920Y-33384833D01*
X250562916Y-33003301D01*
X250562916Y-32996699D01*
X250542920Y-32615167D01*
X250542234Y-32608629D01*
X250482465Y-32231266D01*
X250481094Y-32224816D01*
X250382212Y-31855784D01*
X250380171Y-31849502D01*
X250243260Y-31492836D01*
X250240578Y-31486811D01*
X250067128Y-31146397D01*
X250063831Y-31140687D01*
X249855747Y-30820265D01*
X249851877Y-30814939D01*
X249658522Y-30576165D01*
X249646267Y-30567700D01*
X249635176Y-30574034D01*
X247222022Y-32987188D01*
X247214408Y-33001132D01*
X246484356Y-33001132D01*
X246485592Y-32998868D01*
X246485461Y-32997035D01*
X246481210Y-32990420D01*
X244065690Y-30574900D01*
X244052614Y-30567759D01*
X244042247Y-30575216D01*
X243848123Y-30814939D01*
X243844253Y-30820265D01*
X243636169Y-31140687D01*
X243632872Y-31146397D01*
X243459422Y-31486811D01*
X243456740Y-31492836D01*
X243319829Y-31849502D01*
X243317788Y-31855784D01*
X243218906Y-32224816D01*
X243217535Y-32231266D01*
X243157766Y-32608629D01*
X243157080Y-32615167D01*
X243137084Y-32996699D01*
X243137084Y-33003301D01*
X52862916Y-33003301D01*
X52862916Y-32996699D01*
X52842920Y-32615167D01*
X52842234Y-32608629D01*
X52782465Y-32231266D01*
X52781094Y-32224816D01*
X52682212Y-31855784D01*
X52680171Y-31849502D01*
X52543260Y-31492836D01*
X52540578Y-31486811D01*
X52367128Y-31146397D01*
X52363831Y-31140687D01*
X52155747Y-30820265D01*
X52151877Y-30814939D01*
X51958522Y-30576165D01*
X51946267Y-30567700D01*
X51935176Y-30574034D01*
X49522022Y-32987188D01*
X49514408Y-33001132D01*
X48784356Y-33001132D01*
X48785592Y-32998868D01*
X48785461Y-32997035D01*
X48781210Y-32990420D01*
X46365690Y-30574900D01*
X46352614Y-30567759D01*
X46342247Y-30575216D01*
X46148123Y-30814939D01*
X46144253Y-30820265D01*
X45936169Y-31140687D01*
X45932872Y-31146397D01*
X45759422Y-31486811D01*
X45756740Y-31492836D01*
X45619829Y-31849502D01*
X45617788Y-31855784D01*
X45518906Y-32224816D01*
X45517535Y-32231266D01*
X45457766Y-32608629D01*
X45457080Y-32615167D01*
X45437084Y-32996699D01*
X45437084Y-33003301D01*
X38098038Y-33003301D01*
X38015148Y-32920411D01*
X37981123Y-32858099D01*
X37979392Y-32844432D01*
X37979099Y-32844468D01*
X37978449Y-32839173D01*
X37978249Y-32833842D01*
X37930907Y-32608209D01*
X37846224Y-32393779D01*
X37777749Y-32280935D01*
X37752072Y-32238621D01*
X37726623Y-32196683D01*
X37686664Y-32150634D01*
X37579023Y-32026588D01*
X37579021Y-32026586D01*
X37575523Y-32022555D01*
X37493419Y-31955234D01*
X37401373Y-31879760D01*
X37401367Y-31879756D01*
X37397245Y-31876376D01*
X37391527Y-31873121D01*
X37365265Y-31858171D01*
X37315959Y-31807088D01*
X37302098Y-31737458D01*
X37328082Y-31671387D01*
X37357232Y-31644149D01*
X37474578Y-31565148D01*
X37482870Y-31558481D01*
X37641900Y-31406772D01*
X37648941Y-31398814D01*
X37780141Y-31222475D01*
X37785745Y-31213438D01*
X37885357Y-31017516D01*
X37889357Y-31007665D01*
X37954534Y-30797760D01*
X37956817Y-30787376D01*
X37958861Y-30771957D01*
X37956665Y-30757793D01*
X37943478Y-30754000D01*
X35058808Y-30754000D01*
X35045277Y-30757973D01*
X35043752Y-30768580D01*
X35068477Y-30886421D01*
X35071537Y-30896617D01*
X35152263Y-31101029D01*
X35156994Y-31110561D01*
X35271016Y-31298462D01*
X35277280Y-31307052D01*
X35421327Y-31473052D01*
X35428958Y-31480472D01*
X35598911Y-31619826D01*
X35607674Y-31625848D01*
X35634711Y-31641238D01*
X35684018Y-31692320D01*
X35697880Y-31761951D01*
X35671897Y-31828022D01*
X35642747Y-31855261D01*
X35616219Y-31873121D01*
X35520681Y-31937441D01*
X35516824Y-31941120D01*
X35516822Y-31941122D01*
X35451001Y-32003913D01*
X35353865Y-32096576D01*
X35350682Y-32100854D01*
X35314117Y-32149999D01*
X35216246Y-32281542D01*
X35213830Y-32286293D01*
X35213828Y-32286297D01*
X35173676Y-32365271D01*
X35111760Y-32487051D01*
X35110178Y-32492145D01*
X35110177Y-32492148D01*
X35068001Y-32627978D01*
X35043393Y-32707227D01*
X35042692Y-32712516D01*
X35016717Y-32908500D01*
X35013102Y-32935774D01*
X31136907Y-32935774D01*
X35077276Y-28995405D01*
X35139588Y-28961379D01*
X35166371Y-28958500D01*
X35921513Y-28958500D01*
X35989634Y-28978502D01*
X36036127Y-29032158D01*
X36046231Y-29102432D01*
X36016737Y-29167012D01*
X35953167Y-29206459D01*
X35927465Y-29213130D01*
X35917425Y-29216665D01*
X35717030Y-29306937D01*
X35707744Y-29312106D01*
X35525425Y-29434850D01*
X35517130Y-29441519D01*
X35358100Y-29593228D01*
X35351059Y-29601186D01*
X35219859Y-29777525D01*
X35214255Y-29786562D01*
X35114643Y-29982484D01*
X35110643Y-29992335D01*
X35045466Y-30202240D01*
X35043183Y-30212624D01*
X35041139Y-30228043D01*
X35043335Y-30242207D01*
X35056522Y-30246000D01*
X37941192Y-30246000D01*
X37954723Y-30242027D01*
X37956248Y-30231420D01*
X37950439Y-30203733D01*
X46717700Y-30203733D01*
X46724034Y-30214824D01*
X49137188Y-32627978D01*
X49151132Y-32635592D01*
X49152965Y-32635461D01*
X49159580Y-32631210D01*
X51575100Y-30215690D01*
X51581630Y-30203733D01*
X244417700Y-30203733D01*
X244424034Y-30214824D01*
X246837188Y-32627978D01*
X246851132Y-32635592D01*
X246852965Y-32635461D01*
X246859580Y-32631210D01*
X249275100Y-30215690D01*
X249282241Y-30202614D01*
X249274784Y-30192247D01*
X249035065Y-29998126D01*
X249029728Y-29994249D01*
X248709315Y-29786170D01*
X248703606Y-29782873D01*
X248363189Y-29609422D01*
X248357164Y-29606740D01*
X248000498Y-29469829D01*
X247994216Y-29467788D01*
X247625184Y-29368906D01*
X247618734Y-29367535D01*
X247241371Y-29307766D01*
X247234833Y-29307080D01*
X246853301Y-29287084D01*
X246846699Y-29287084D01*
X246465167Y-29307080D01*
X246458629Y-29307766D01*
X246081266Y-29367535D01*
X246074816Y-29368906D01*
X245705784Y-29467788D01*
X245699502Y-29469829D01*
X245342836Y-29606740D01*
X245336811Y-29609422D01*
X244996397Y-29782872D01*
X244990687Y-29786169D01*
X244670265Y-29994253D01*
X244664939Y-29998123D01*
X244426165Y-30191478D01*
X244417700Y-30203733D01*
X51581630Y-30203733D01*
X51582241Y-30202614D01*
X51574784Y-30192247D01*
X51335065Y-29998126D01*
X51329728Y-29994249D01*
X51009315Y-29786170D01*
X51003606Y-29782873D01*
X50663189Y-29609422D01*
X50657164Y-29606740D01*
X50300498Y-29469829D01*
X50294216Y-29467788D01*
X49925184Y-29368906D01*
X49918734Y-29367535D01*
X49541371Y-29307766D01*
X49534833Y-29307080D01*
X49153301Y-29287084D01*
X49146699Y-29287084D01*
X48765167Y-29307080D01*
X48758629Y-29307766D01*
X48381266Y-29367535D01*
X48374816Y-29368906D01*
X48005784Y-29467788D01*
X47999502Y-29469829D01*
X47642836Y-29606740D01*
X47636811Y-29609422D01*
X47296397Y-29782872D01*
X47290687Y-29786169D01*
X46970265Y-29994253D01*
X46964939Y-29998123D01*
X46726165Y-30191478D01*
X46717700Y-30203733D01*
X37950439Y-30203733D01*
X37931523Y-30113579D01*
X37928463Y-30103383D01*
X37847737Y-29898971D01*
X37843006Y-29889439D01*
X37728984Y-29701538D01*
X37722720Y-29692948D01*
X37578673Y-29526948D01*
X37571042Y-29519528D01*
X37401089Y-29380174D01*
X37392322Y-29374150D01*
X37201318Y-29265424D01*
X37191654Y-29260959D01*
X37031813Y-29202939D01*
X36974605Y-29160894D01*
X36949209Y-29094595D01*
X36963689Y-29025091D01*
X37013447Y-28974448D01*
X37074804Y-28958500D01*
X259264629Y-28958500D01*
X259332750Y-28978502D01*
X259379243Y-29032158D01*
X259389347Y-29102432D01*
X259359853Y-29167012D01*
X259353724Y-29173595D01*
X255443669Y-33083650D01*
X255380772Y-33117801D01*
X255324176Y-33129831D01*
X255324167Y-33129834D01*
X255317712Y-33131206D01*
X255311682Y-33133891D01*
X255311681Y-33133891D01*
X255149278Y-33206197D01*
X255149276Y-33206198D01*
X255143248Y-33208882D01*
X254988747Y-33321134D01*
X254984326Y-33326044D01*
X254984325Y-33326045D01*
X254910858Y-33407639D01*
X254860960Y-33463056D01*
X254822531Y-33529617D01*
X254773457Y-33614616D01*
X254765473Y-33628444D01*
X254706458Y-33810072D01*
X254705768Y-33816633D01*
X254705768Y-33816635D01*
X254697202Y-33898134D01*
X254686496Y-34000000D01*
X254687186Y-34006565D01*
X254705438Y-34180220D01*
X254706458Y-34189928D01*
X254765473Y-34371556D01*
X254768776Y-34377278D01*
X254768777Y-34377279D01*
X254770212Y-34379764D01*
X254860960Y-34536944D01*
X254865378Y-34541851D01*
X254865379Y-34541852D01*
X254957796Y-34644491D01*
X254988747Y-34678866D01*
X255143248Y-34791118D01*
X255149276Y-34793802D01*
X255149278Y-34793803D01*
X255283592Y-34853603D01*
X255317712Y-34868794D01*
X255404686Y-34887281D01*
X255498056Y-34907128D01*
X255498061Y-34907128D01*
X255504513Y-34908500D01*
X255695487Y-34908500D01*
X255701939Y-34907128D01*
X255701944Y-34907128D01*
X255795314Y-34887281D01*
X255882288Y-34868794D01*
X255916408Y-34853603D01*
X256050722Y-34793803D01*
X256050724Y-34793802D01*
X256056752Y-34791118D01*
X256211253Y-34678866D01*
X256242204Y-34644491D01*
X256334621Y-34541852D01*
X256334622Y-34541851D01*
X256339040Y-34536944D01*
X256429788Y-34379764D01*
X256431223Y-34377279D01*
X256431224Y-34377278D01*
X256434527Y-34371556D01*
X256489387Y-34202714D01*
X256520125Y-34152556D01*
X260877276Y-29795405D01*
X260939588Y-29761379D01*
X260966371Y-29758500D01*
X261591000Y-29758500D01*
X261659121Y-29778502D01*
X261705614Y-29832158D01*
X261717000Y-29884500D01*
X261717000Y-30227885D01*
X261721475Y-30243124D01*
X261722865Y-30244329D01*
X261730548Y-30246000D01*
X264664884Y-30246000D01*
X264680123Y-30241525D01*
X264681328Y-30240135D01*
X264683400Y-30230609D01*
X264717425Y-30168297D01*
X264779737Y-30134272D01*
X264850553Y-30139336D01*
X264895616Y-30168297D01*
X265604595Y-30877276D01*
X265638621Y-30939588D01*
X265641500Y-30966371D01*
X265641500Y-31463001D01*
X265624619Y-31526001D01*
X265570449Y-31619826D01*
X265565473Y-31628444D01*
X265506458Y-31810072D01*
X265505768Y-31816633D01*
X265505768Y-31816635D01*
X265498046Y-31890111D01*
X265486496Y-32000000D01*
X265487186Y-32006565D01*
X265503295Y-32159829D01*
X265506458Y-32189928D01*
X265565473Y-32371556D01*
X265568776Y-32377278D01*
X265568777Y-32377279D01*
X265578303Y-32393779D01*
X265660960Y-32536944D01*
X265788747Y-32678866D01*
X265943248Y-32791118D01*
X265949276Y-32793802D01*
X265949278Y-32793803D01*
X266111681Y-32866109D01*
X266117712Y-32868794D01*
X266211113Y-32888647D01*
X266298056Y-32907128D01*
X266298061Y-32907128D01*
X266304513Y-32908500D01*
X266495487Y-32908500D01*
X266501939Y-32907128D01*
X266501944Y-32907128D01*
X266588887Y-32888647D01*
X266682288Y-32868794D01*
X266688319Y-32866109D01*
X266850722Y-32793803D01*
X266850724Y-32793802D01*
X266856752Y-32791118D01*
X267011253Y-32678866D01*
X267139040Y-32536944D01*
X267221697Y-32393779D01*
X267231223Y-32377279D01*
X267231224Y-32377278D01*
X267234527Y-32371556D01*
X267293542Y-32189928D01*
X267296706Y-32159829D01*
X267312814Y-32006565D01*
X267313504Y-32000000D01*
X267306616Y-31934461D01*
X267302095Y-31891446D01*
X267314867Y-31821608D01*
X267363370Y-31769761D01*
X267432202Y-31752367D01*
X267499512Y-31774949D01*
X267516500Y-31789181D01*
X267954595Y-32227276D01*
X267988621Y-32289588D01*
X267991500Y-32316371D01*
X267991500Y-33082930D01*
X267990067Y-33101880D01*
X267986801Y-33123349D01*
X267987394Y-33130641D01*
X267987394Y-33130644D01*
X267991085Y-33176018D01*
X267991500Y-33186233D01*
X267991500Y-33194293D01*
X267991925Y-33197937D01*
X267994789Y-33222507D01*
X267995222Y-33226882D01*
X268001140Y-33299637D01*
X268003396Y-33306601D01*
X268004587Y-33312560D01*
X268005971Y-33318415D01*
X268006818Y-33325681D01*
X268031735Y-33394327D01*
X268033152Y-33398455D01*
X268034494Y-33402596D01*
X268055649Y-33467899D01*
X268059445Y-33474154D01*
X268061951Y-33479628D01*
X268064670Y-33485058D01*
X268067167Y-33491937D01*
X268071180Y-33498057D01*
X268071180Y-33498058D01*
X268107186Y-33552976D01*
X268109523Y-33556680D01*
X268147405Y-33619107D01*
X268151121Y-33623315D01*
X268151122Y-33623316D01*
X268154803Y-33627484D01*
X268154776Y-33627508D01*
X268157429Y-33630500D01*
X268160132Y-33633733D01*
X268164144Y-33639852D01*
X268215022Y-33688049D01*
X268220383Y-33693128D01*
X268222825Y-33695506D01*
X268679875Y-34152556D01*
X268710613Y-34202714D01*
X268765473Y-34371556D01*
X268768776Y-34377278D01*
X268768777Y-34377279D01*
X268770212Y-34379764D01*
X268860960Y-34536944D01*
X268865378Y-34541851D01*
X268865379Y-34541852D01*
X268957796Y-34644491D01*
X268988747Y-34678866D01*
X269143248Y-34791118D01*
X269149276Y-34793802D01*
X269149278Y-34793803D01*
X269283592Y-34853603D01*
X269317712Y-34868794D01*
X269404686Y-34887281D01*
X269498056Y-34907128D01*
X269498061Y-34907128D01*
X269504513Y-34908500D01*
X269695487Y-34908500D01*
X269701939Y-34907128D01*
X269701944Y-34907128D01*
X269795314Y-34887281D01*
X269882288Y-34868794D01*
X269916408Y-34853603D01*
X270050722Y-34793803D01*
X270050724Y-34793802D01*
X270056752Y-34791118D01*
X270211253Y-34678866D01*
X270242204Y-34644491D01*
X270334621Y-34541852D01*
X270334622Y-34541851D01*
X270339040Y-34536944D01*
X270429788Y-34379764D01*
X270431223Y-34377279D01*
X270431224Y-34377278D01*
X270434527Y-34371556D01*
X270493542Y-34189928D01*
X270494563Y-34180220D01*
X270512814Y-34006565D01*
X270513504Y-34000000D01*
X270502798Y-33898134D01*
X270494232Y-33816635D01*
X270494232Y-33816633D01*
X270493542Y-33810072D01*
X270434527Y-33628444D01*
X270426544Y-33614616D01*
X270377469Y-33529617D01*
X270339040Y-33463056D01*
X270289143Y-33407639D01*
X270215675Y-33326045D01*
X270215674Y-33326044D01*
X270211253Y-33321134D01*
X270056752Y-33208882D01*
X270050724Y-33206198D01*
X270050722Y-33206197D01*
X269888319Y-33133891D01*
X269888318Y-33133891D01*
X269882288Y-33131206D01*
X269875833Y-33129834D01*
X269875824Y-33129831D01*
X269819228Y-33117801D01*
X269756331Y-33083650D01*
X269545405Y-32872724D01*
X269511379Y-32810412D01*
X269508500Y-32783629D01*
X269508500Y-32017070D01*
X269509933Y-31998120D01*
X269512099Y-31983885D01*
X269512099Y-31983881D01*
X269513199Y-31976651D01*
X269508915Y-31923982D01*
X269508500Y-31913767D01*
X269508500Y-31905707D01*
X269506838Y-31891446D01*
X269505211Y-31877497D01*
X269504778Y-31873121D01*
X269498860Y-31800364D01*
X269496605Y-31793403D01*
X269495418Y-31787463D01*
X269494029Y-31781588D01*
X269493182Y-31774319D01*
X269468264Y-31705670D01*
X269466847Y-31701542D01*
X269446607Y-31639064D01*
X269446606Y-31639062D01*
X269444351Y-31632101D01*
X269440555Y-31625846D01*
X269438049Y-31620372D01*
X269435330Y-31614942D01*
X269432833Y-31608063D01*
X269406440Y-31567807D01*
X269392814Y-31547024D01*
X269390467Y-31543305D01*
X269379967Y-31526001D01*
X269352595Y-31480893D01*
X269345197Y-31472516D01*
X269345224Y-31472492D01*
X269342571Y-31469500D01*
X269339868Y-31466267D01*
X269335856Y-31460148D01*
X269279617Y-31406872D01*
X269277175Y-31404494D01*
X266096276Y-28223595D01*
X266062250Y-28161283D01*
X266067315Y-28090468D01*
X266109862Y-28033632D01*
X266176382Y-28008821D01*
X266185371Y-28008500D01*
X278829311Y-28008500D01*
X278892527Y-28025506D01*
X280615949Y-29025091D01*
X282428717Y-30076497D01*
X282477608Y-30127977D01*
X282491500Y-30185491D01*
X282491500Y-35814511D01*
X282471498Y-35882632D01*
X282428717Y-35923504D01*
X279860009Y-37413355D01*
X278892528Y-37974494D01*
X278829312Y-37991500D01*
X17170689Y-37991500D01*
X17107472Y-37974494D01*
X16109087Y-37395430D01*
X15058637Y-36786169D01*
X13571283Y-35923503D01*
X13522392Y-35872023D01*
X13508500Y-35814509D01*
X13508500Y-30185489D01*
X13528502Y-30117368D01*
X13571284Y-30076495D01*
X13706409Y-29998123D01*
X17107473Y-28025506D01*
X17170688Y-28008500D01*
X33614629Y-28008500D01*
X33682750Y-28028502D01*
G37*
%TD.AperFunction*%
M02*
