M48
; DRILL file {KiCad (6.0.9-0)} date 2023 July 01, Saturday 19:47:11
; FORMAT={-:-/ absolute / metric / decimal}
; #@! TF.CreationDate,2023-07-01T19:47:11+02:00
; #@! TF.GenerationSoftware,Kicad,Pcbnew,(6.0.9-0)
; #@! TF.FileFunction,Plated,1,2,PTH
FMAT,2
METRIC
; #@! TA.AperFunction,Plated,PTH,ViaDrill
T1C0.400
; #@! TA.AperFunction,Plated,PTH,ComponentDrill
T2C0.500
; #@! TA.AperFunction,Plated,PTH,ComponentDrill
T3C0.950
; #@! TA.AperFunction,Plated,PTH,ComponentDrill
T4C1.000
; #@! TA.AperFunction,Plated,PTH,ComponentDrill
T5C3.200
%
G90
G05
T1
X29.6Y-32.0
X38.6Y-35.4
X38.6Y-36.4
X43.6Y-32.0
X58.6Y-32.0
X72.6Y-32.0
X86.6Y-32.0
X100.6Y-32.0
X114.6Y-32.0
X128.6Y-32.0
X142.6Y-32.0
X156.6Y-32.0
X170.6Y-32.0
X184.6Y-32.0
X198.6Y-32.0
X212.6Y-32.0
X226.6Y-32.0
X240.6Y-32.0
X255.6Y-32.0
X255.6Y-34.0
X259.0Y-36.2
X259.963Y-36.2
X260.925Y-36.2
X266.4Y-32.0
X269.6Y-32.0
X269.6Y-34.0
T2
X46.75Y-33.0
X47.453Y-31.303
X47.453Y-34.697
X49.15Y-30.6
X49.15Y-35.4
X50.847Y-31.303
X50.847Y-34.697
X51.55Y-33.0
X244.45Y-33.0
X245.153Y-31.303
X245.153Y-34.697
X246.85Y-30.6
X246.85Y-35.4
X248.547Y-31.303
X248.547Y-34.697
X249.25Y-33.0
T3
X36.5Y-30.5
X36.5Y-33.0
X36.5Y-35.5
X263.2Y-30.5
X263.2Y-33.0
X263.2Y-35.5
T4
X23.4Y-33.0
T5
X49.15Y-33.0
X246.85Y-33.0
T0
M30
