%TF.GenerationSoftware,KiCad,Pcbnew,(6.0.9-0)*%
%TF.CreationDate,2023-07-01T19:47:25+02:00*%
%TF.ProjectId,Daylight_Disco,4461796c-6967-4687-945f-446973636f2e,rev?*%
%TF.SameCoordinates,Original*%
%TF.FileFunction,Drillmap*%
%TF.FilePolarity,Positive*%
%FSLAX45Y45*%
G04 Gerber Fmt 4.5, Leading zero omitted, Abs format (unit mm)*
G04 Created by KiCad (PCBNEW (6.0.9-0)) date 2023-07-01 19:47:25*
%MOMM*%
%LPD*%
G01*
G04 APERTURE LIST*
%ADD10C,0.100000*%
%ADD11C,0.200000*%
G04 APERTURE END LIST*
D10*
X27900000Y-2750000D02*
X28300000Y-2982000D01*
X28300000Y-2982000D02*
X28300000Y-3618000D01*
X1300000Y-3618000D02*
X1300000Y-2982000D01*
X1300000Y-3618000D02*
X1700000Y-3850000D01*
X1300000Y-2982000D02*
X1700000Y-2750000D01*
X27900000Y-3850000D02*
X1700000Y-3850000D01*
X28300000Y-3618000D02*
X27900000Y-3850000D01*
X1700000Y-2750000D02*
X27900000Y-2750000D01*
D11*
X1552619Y-4165476D02*
X1552619Y-3965476D01*
X1600238Y-3965476D01*
X1628809Y-3975000D01*
X1647857Y-3994048D01*
X1657381Y-4013095D01*
X1666905Y-4051190D01*
X1666905Y-4079762D01*
X1657381Y-4117857D01*
X1647857Y-4136905D01*
X1628809Y-4155952D01*
X1600238Y-4165476D01*
X1552619Y-4165476D01*
X1752619Y-4165476D02*
X1752619Y-4032143D01*
X1752619Y-4070238D02*
X1762143Y-4051190D01*
X1771667Y-4041667D01*
X1790714Y-4032143D01*
X1809762Y-4032143D01*
X1876428Y-4165476D02*
X1876428Y-4032143D01*
X1876428Y-3965476D02*
X1866905Y-3975000D01*
X1876428Y-3984524D01*
X1885952Y-3975000D01*
X1876428Y-3965476D01*
X1876428Y-3984524D01*
X2000238Y-4165476D02*
X1981190Y-4155952D01*
X1971667Y-4136905D01*
X1971667Y-3965476D01*
X2105000Y-4165476D02*
X2085952Y-4155952D01*
X2076428Y-4136905D01*
X2076428Y-3965476D01*
X2333571Y-4165476D02*
X2333571Y-3965476D01*
X2400238Y-4108333D01*
X2466905Y-3965476D01*
X2466905Y-4165476D01*
X2647857Y-4165476D02*
X2647857Y-4060714D01*
X2638333Y-4041667D01*
X2619286Y-4032143D01*
X2581190Y-4032143D01*
X2562143Y-4041667D01*
X2647857Y-4155952D02*
X2628810Y-4165476D01*
X2581190Y-4165476D01*
X2562143Y-4155952D01*
X2552619Y-4136905D01*
X2552619Y-4117857D01*
X2562143Y-4098809D01*
X2581190Y-4089286D01*
X2628810Y-4089286D01*
X2647857Y-4079762D01*
X2743095Y-4032143D02*
X2743095Y-4232143D01*
X2743095Y-4041667D02*
X2762143Y-4032143D01*
X2800238Y-4032143D01*
X2819286Y-4041667D01*
X2828809Y-4051190D01*
X2838333Y-4070238D01*
X2838333Y-4127381D01*
X2828809Y-4146428D01*
X2819286Y-4155952D01*
X2800238Y-4165476D01*
X2762143Y-4165476D01*
X2743095Y-4155952D01*
X2924048Y-4146428D02*
X2933571Y-4155952D01*
X2924048Y-4165476D01*
X2914524Y-4155952D01*
X2924048Y-4146428D01*
X2924048Y-4165476D01*
X2924048Y-4041667D02*
X2933571Y-4051190D01*
X2924048Y-4060714D01*
X2914524Y-4051190D01*
X2924048Y-4041667D01*
X2924048Y-4060714D01*
M02*
