%TF.GenerationSoftware,KiCad,Pcbnew,(6.0.9-0)*%
%TF.CreationDate,2023-07-01T19:46:49+02:00*%
%TF.ProjectId,Daylight_Disco,4461796c-6967-4687-945f-446973636f2e,rev?*%
%TF.SameCoordinates,Original*%
%TF.FileFunction,Soldermask,Top*%
%TF.FilePolarity,Negative*%
%FSLAX46Y46*%
G04 Gerber Fmt 4.6, Leading zero omitted, Abs format (unit mm)*
G04 Created by KiCad (PCBNEW (6.0.9-0)) date 2023-07-01 19:46:49*
%MOMM*%
%LPD*%
G01*
G04 APERTURE LIST*
G04 Aperture macros list*
%AMRoundRect*
0 Rectangle with rounded corners*
0 $1 Rounding radius*
0 $2 $3 $4 $5 $6 $7 $8 $9 X,Y pos of 4 corners*
0 Add a 4 corners polygon primitive as box body*
4,1,4,$2,$3,$4,$5,$6,$7,$8,$9,$2,$3,0*
0 Add four circle primitives for the rounded corners*
1,1,$1+$1,$2,$3*
1,1,$1+$1,$4,$5*
1,1,$1+$1,$6,$7*
1,1,$1+$1,$8,$9*
0 Add four rect primitives between the rounded corners*
20,1,$1+$1,$2,$3,$4,$5,0*
20,1,$1+$1,$4,$5,$6,$7,0*
20,1,$1+$1,$6,$7,$8,$9,0*
20,1,$1+$1,$8,$9,$2,$3,0*%
G04 Aperture macros list end*
%ADD10RoundRect,0.250000X-0.475000X0.337500X-0.475000X-0.337500X0.475000X-0.337500X0.475000X0.337500X0*%
%ADD11C,0.800000*%
%ADD12C,6.400000*%
%ADD13R,1.000000X1.500000*%
%ADD14RoundRect,0.250000X-0.725000X0.600000X-0.725000X-0.600000X0.725000X-0.600000X0.725000X0.600000X0*%
%ADD15O,1.950000X1.700000*%
%ADD16R,1.700000X1.700000*%
%ADD17RoundRect,0.250000X0.725000X-0.600000X0.725000X0.600000X-0.725000X0.600000X-0.725000X-0.600000X0*%
G04 APERTURE END LIST*
D10*
X119000000Y-31962500D03*
X119000000Y-34037500D03*
D11*
X244450000Y-33000000D03*
X245152944Y-34697056D03*
X246850000Y-35400000D03*
X248547056Y-34697056D03*
X249250000Y-33000000D03*
X245152944Y-31302944D03*
X246850000Y-30600000D03*
X248547056Y-31302944D03*
D12*
X246850000Y-33000000D03*
D13*
X58600000Y-30550000D03*
X55400000Y-30550000D03*
X55400000Y-35450000D03*
X58600000Y-35450000D03*
D10*
X231000000Y-31962500D03*
X231000000Y-34037500D03*
X63000000Y-31962500D03*
X63000000Y-34037500D03*
D13*
X170600000Y-30550000D03*
X167400000Y-30550000D03*
X167400000Y-35450000D03*
X170600000Y-35450000D03*
D10*
X133000000Y-31962500D03*
X133000000Y-34037500D03*
D13*
X226600000Y-30550000D03*
X223400000Y-30550000D03*
X223400000Y-35450000D03*
X226600000Y-35450000D03*
D10*
X91000000Y-31962500D03*
X91000000Y-34037500D03*
X105000000Y-31962500D03*
X105000000Y-34037500D03*
D13*
X255600000Y-30550000D03*
X252400000Y-30550000D03*
X252400000Y-35450000D03*
X255600000Y-35450000D03*
D10*
X260000000Y-31962500D03*
X260000000Y-34037500D03*
D13*
X128600000Y-30550000D03*
X125400000Y-30550000D03*
X125400000Y-35450000D03*
X128600000Y-35450000D03*
D10*
X33500000Y-31962500D03*
X33500000Y-34037500D03*
D11*
X49150000Y-35400000D03*
X47452944Y-34697056D03*
X50847056Y-31302944D03*
X49150000Y-30600000D03*
X51550000Y-33000000D03*
X50847056Y-34697056D03*
D12*
X49150000Y-33000000D03*
D11*
X47452944Y-31302944D03*
X46750000Y-33000000D03*
D10*
X147000000Y-31962500D03*
X147000000Y-34037500D03*
D13*
X142600000Y-30550000D03*
X139400000Y-30550000D03*
X139400000Y-35450000D03*
X142600000Y-35450000D03*
D10*
X203000000Y-31962500D03*
X203000000Y-34037500D03*
D13*
X184600000Y-30550000D03*
X181400000Y-30550000D03*
X181400000Y-35450000D03*
X184600000Y-35450000D03*
D10*
X161000000Y-31962500D03*
X161000000Y-34037500D03*
D13*
X114600000Y-30550000D03*
X111400000Y-30550000D03*
X111400000Y-35450000D03*
X114600000Y-35450000D03*
X72600000Y-30550000D03*
X69400000Y-30550000D03*
X69400000Y-35450000D03*
X72600000Y-35450000D03*
D10*
X175000000Y-31962500D03*
X175000000Y-34037500D03*
D13*
X29600000Y-30550000D03*
X26400000Y-30550000D03*
X26400000Y-35450000D03*
X29600000Y-35450000D03*
X198600000Y-30550000D03*
X195400000Y-30550000D03*
X195400000Y-35450000D03*
X198600000Y-35450000D03*
D10*
X77000000Y-31962500D03*
X77000000Y-34037500D03*
X217000000Y-31962500D03*
X217000000Y-34037500D03*
D13*
X156600000Y-30550000D03*
X153400000Y-30550000D03*
X153400000Y-35450000D03*
X156600000Y-35450000D03*
X43600000Y-30570000D03*
X40400000Y-30570000D03*
X40400000Y-35470000D03*
X43600000Y-35470000D03*
X86600000Y-30550000D03*
X83400000Y-30550000D03*
X83400000Y-35450000D03*
X86600000Y-35450000D03*
X100600000Y-30550000D03*
X97400000Y-30550000D03*
X97400000Y-35450000D03*
X100600000Y-35450000D03*
D10*
X189000000Y-31962500D03*
X189000000Y-34037500D03*
D13*
X212600000Y-30550000D03*
X209400000Y-30550000D03*
X209400000Y-35450000D03*
X212600000Y-35450000D03*
X240600000Y-30550000D03*
X237400000Y-30550000D03*
X237400000Y-35450000D03*
X240600000Y-35450000D03*
X269600000Y-30550000D03*
X266400000Y-30550000D03*
X266400000Y-35450000D03*
X269600000Y-35450000D03*
D14*
X263200000Y-30500000D03*
D15*
X263200000Y-33000000D03*
X263200000Y-35500000D03*
D16*
X23400000Y-33000000D03*
D17*
X36500000Y-35500000D03*
D15*
X36500000Y-33000000D03*
X36500000Y-30500000D03*
M02*
