%TF.GenerationSoftware,KiCad,Pcbnew,(6.0.9-0)*%
%TF.CreationDate,2023-07-01T19:46:49+02:00*%
%TF.ProjectId,Daylight_Disco,4461796c-6967-4687-945f-446973636f2e,rev?*%
%TF.SameCoordinates,Original*%
%TF.FileFunction,Legend,Bot*%
%TF.FilePolarity,Positive*%
%FSLAX46Y46*%
G04 Gerber Fmt 4.6, Leading zero omitted, Abs format (unit mm)*
G04 Created by KiCad (PCBNEW (6.0.9-0)) date 2023-07-01 19:46:49*
%MOMM*%
%LPD*%
G01*
G04 APERTURE LIST*
G04 Aperture macros list*
%AMRoundRect*
0 Rectangle with rounded corners*
0 $1 Rounding radius*
0 $2 $3 $4 $5 $6 $7 $8 $9 X,Y pos of 4 corners*
0 Add a 4 corners polygon primitive as box body*
4,1,4,$2,$3,$4,$5,$6,$7,$8,$9,$2,$3,0*
0 Add four circle primitives for the rounded corners*
1,1,$1+$1,$2,$3*
1,1,$1+$1,$4,$5*
1,1,$1+$1,$6,$7*
1,1,$1+$1,$8,$9*
0 Add four rect primitives between the rounded corners*
20,1,$1+$1,$2,$3,$4,$5,0*
20,1,$1+$1,$4,$5,$6,$7,0*
20,1,$1+$1,$6,$7,$8,$9,0*
20,1,$1+$1,$8,$9,$2,$3,0*%
G04 Aperture macros list end*
%ADD10C,0.250000*%
%ADD11C,0.150000*%
%ADD12C,0.120000*%
%ADD13C,0.800000*%
%ADD14C,6.400000*%
%ADD15RoundRect,0.250000X-0.725000X0.600000X-0.725000X-0.600000X0.725000X-0.600000X0.725000X0.600000X0*%
%ADD16O,1.950000X1.700000*%
%ADD17R,1.700000X1.700000*%
%ADD18C,1.700000*%
%ADD19R,3.768750X1.700000*%
%ADD20RoundRect,0.250000X0.725000X-0.600000X0.725000X0.600000X-0.725000X0.600000X-0.725000X-0.600000X0*%
G04 APERTURE END LIST*
D10*
X17594642Y-32178571D02*
X17308928Y-32178571D01*
X17166071Y-32250000D01*
X17023214Y-32392857D01*
X16951785Y-32678571D01*
X16951785Y-33178571D01*
X17023214Y-33464285D01*
X17166071Y-33607142D01*
X17308928Y-33678571D01*
X17594642Y-33678571D01*
X17737500Y-33607142D01*
X17880357Y-33464285D01*
X17951785Y-33178571D01*
X17951785Y-32678571D01*
X17880357Y-32392857D01*
X17737500Y-32250000D01*
X17594642Y-32178571D01*
X16308928Y-32178571D02*
X16308928Y-33392857D01*
X16237500Y-33535714D01*
X16166071Y-33607142D01*
X16023214Y-33678571D01*
X15737500Y-33678571D01*
X15594642Y-33607142D01*
X15523214Y-33535714D01*
X15451785Y-33392857D01*
X15451785Y-32178571D01*
X14951785Y-32178571D02*
X14094642Y-32178571D01*
X14523214Y-33678571D02*
X14523214Y-32178571D01*
X259694642Y-29835000D02*
X259837500Y-29763571D01*
X260051785Y-29763571D01*
X260266071Y-29835000D01*
X260408928Y-29977857D01*
X260480357Y-30120714D01*
X260551785Y-30406428D01*
X260551785Y-30620714D01*
X260480357Y-30906428D01*
X260408928Y-31049285D01*
X260266071Y-31192142D01*
X260051785Y-31263571D01*
X259908928Y-31263571D01*
X259694642Y-31192142D01*
X259623214Y-31120714D01*
X259623214Y-30620714D01*
X259908928Y-30620714D01*
X258980357Y-31263571D02*
X258980357Y-29763571D01*
X258123214Y-31263571D01*
X258123214Y-29763571D01*
X257408928Y-31263571D02*
X257408928Y-29763571D01*
X257051785Y-29763571D01*
X256837500Y-29835000D01*
X256694642Y-29977857D01*
X256623214Y-30120714D01*
X256551785Y-30406428D01*
X256551785Y-30620714D01*
X256623214Y-30906428D01*
X256694642Y-31049285D01*
X256837500Y-31192142D01*
X257051785Y-31263571D01*
X257408928Y-31263571D01*
X259766071Y-32178571D02*
X260480357Y-32178571D01*
X260551785Y-32892857D01*
X260480357Y-32821428D01*
X260337500Y-32750000D01*
X259980357Y-32750000D01*
X259837500Y-32821428D01*
X259766071Y-32892857D01*
X259694642Y-33035714D01*
X259694642Y-33392857D01*
X259766071Y-33535714D01*
X259837500Y-33607142D01*
X259980357Y-33678571D01*
X260337500Y-33678571D01*
X260480357Y-33607142D01*
X260551785Y-33535714D01*
X259266071Y-32178571D02*
X258766071Y-33678571D01*
X258266071Y-32178571D01*
X260480357Y-36093571D02*
X260480357Y-34593571D01*
X260123214Y-34593571D01*
X259908928Y-34665000D01*
X259766071Y-34807857D01*
X259694642Y-34950714D01*
X259623214Y-35236428D01*
X259623214Y-35450714D01*
X259694642Y-35736428D01*
X259766071Y-35879285D01*
X259908928Y-36022142D01*
X260123214Y-36093571D01*
X260480357Y-36093571D01*
X258694642Y-34593571D02*
X258408928Y-34593571D01*
X258266071Y-34665000D01*
X258123214Y-34807857D01*
X258051785Y-35093571D01*
X258051785Y-35593571D01*
X258123214Y-35879285D01*
X258266071Y-36022142D01*
X258408928Y-36093571D01*
X258694642Y-36093571D01*
X258837500Y-36022142D01*
X258980357Y-35879285D01*
X259051785Y-35593571D01*
X259051785Y-35093571D01*
X258980357Y-34807857D01*
X258837500Y-34665000D01*
X258694642Y-34593571D01*
X257408928Y-34593571D02*
X257408928Y-35807857D01*
X257337500Y-35950714D01*
X257266071Y-36022142D01*
X257123214Y-36093571D01*
X256837500Y-36093571D01*
X256694642Y-36022142D01*
X256623214Y-35950714D01*
X256551785Y-35807857D01*
X256551785Y-34593571D01*
X256051785Y-34593571D02*
X255194642Y-34593571D01*
X255623214Y-36093571D02*
X255623214Y-34593571D01*
X42391071Y-29835000D02*
X42533928Y-29763571D01*
X42748214Y-29763571D01*
X42962500Y-29835000D01*
X43105357Y-29977857D01*
X43176785Y-30120714D01*
X43248214Y-30406428D01*
X43248214Y-30620714D01*
X43176785Y-30906428D01*
X43105357Y-31049285D01*
X42962500Y-31192142D01*
X42748214Y-31263571D01*
X42605357Y-31263571D01*
X42391071Y-31192142D01*
X42319642Y-31120714D01*
X42319642Y-30620714D01*
X42605357Y-30620714D01*
X41676785Y-31263571D02*
X41676785Y-29763571D01*
X40819642Y-31263571D01*
X40819642Y-29763571D01*
X40105357Y-31263571D02*
X40105357Y-29763571D01*
X39748214Y-29763571D01*
X39533928Y-29835000D01*
X39391071Y-29977857D01*
X39319642Y-30120714D01*
X39248214Y-30406428D01*
X39248214Y-30620714D01*
X39319642Y-30906428D01*
X39391071Y-31049285D01*
X39533928Y-31192142D01*
X39748214Y-31263571D01*
X40105357Y-31263571D01*
X40605357Y-32178571D02*
X41319642Y-32178571D01*
X41391071Y-32892857D01*
X41319642Y-32821428D01*
X41176785Y-32750000D01*
X40819642Y-32750000D01*
X40676785Y-32821428D01*
X40605357Y-32892857D01*
X40533928Y-33035714D01*
X40533928Y-33392857D01*
X40605357Y-33535714D01*
X40676785Y-33607142D01*
X40819642Y-33678571D01*
X41176785Y-33678571D01*
X41319642Y-33607142D01*
X41391071Y-33535714D01*
X40105357Y-32178571D02*
X39605357Y-33678571D01*
X39105357Y-32178571D01*
X42391071Y-36093571D02*
X42391071Y-34593571D01*
X42033928Y-34593571D01*
X41819642Y-34665000D01*
X41676785Y-34807857D01*
X41605357Y-34950714D01*
X41533928Y-35236428D01*
X41533928Y-35450714D01*
X41605357Y-35736428D01*
X41676785Y-35879285D01*
X41819642Y-36022142D01*
X42033928Y-36093571D01*
X42391071Y-36093571D01*
X40891071Y-36093571D02*
X40891071Y-34593571D01*
X40176785Y-36093571D02*
X40176785Y-34593571D01*
X39319642Y-36093571D01*
X39319642Y-34593571D01*
D11*
X157952380Y-32647380D02*
X157952380Y-31647380D01*
X157714285Y-31647380D01*
X157571428Y-31695000D01*
X157476190Y-31790238D01*
X157428571Y-31885476D01*
X157380952Y-32075952D01*
X157380952Y-32218809D01*
X157428571Y-32409285D01*
X157476190Y-32504523D01*
X157571428Y-32599761D01*
X157714285Y-32647380D01*
X157952380Y-32647380D01*
X156523809Y-32647380D02*
X156523809Y-32123571D01*
X156571428Y-32028333D01*
X156666666Y-31980714D01*
X156857142Y-31980714D01*
X156952380Y-32028333D01*
X156523809Y-32599761D02*
X156619047Y-32647380D01*
X156857142Y-32647380D01*
X156952380Y-32599761D01*
X157000000Y-32504523D01*
X157000000Y-32409285D01*
X156952380Y-32314047D01*
X156857142Y-32266428D01*
X156619047Y-32266428D01*
X156523809Y-32218809D01*
X156142857Y-31980714D02*
X155904761Y-32647380D01*
X155666666Y-31980714D02*
X155904761Y-32647380D01*
X156000000Y-32885476D01*
X156047619Y-32933095D01*
X156142857Y-32980714D01*
X155142857Y-32647380D02*
X155238095Y-32599761D01*
X155285714Y-32504523D01*
X155285714Y-31647380D01*
X154761904Y-32647380D02*
X154761904Y-31980714D01*
X154761904Y-31647380D02*
X154809523Y-31695000D01*
X154761904Y-31742619D01*
X154714285Y-31695000D01*
X154761904Y-31647380D01*
X154761904Y-31742619D01*
X153857142Y-31980714D02*
X153857142Y-32790238D01*
X153904761Y-32885476D01*
X153952380Y-32933095D01*
X154047619Y-32980714D01*
X154190476Y-32980714D01*
X154285714Y-32933095D01*
X153857142Y-32599761D02*
X153952380Y-32647380D01*
X154142857Y-32647380D01*
X154238095Y-32599761D01*
X154285714Y-32552142D01*
X154333333Y-32456904D01*
X154333333Y-32171190D01*
X154285714Y-32075952D01*
X154238095Y-32028333D01*
X154142857Y-31980714D01*
X153952380Y-31980714D01*
X153857142Y-32028333D01*
X153380952Y-32647380D02*
X153380952Y-31647380D01*
X152952380Y-32647380D02*
X152952380Y-32123571D01*
X153000000Y-32028333D01*
X153095238Y-31980714D01*
X153238095Y-31980714D01*
X153333333Y-32028333D01*
X153380952Y-32075952D01*
X152619047Y-31980714D02*
X152238095Y-31980714D01*
X152476190Y-31647380D02*
X152476190Y-32504523D01*
X152428571Y-32599761D01*
X152333333Y-32647380D01*
X152238095Y-32647380D01*
X150333333Y-32647380D02*
X150380952Y-32647380D01*
X150476190Y-32599761D01*
X150619047Y-32456904D01*
X150857142Y-32171190D01*
X150952380Y-32028333D01*
X151000000Y-31885476D01*
X151000000Y-31790238D01*
X150952380Y-31695000D01*
X150857142Y-31647380D01*
X150809523Y-31647380D01*
X150714285Y-31695000D01*
X150666666Y-31790238D01*
X150666666Y-31837857D01*
X150714285Y-31933095D01*
X150761904Y-31980714D01*
X151047619Y-32171190D01*
X151095238Y-32218809D01*
X151142857Y-32314047D01*
X151142857Y-32456904D01*
X151095238Y-32552142D01*
X151047619Y-32599761D01*
X150952380Y-32647380D01*
X150809523Y-32647380D01*
X150714285Y-32599761D01*
X150666666Y-32552142D01*
X150523809Y-32361666D01*
X150476190Y-32218809D01*
X150476190Y-32123571D01*
X149142857Y-32647380D02*
X149142857Y-31647380D01*
X148904761Y-31647380D01*
X148761904Y-31695000D01*
X148666666Y-31790238D01*
X148619047Y-31885476D01*
X148571428Y-32075952D01*
X148571428Y-32218809D01*
X148619047Y-32409285D01*
X148666666Y-32504523D01*
X148761904Y-32599761D01*
X148904761Y-32647380D01*
X149142857Y-32647380D01*
X148142857Y-32647380D02*
X148142857Y-31980714D01*
X148142857Y-31647380D02*
X148190476Y-31695000D01*
X148142857Y-31742619D01*
X148095238Y-31695000D01*
X148142857Y-31647380D01*
X148142857Y-31742619D01*
X147714285Y-32599761D02*
X147619047Y-32647380D01*
X147428571Y-32647380D01*
X147333333Y-32599761D01*
X147285714Y-32504523D01*
X147285714Y-32456904D01*
X147333333Y-32361666D01*
X147428571Y-32314047D01*
X147571428Y-32314047D01*
X147666666Y-32266428D01*
X147714285Y-32171190D01*
X147714285Y-32123571D01*
X147666666Y-32028333D01*
X147571428Y-31980714D01*
X147428571Y-31980714D01*
X147333333Y-32028333D01*
X146428571Y-32599761D02*
X146523809Y-32647380D01*
X146714285Y-32647380D01*
X146809523Y-32599761D01*
X146857142Y-32552142D01*
X146904761Y-32456904D01*
X146904761Y-32171190D01*
X146857142Y-32075952D01*
X146809523Y-32028333D01*
X146714285Y-31980714D01*
X146523809Y-31980714D01*
X146428571Y-32028333D01*
X145857142Y-32647380D02*
X145952380Y-32599761D01*
X146000000Y-32552142D01*
X146047619Y-32456904D01*
X146047619Y-32171190D01*
X146000000Y-32075952D01*
X145952380Y-32028333D01*
X145857142Y-31980714D01*
X145714285Y-31980714D01*
X145619047Y-32028333D01*
X145571428Y-32075952D01*
X145523809Y-32171190D01*
X145523809Y-32456904D01*
X145571428Y-32552142D01*
X145619047Y-32599761D01*
X145714285Y-32647380D01*
X145857142Y-32647380D01*
X144190476Y-32647380D02*
X144285714Y-32599761D01*
X144333333Y-32552142D01*
X144380952Y-32456904D01*
X144380952Y-32171190D01*
X144333333Y-32075952D01*
X144285714Y-32028333D01*
X144190476Y-31980714D01*
X144047619Y-31980714D01*
X143952380Y-32028333D01*
X143904761Y-32075952D01*
X143857142Y-32171190D01*
X143857142Y-32456904D01*
X143904761Y-32552142D01*
X143952380Y-32599761D01*
X144047619Y-32647380D01*
X144190476Y-32647380D01*
X143428571Y-31980714D02*
X143428571Y-32647380D01*
X143428571Y-32075952D02*
X143380952Y-32028333D01*
X143285714Y-31980714D01*
X143142857Y-31980714D01*
X143047619Y-32028333D01*
X143000000Y-32123571D01*
X143000000Y-32647380D01*
X141333333Y-32647380D02*
X141333333Y-32123571D01*
X141380952Y-32028333D01*
X141476190Y-31980714D01*
X141666666Y-31980714D01*
X141761904Y-32028333D01*
X141333333Y-32599761D02*
X141428571Y-32647380D01*
X141666666Y-32647380D01*
X141761904Y-32599761D01*
X141809523Y-32504523D01*
X141809523Y-32409285D01*
X141761904Y-32314047D01*
X141666666Y-32266428D01*
X141428571Y-32266428D01*
X141333333Y-32218809D01*
X140142857Y-32599761D02*
X140047619Y-32647380D01*
X139857142Y-32647380D01*
X139761904Y-32599761D01*
X139714285Y-32504523D01*
X139714285Y-32456904D01*
X139761904Y-32361666D01*
X139857142Y-32314047D01*
X140000000Y-32314047D01*
X140095238Y-32266428D01*
X140142857Y-32171190D01*
X140142857Y-32123571D01*
X140095238Y-32028333D01*
X140000000Y-31980714D01*
X139857142Y-31980714D01*
X139761904Y-32028333D01*
X139428571Y-31980714D02*
X139047619Y-31980714D01*
X139285714Y-31647380D02*
X139285714Y-32504523D01*
X139238095Y-32599761D01*
X139142857Y-32647380D01*
X139047619Y-32647380D01*
X138714285Y-32647380D02*
X138714285Y-31980714D01*
X138714285Y-31647380D02*
X138761904Y-31695000D01*
X138714285Y-31742619D01*
X138666666Y-31695000D01*
X138714285Y-31647380D01*
X138714285Y-31742619D01*
X137809523Y-32599761D02*
X137904761Y-32647380D01*
X138095238Y-32647380D01*
X138190476Y-32599761D01*
X138238095Y-32552142D01*
X138285714Y-32456904D01*
X138285714Y-32171190D01*
X138238095Y-32075952D01*
X138190476Y-32028333D01*
X138095238Y-31980714D01*
X137904761Y-31980714D01*
X137809523Y-32028333D01*
X137380952Y-32647380D02*
X137380952Y-31647380D01*
X137285714Y-32266428D02*
X137000000Y-32647380D01*
X137000000Y-31980714D02*
X137380952Y-32361666D01*
X160738095Y-33590714D02*
X160500000Y-34257380D01*
X160261904Y-33590714D01*
X159357142Y-34257380D02*
X159928571Y-34257380D01*
X159642857Y-34257380D02*
X159642857Y-33257380D01*
X159738095Y-33400238D01*
X159833333Y-33495476D01*
X159928571Y-33543095D01*
X158928571Y-34162142D02*
X158880952Y-34209761D01*
X158928571Y-34257380D01*
X158976190Y-34209761D01*
X158928571Y-34162142D01*
X158928571Y-34257380D01*
X158261904Y-33257380D02*
X158166666Y-33257380D01*
X158071428Y-33305000D01*
X158023809Y-33352619D01*
X157976190Y-33447857D01*
X157928571Y-33638333D01*
X157928571Y-33876428D01*
X157976190Y-34066904D01*
X158023809Y-34162142D01*
X158071428Y-34209761D01*
X158166666Y-34257380D01*
X158261904Y-34257380D01*
X158357142Y-34209761D01*
X158404761Y-34162142D01*
X158452380Y-34066904D01*
X158500000Y-33876428D01*
X158500000Y-33638333D01*
X158452380Y-33447857D01*
X158404761Y-33352619D01*
X158357142Y-33305000D01*
X158261904Y-33257380D01*
X156738095Y-34257380D02*
X156738095Y-33257380D01*
X156738095Y-33638333D02*
X156642857Y-33590714D01*
X156452380Y-33590714D01*
X156357142Y-33638333D01*
X156309523Y-33685952D01*
X156261904Y-33781190D01*
X156261904Y-34066904D01*
X156309523Y-34162142D01*
X156357142Y-34209761D01*
X156452380Y-34257380D01*
X156642857Y-34257380D01*
X156738095Y-34209761D01*
X155928571Y-33590714D02*
X155690476Y-34257380D01*
X155452380Y-33590714D02*
X155690476Y-34257380D01*
X155785714Y-34495476D01*
X155833333Y-34543095D01*
X155928571Y-34590714D01*
X154309523Y-34257380D02*
X154309523Y-33257380D01*
X154309523Y-33733571D02*
X153738095Y-33733571D01*
X153738095Y-34257380D02*
X153738095Y-33257380D01*
X152880952Y-34209761D02*
X152976190Y-34257380D01*
X153166666Y-34257380D01*
X153261904Y-34209761D01*
X153309523Y-34114523D01*
X153309523Y-33733571D01*
X153261904Y-33638333D01*
X153166666Y-33590714D01*
X152976190Y-33590714D01*
X152880952Y-33638333D01*
X152833333Y-33733571D01*
X152833333Y-33828809D01*
X153309523Y-33924047D01*
X152023809Y-34209761D02*
X152119047Y-34257380D01*
X152309523Y-34257380D01*
X152404761Y-34209761D01*
X152452380Y-34114523D01*
X152452380Y-33733571D01*
X152404761Y-33638333D01*
X152309523Y-33590714D01*
X152119047Y-33590714D01*
X152023809Y-33638333D01*
X151976190Y-33733571D01*
X151976190Y-33828809D01*
X152452380Y-33924047D01*
X151547619Y-33590714D02*
X151547619Y-34257380D01*
X151547619Y-33685952D02*
X151500000Y-33638333D01*
X151404761Y-33590714D01*
X151261904Y-33590714D01*
X151166666Y-33638333D01*
X151119047Y-33733571D01*
X151119047Y-34257380D01*
X150642857Y-33590714D02*
X150642857Y-34257380D01*
X150642857Y-33685952D02*
X150595238Y-33638333D01*
X150500000Y-33590714D01*
X150357142Y-33590714D01*
X150261904Y-33638333D01*
X150214285Y-33733571D01*
X150214285Y-34257380D01*
X149357142Y-34209761D02*
X149452380Y-34257380D01*
X149642857Y-34257380D01*
X149738095Y-34209761D01*
X149785714Y-34114523D01*
X149785714Y-33733571D01*
X149738095Y-33638333D01*
X149642857Y-33590714D01*
X149452380Y-33590714D01*
X149357142Y-33638333D01*
X149309523Y-33733571D01*
X149309523Y-33828809D01*
X149785714Y-33924047D01*
X148119047Y-34257380D02*
X148119047Y-33590714D01*
X148119047Y-33257380D02*
X148166666Y-33305000D01*
X148119047Y-33352619D01*
X148071428Y-33305000D01*
X148119047Y-33257380D01*
X148119047Y-33352619D01*
X147642857Y-33590714D02*
X147642857Y-34257380D01*
X147642857Y-33685952D02*
X147595238Y-33638333D01*
X147500000Y-33590714D01*
X147357142Y-33590714D01*
X147261904Y-33638333D01*
X147214285Y-33733571D01*
X147214285Y-34257380D01*
X146785714Y-34209761D02*
X146690476Y-34257380D01*
X146500000Y-34257380D01*
X146404761Y-34209761D01*
X146357142Y-34114523D01*
X146357142Y-34066904D01*
X146404761Y-33971666D01*
X146500000Y-33924047D01*
X146642857Y-33924047D01*
X146738095Y-33876428D01*
X146785714Y-33781190D01*
X146785714Y-33733571D01*
X146738095Y-33638333D01*
X146642857Y-33590714D01*
X146500000Y-33590714D01*
X146404761Y-33638333D01*
X145928571Y-33590714D02*
X145928571Y-34590714D01*
X145928571Y-33638333D02*
X145833333Y-33590714D01*
X145642857Y-33590714D01*
X145547619Y-33638333D01*
X145500000Y-33685952D01*
X145452380Y-33781190D01*
X145452380Y-34066904D01*
X145500000Y-34162142D01*
X145547619Y-34209761D01*
X145642857Y-34257380D01*
X145833333Y-34257380D01*
X145928571Y-34209761D01*
X145023809Y-34257380D02*
X145023809Y-33590714D01*
X145023809Y-33257380D02*
X145071428Y-33305000D01*
X145023809Y-33352619D01*
X144976190Y-33305000D01*
X145023809Y-33257380D01*
X145023809Y-33352619D01*
X144547619Y-34257380D02*
X144547619Y-33590714D01*
X144547619Y-33781190D02*
X144500000Y-33685952D01*
X144452380Y-33638333D01*
X144357142Y-33590714D01*
X144261904Y-33590714D01*
X143547619Y-34209761D02*
X143642857Y-34257380D01*
X143833333Y-34257380D01*
X143928571Y-34209761D01*
X143976190Y-34114523D01*
X143976190Y-33733571D01*
X143928571Y-33638333D01*
X143833333Y-33590714D01*
X143642857Y-33590714D01*
X143547619Y-33638333D01*
X143500000Y-33733571D01*
X143500000Y-33828809D01*
X143976190Y-33924047D01*
X142642857Y-34257380D02*
X142642857Y-33257380D01*
X142642857Y-34209761D02*
X142738095Y-34257380D01*
X142928571Y-34257380D01*
X143023809Y-34209761D01*
X143071428Y-34162142D01*
X143119047Y-34066904D01*
X143119047Y-33781190D01*
X143071428Y-33685952D01*
X143023809Y-33638333D01*
X142928571Y-33590714D01*
X142738095Y-33590714D01*
X142642857Y-33638333D01*
X141404761Y-34257380D02*
X141404761Y-33257380D01*
X141404761Y-33638333D02*
X141309523Y-33590714D01*
X141119047Y-33590714D01*
X141023809Y-33638333D01*
X140976190Y-33685952D01*
X140928571Y-33781190D01*
X140928571Y-34066904D01*
X140976190Y-34162142D01*
X141023809Y-34209761D01*
X141119047Y-34257380D01*
X141309523Y-34257380D01*
X141404761Y-34209761D01*
X140595238Y-33590714D02*
X140357142Y-34257380D01*
X140119047Y-33590714D02*
X140357142Y-34257380D01*
X140452380Y-34495476D01*
X140500000Y-34543095D01*
X140595238Y-34590714D01*
X138642857Y-33733571D02*
X138500000Y-33781190D01*
X138452380Y-33828809D01*
X138404761Y-33924047D01*
X138404761Y-34066904D01*
X138452380Y-34162142D01*
X138500000Y-34209761D01*
X138595238Y-34257380D01*
X138976190Y-34257380D01*
X138976190Y-33257380D01*
X138642857Y-33257380D01*
X138547619Y-33305000D01*
X138500000Y-33352619D01*
X138452380Y-33447857D01*
X138452380Y-33543095D01*
X138500000Y-33638333D01*
X138547619Y-33685952D01*
X138642857Y-33733571D01*
X138976190Y-33733571D01*
X137833333Y-34257380D02*
X137928571Y-34209761D01*
X137976190Y-34114523D01*
X137976190Y-33257380D01*
X137023809Y-34257380D02*
X137023809Y-33733571D01*
X137071428Y-33638333D01*
X137166666Y-33590714D01*
X137357142Y-33590714D01*
X137452380Y-33638333D01*
X137023809Y-34209761D02*
X137119047Y-34257380D01*
X137357142Y-34257380D01*
X137452380Y-34209761D01*
X137500000Y-34114523D01*
X137500000Y-34019285D01*
X137452380Y-33924047D01*
X137357142Y-33876428D01*
X137119047Y-33876428D01*
X137023809Y-33828809D01*
X136547619Y-34257380D02*
X136547619Y-33590714D01*
X136547619Y-33685952D02*
X136500000Y-33638333D01*
X136404761Y-33590714D01*
X136261904Y-33590714D01*
X136166666Y-33638333D01*
X136119047Y-33733571D01*
X136119047Y-34257380D01*
X136119047Y-33733571D02*
X136071428Y-33638333D01*
X135976190Y-33590714D01*
X135833333Y-33590714D01*
X135738095Y-33638333D01*
X135690476Y-33733571D01*
X135690476Y-34257380D01*
X135214285Y-34257380D02*
X135214285Y-33590714D01*
X135214285Y-33685952D02*
X135166666Y-33638333D01*
X135071428Y-33590714D01*
X134928571Y-33590714D01*
X134833333Y-33638333D01*
X134785714Y-33733571D01*
X134785714Y-34257380D01*
X134785714Y-33733571D02*
X134738095Y-33638333D01*
X134642857Y-33590714D01*
X134500000Y-33590714D01*
X134404761Y-33638333D01*
X134357142Y-33733571D01*
X134357142Y-34257380D01*
D12*
X259190000Y-29360000D02*
X263690000Y-29360000D01*
X270910000Y-38060000D02*
X259190000Y-38060000D01*
X264800000Y-35750000D02*
X264800000Y-35250000D01*
X270910000Y-27940000D02*
X259190000Y-27940000D01*
X261100000Y-30200000D02*
X261100000Y-30800000D01*
X270910000Y-33000000D02*
X270910000Y-27940000D01*
X270300000Y-33250000D02*
X264800000Y-33250000D01*
X270910000Y-33000000D02*
X270910000Y-38060000D01*
X270300000Y-32750000D02*
X270300000Y-33250000D01*
X270300000Y-35750000D02*
X264800000Y-35750000D01*
X264800000Y-32750000D02*
X270300000Y-32750000D01*
X270300000Y-30750000D02*
X264800000Y-30750000D01*
X264800000Y-35250000D02*
X270300000Y-35250000D01*
X270300000Y-35250000D02*
X270300000Y-35750000D01*
X264800000Y-33250000D02*
X264800000Y-32750000D01*
X261700000Y-30500000D02*
X261100000Y-30200000D01*
X270300000Y-30250000D02*
X270300000Y-30750000D01*
X259190000Y-27940000D02*
X259190000Y-29360000D01*
X261100000Y-30800000D02*
X261700000Y-30500000D01*
X264800000Y-30750000D02*
X264800000Y-30250000D01*
X259190000Y-36640000D02*
X263690000Y-36640000D01*
X259190000Y-38060000D02*
X259190000Y-36640000D01*
X264800000Y-30250000D02*
X270300000Y-30250000D01*
X24730000Y-33000000D02*
X24730000Y-31670000D01*
X24730000Y-34270000D02*
X24730000Y-34330000D01*
X22070000Y-34270000D02*
X22070000Y-34330000D01*
X24730000Y-31670000D02*
X23400000Y-31670000D01*
X24730000Y-34330000D02*
X22070000Y-34330000D01*
X24730000Y-34270000D02*
X22070000Y-34270000D01*
X34900000Y-30250000D02*
X34900000Y-30750000D01*
X28790000Y-33000000D02*
X28790000Y-38060000D01*
X29400000Y-35750000D02*
X29400000Y-35250000D01*
X40510000Y-36640000D02*
X36010000Y-36640000D01*
X28790000Y-38060000D02*
X40510000Y-38060000D01*
X29400000Y-32750000D02*
X34900000Y-32750000D01*
X40510000Y-29360000D02*
X36010000Y-29360000D01*
X28790000Y-33000000D02*
X28790000Y-27940000D01*
X29400000Y-35250000D02*
X34900000Y-35250000D01*
X38600000Y-35800000D02*
X38600000Y-35200000D01*
X34900000Y-35250000D02*
X34900000Y-35750000D01*
X40510000Y-38060000D02*
X40510000Y-36640000D01*
X34900000Y-30750000D02*
X29400000Y-30750000D01*
X29400000Y-33250000D02*
X29400000Y-32750000D01*
X34900000Y-33250000D02*
X29400000Y-33250000D01*
X28790000Y-27940000D02*
X40510000Y-27940000D01*
X34900000Y-35750000D02*
X29400000Y-35750000D01*
X34900000Y-32750000D02*
X34900000Y-33250000D01*
X38600000Y-35200000D02*
X38000000Y-35500000D01*
X29400000Y-30750000D02*
X29400000Y-30250000D01*
X29400000Y-30250000D02*
X34900000Y-30250000D01*
X38000000Y-35500000D02*
X38600000Y-35800000D01*
X40510000Y-27940000D02*
X40510000Y-29360000D01*
%LPC*%
D13*
X244450000Y-33000000D03*
X245152944Y-34697056D03*
X246850000Y-35400000D03*
X248547056Y-34697056D03*
X249250000Y-33000000D03*
X245152944Y-31302944D03*
X246850000Y-30600000D03*
X248547056Y-31302944D03*
D14*
X246850000Y-33000000D03*
D13*
X49150000Y-35400000D03*
X47452944Y-34697056D03*
X50847056Y-31302944D03*
X49150000Y-30600000D03*
X51550000Y-33000000D03*
X50847056Y-34697056D03*
D14*
X49150000Y-33000000D03*
D13*
X47452944Y-31302944D03*
X46750000Y-33000000D03*
D15*
X263200000Y-30500000D03*
D16*
X263200000Y-33000000D03*
X263200000Y-35500000D03*
D17*
X23400000Y-33000000D03*
D18*
X19800000Y-33000000D03*
D19*
X21700000Y-33000000D03*
D20*
X36500000Y-35500000D03*
D16*
X36500000Y-33000000D03*
X36500000Y-30500000D03*
M02*
