%TF.GenerationSoftware,KiCad,Pcbnew,(6.0.9-0)*%
%TF.CreationDate,2023-07-01T19:47:25+02:00*%
%TF.ProjectId,Daylight_Disco,4461796c-6967-4687-945f-446973636f2e,rev?*%
%TF.SameCoordinates,Original*%
%TF.FileFunction,Drillmap*%
%TF.FilePolarity,Positive*%
%FSLAX45Y45*%
G04 Gerber Fmt 4.5, Leading zero omitted, Abs format (unit mm)*
G04 Created by KiCad (PCBNEW (6.0.9-0)) date 2023-07-01 19:47:25*
%MOMM*%
%LPD*%
G01*
G04 APERTURE LIST*
%ADD10C,0.100000*%
%ADD11C,0.200000*%
%ADD12C,0.040000*%
%ADD13C,0.050000*%
%ADD14C,0.095000*%
%ADD15C,0.320000*%
G04 APERTURE END LIST*
D10*
X27900000Y-2750000D02*
X28300000Y-2982000D01*
X28300000Y-2982000D02*
X28300000Y-3618000D01*
X1300000Y-3618000D02*
X1300000Y-2982000D01*
X1300000Y-3618000D02*
X1700000Y-3850000D01*
X1300000Y-2982000D02*
X1700000Y-2750000D01*
X27900000Y-3850000D02*
X1700000Y-3850000D01*
X28300000Y-3618000D02*
X27900000Y-3850000D01*
X1700000Y-2750000D02*
X27900000Y-2750000D01*
D11*
D12*
X2940000Y-3180000D02*
X2980000Y-3220000D01*
X2980000Y-3180000D02*
X2940000Y-3220000D01*
X3840000Y-3520000D02*
X3880000Y-3560000D01*
X3880000Y-3520000D02*
X3840000Y-3560000D01*
X3840000Y-3620000D02*
X3880000Y-3660000D01*
X3880000Y-3620000D02*
X3840000Y-3660000D01*
X4340000Y-3180000D02*
X4380000Y-3220000D01*
X4380000Y-3180000D02*
X4340000Y-3220000D01*
X5840000Y-3180000D02*
X5880000Y-3220000D01*
X5880000Y-3180000D02*
X5840000Y-3220000D01*
X7240000Y-3180000D02*
X7280000Y-3220000D01*
X7280000Y-3180000D02*
X7240000Y-3220000D01*
X8640000Y-3180000D02*
X8680000Y-3220000D01*
X8680000Y-3180000D02*
X8640000Y-3220000D01*
X10040000Y-3180000D02*
X10080000Y-3220000D01*
X10080000Y-3180000D02*
X10040000Y-3220000D01*
X11440000Y-3180000D02*
X11480000Y-3220000D01*
X11480000Y-3180000D02*
X11440000Y-3220000D01*
X12840000Y-3180000D02*
X12880000Y-3220000D01*
X12880000Y-3180000D02*
X12840000Y-3220000D01*
X14240000Y-3180000D02*
X14280000Y-3220000D01*
X14280000Y-3180000D02*
X14240000Y-3220000D01*
X15640000Y-3180000D02*
X15680000Y-3220000D01*
X15680000Y-3180000D02*
X15640000Y-3220000D01*
X17040000Y-3180000D02*
X17080000Y-3220000D01*
X17080000Y-3180000D02*
X17040000Y-3220000D01*
X18440000Y-3180000D02*
X18480000Y-3220000D01*
X18480000Y-3180000D02*
X18440000Y-3220000D01*
X19840000Y-3180000D02*
X19880000Y-3220000D01*
X19880000Y-3180000D02*
X19840000Y-3220000D01*
X21240000Y-3180000D02*
X21280000Y-3220000D01*
X21280000Y-3180000D02*
X21240000Y-3220000D01*
X22640000Y-3180000D02*
X22680000Y-3220000D01*
X22680000Y-3180000D02*
X22640000Y-3220000D01*
X24040000Y-3180000D02*
X24080000Y-3220000D01*
X24080000Y-3180000D02*
X24040000Y-3220000D01*
X25540000Y-3180000D02*
X25580000Y-3220000D01*
X25580000Y-3180000D02*
X25540000Y-3220000D01*
X25540000Y-3380000D02*
X25580000Y-3420000D01*
X25580000Y-3380000D02*
X25540000Y-3420000D01*
X25880000Y-3600000D02*
X25920000Y-3640000D01*
X25920000Y-3600000D02*
X25880000Y-3640000D01*
X25976274Y-3600000D02*
X26016274Y-3640000D01*
X26016274Y-3600000D02*
X25976274Y-3640000D01*
X26072548Y-3600000D02*
X26112548Y-3640000D01*
X26112548Y-3600000D02*
X26072548Y-3640000D01*
X26620000Y-3180000D02*
X26660000Y-3220000D01*
X26660000Y-3180000D02*
X26620000Y-3220000D01*
X26940000Y-3180000D02*
X26980000Y-3220000D01*
X26980000Y-3180000D02*
X26940000Y-3220000D01*
X26940000Y-3380000D02*
X26980000Y-3420000D01*
X26980000Y-3380000D02*
X26940000Y-3420000D01*
D13*
X4700000Y-3300000D02*
G75*
G03*
X4700000Y-3300000I-25000J0D01*
G01*
X4770294Y-3130294D02*
G75*
G03*
X4770294Y-3130294I-25000J0D01*
G01*
X4770294Y-3469706D02*
G75*
G03*
X4770294Y-3469706I-25000J0D01*
G01*
X4940000Y-3060000D02*
G75*
G03*
X4940000Y-3060000I-25000J0D01*
G01*
X4940000Y-3540000D02*
G75*
G03*
X4940000Y-3540000I-25000J0D01*
G01*
X5109706Y-3130294D02*
G75*
G03*
X5109706Y-3130294I-25000J0D01*
G01*
X5109706Y-3469706D02*
G75*
G03*
X5109706Y-3469706I-25000J0D01*
G01*
X5180000Y-3300000D02*
G75*
G03*
X5180000Y-3300000I-25000J0D01*
G01*
X24470000Y-3300000D02*
G75*
G03*
X24470000Y-3300000I-25000J0D01*
G01*
X24540294Y-3130294D02*
G75*
G03*
X24540294Y-3130294I-25000J0D01*
G01*
X24540294Y-3469706D02*
G75*
G03*
X24540294Y-3469706I-25000J0D01*
G01*
X24710000Y-3060000D02*
G75*
G03*
X24710000Y-3060000I-25000J0D01*
G01*
X24710000Y-3540000D02*
G75*
G03*
X24710000Y-3540000I-25000J0D01*
G01*
X24879706Y-3130294D02*
G75*
G03*
X24879706Y-3130294I-25000J0D01*
G01*
X24879706Y-3469706D02*
G75*
G03*
X24879706Y-3469706I-25000J0D01*
G01*
X24950000Y-3300000D02*
G75*
G03*
X24950000Y-3300000I-25000J0D01*
G01*
D14*
X3650000Y-3002500D02*
X3650000Y-3097500D01*
X3602500Y-3050000D02*
X3697500Y-3050000D01*
X3650000Y-3252500D02*
X3650000Y-3347500D01*
X3602500Y-3300000D02*
X3697500Y-3300000D01*
X3650000Y-3502500D02*
X3650000Y-3597500D01*
X3602500Y-3550000D02*
X3697500Y-3550000D01*
X26320000Y-3002500D02*
X26320000Y-3097500D01*
X26272500Y-3050000D02*
X26367500Y-3050000D01*
X26320000Y-3252500D02*
X26320000Y-3347500D01*
X26272500Y-3300000D02*
X26367500Y-3300000D01*
X26320000Y-3502500D02*
X26320000Y-3597500D01*
X26272500Y-3550000D02*
X26367500Y-3550000D01*
D10*
X2375356Y-3335356D02*
X2375356Y-3264644D01*
X2304644Y-3264644D01*
X2304644Y-3335356D01*
X2375356Y-3335356D01*
D15*
X4915000Y-3460000D02*
X5075000Y-3300000D01*
X4915000Y-3140000D01*
X4755000Y-3300000D01*
X4915000Y-3460000D01*
X24685000Y-3460000D02*
X24845000Y-3300000D01*
X24685000Y-3140000D01*
X24525000Y-3300000D01*
X24685000Y-3460000D01*
D11*
X1552619Y-4165476D02*
X1552619Y-3965476D01*
X1600238Y-3965476D01*
X1628809Y-3975000D01*
X1647857Y-3994048D01*
X1657381Y-4013095D01*
X1666905Y-4051190D01*
X1666905Y-4079762D01*
X1657381Y-4117857D01*
X1647857Y-4136905D01*
X1628809Y-4155952D01*
X1600238Y-4165476D01*
X1552619Y-4165476D01*
X1752619Y-4165476D02*
X1752619Y-4032143D01*
X1752619Y-4070238D02*
X1762143Y-4051190D01*
X1771667Y-4041667D01*
X1790714Y-4032143D01*
X1809762Y-4032143D01*
X1876428Y-4165476D02*
X1876428Y-4032143D01*
X1876428Y-3965476D02*
X1866905Y-3975000D01*
X1876428Y-3984524D01*
X1885952Y-3975000D01*
X1876428Y-3965476D01*
X1876428Y-3984524D01*
X2000238Y-4165476D02*
X1981190Y-4155952D01*
X1971667Y-4136905D01*
X1971667Y-3965476D01*
X2105000Y-4165476D02*
X2085952Y-4155952D01*
X2076428Y-4136905D01*
X2076428Y-3965476D01*
X2333571Y-4165476D02*
X2333571Y-3965476D01*
X2400238Y-4108333D01*
X2466905Y-3965476D01*
X2466905Y-4165476D01*
X2647857Y-4165476D02*
X2647857Y-4060714D01*
X2638333Y-4041667D01*
X2619286Y-4032143D01*
X2581190Y-4032143D01*
X2562143Y-4041667D01*
X2647857Y-4155952D02*
X2628810Y-4165476D01*
X2581190Y-4165476D01*
X2562143Y-4155952D01*
X2552619Y-4136905D01*
X2552619Y-4117857D01*
X2562143Y-4098809D01*
X2581190Y-4089286D01*
X2628810Y-4089286D01*
X2647857Y-4079762D01*
X2743095Y-4032143D02*
X2743095Y-4232143D01*
X2743095Y-4041667D02*
X2762143Y-4032143D01*
X2800238Y-4032143D01*
X2819286Y-4041667D01*
X2828809Y-4051190D01*
X2838333Y-4070238D01*
X2838333Y-4127381D01*
X2828809Y-4146428D01*
X2819286Y-4155952D01*
X2800238Y-4165476D01*
X2762143Y-4165476D01*
X2743095Y-4155952D01*
X2924048Y-4146428D02*
X2933571Y-4155952D01*
X2924048Y-4165476D01*
X2914524Y-4155952D01*
X2924048Y-4146428D01*
X2924048Y-4165476D01*
X2924048Y-4041667D02*
X2933571Y-4051190D01*
X2924048Y-4060714D01*
X2914524Y-4051190D01*
X2924048Y-4041667D01*
X2924048Y-4060714D01*
D12*
X1255000Y-4475000D02*
X1295000Y-4515000D01*
X1295000Y-4475000D02*
X1255000Y-4515000D01*
D11*
X1590714Y-4385476D02*
X1609762Y-4385476D01*
X1628809Y-4395000D01*
X1638333Y-4404524D01*
X1647857Y-4423571D01*
X1657381Y-4461667D01*
X1657381Y-4509286D01*
X1647857Y-4547381D01*
X1638333Y-4566429D01*
X1628809Y-4575952D01*
X1609762Y-4585476D01*
X1590714Y-4585476D01*
X1571667Y-4575952D01*
X1562143Y-4566429D01*
X1552619Y-4547381D01*
X1543095Y-4509286D01*
X1543095Y-4461667D01*
X1552619Y-4423571D01*
X1562143Y-4404524D01*
X1571667Y-4395000D01*
X1590714Y-4385476D01*
X1743095Y-4566429D02*
X1752619Y-4575952D01*
X1743095Y-4585476D01*
X1733571Y-4575952D01*
X1743095Y-4566429D01*
X1743095Y-4585476D01*
X1924048Y-4452143D02*
X1924048Y-4585476D01*
X1876428Y-4375952D02*
X1828809Y-4518810D01*
X1952619Y-4518810D01*
X2066905Y-4385476D02*
X2085952Y-4385476D01*
X2105000Y-4395000D01*
X2114524Y-4404524D01*
X2124048Y-4423571D01*
X2133571Y-4461667D01*
X2133571Y-4509286D01*
X2124048Y-4547381D01*
X2114524Y-4566429D01*
X2105000Y-4575952D01*
X2085952Y-4585476D01*
X2066905Y-4585476D01*
X2047857Y-4575952D01*
X2038333Y-4566429D01*
X2028809Y-4547381D01*
X2019286Y-4509286D01*
X2019286Y-4461667D01*
X2028809Y-4423571D01*
X2038333Y-4404524D01*
X2047857Y-4395000D01*
X2066905Y-4385476D01*
X2257381Y-4385476D02*
X2276429Y-4385476D01*
X2295476Y-4395000D01*
X2305000Y-4404524D01*
X2314524Y-4423571D01*
X2324048Y-4461667D01*
X2324048Y-4509286D01*
X2314524Y-4547381D01*
X2305000Y-4566429D01*
X2295476Y-4575952D01*
X2276429Y-4585476D01*
X2257381Y-4585476D01*
X2238333Y-4575952D01*
X2228810Y-4566429D01*
X2219286Y-4547381D01*
X2209762Y-4509286D01*
X2209762Y-4461667D01*
X2219286Y-4423571D01*
X2228810Y-4404524D01*
X2238333Y-4395000D01*
X2257381Y-4385476D01*
X2409762Y-4585476D02*
X2409762Y-4452143D01*
X2409762Y-4471190D02*
X2419286Y-4461667D01*
X2438333Y-4452143D01*
X2466905Y-4452143D01*
X2485952Y-4461667D01*
X2495476Y-4480714D01*
X2495476Y-4585476D01*
X2495476Y-4480714D02*
X2505000Y-4461667D01*
X2524048Y-4452143D01*
X2552619Y-4452143D01*
X2571667Y-4461667D01*
X2581190Y-4480714D01*
X2581190Y-4585476D01*
X2676429Y-4585476D02*
X2676429Y-4452143D01*
X2676429Y-4471190D02*
X2685952Y-4461667D01*
X2705000Y-4452143D01*
X2733571Y-4452143D01*
X2752619Y-4461667D01*
X2762143Y-4480714D01*
X2762143Y-4585476D01*
X2762143Y-4480714D02*
X2771667Y-4461667D01*
X2790714Y-4452143D01*
X2819286Y-4452143D01*
X2838333Y-4461667D01*
X2847857Y-4480714D01*
X2847857Y-4585476D01*
X3238333Y-4375952D02*
X3066905Y-4633095D01*
X3495476Y-4385476D02*
X3514524Y-4385476D01*
X3533571Y-4395000D01*
X3543095Y-4404524D01*
X3552619Y-4423571D01*
X3562143Y-4461667D01*
X3562143Y-4509286D01*
X3552619Y-4547381D01*
X3543095Y-4566429D01*
X3533571Y-4575952D01*
X3514524Y-4585476D01*
X3495476Y-4585476D01*
X3476428Y-4575952D01*
X3466905Y-4566429D01*
X3457381Y-4547381D01*
X3447857Y-4509286D01*
X3447857Y-4461667D01*
X3457381Y-4423571D01*
X3466905Y-4404524D01*
X3476428Y-4395000D01*
X3495476Y-4385476D01*
X3647857Y-4566429D02*
X3657381Y-4575952D01*
X3647857Y-4585476D01*
X3638333Y-4575952D01*
X3647857Y-4566429D01*
X3647857Y-4585476D01*
X3781190Y-4385476D02*
X3800238Y-4385476D01*
X3819286Y-4395000D01*
X3828809Y-4404524D01*
X3838333Y-4423571D01*
X3847857Y-4461667D01*
X3847857Y-4509286D01*
X3838333Y-4547381D01*
X3828809Y-4566429D01*
X3819286Y-4575952D01*
X3800238Y-4585476D01*
X3781190Y-4585476D01*
X3762143Y-4575952D01*
X3752619Y-4566429D01*
X3743095Y-4547381D01*
X3733571Y-4509286D01*
X3733571Y-4461667D01*
X3743095Y-4423571D01*
X3752619Y-4404524D01*
X3762143Y-4395000D01*
X3781190Y-4385476D01*
X4038333Y-4585476D02*
X3924048Y-4585476D01*
X3981190Y-4585476D02*
X3981190Y-4385476D01*
X3962143Y-4414048D01*
X3943095Y-4433095D01*
X3924048Y-4442619D01*
X4219286Y-4385476D02*
X4124048Y-4385476D01*
X4114524Y-4480714D01*
X4124048Y-4471190D01*
X4143095Y-4461667D01*
X4190714Y-4461667D01*
X4209762Y-4471190D01*
X4219286Y-4480714D01*
X4228810Y-4499762D01*
X4228810Y-4547381D01*
X4219286Y-4566429D01*
X4209762Y-4575952D01*
X4190714Y-4585476D01*
X4143095Y-4585476D01*
X4124048Y-4575952D01*
X4114524Y-4566429D01*
X4295476Y-4385476D02*
X4428810Y-4385476D01*
X4343095Y-4585476D01*
X4495476Y-4385476D02*
X4495476Y-4423571D01*
X4571667Y-4385476D02*
X4571667Y-4423571D01*
X4866905Y-4661667D02*
X4857381Y-4652143D01*
X4838333Y-4623571D01*
X4828810Y-4604524D01*
X4819286Y-4575952D01*
X4809762Y-4528333D01*
X4809762Y-4490238D01*
X4819286Y-4442619D01*
X4828810Y-4414048D01*
X4838333Y-4395000D01*
X4857381Y-4366429D01*
X4866905Y-4356905D01*
X4933571Y-4404524D02*
X4943095Y-4395000D01*
X4962143Y-4385476D01*
X5009762Y-4385476D01*
X5028810Y-4395000D01*
X5038333Y-4404524D01*
X5047857Y-4423571D01*
X5047857Y-4442619D01*
X5038333Y-4471190D01*
X4924048Y-4585476D01*
X5047857Y-4585476D01*
X5219286Y-4385476D02*
X5181190Y-4385476D01*
X5162143Y-4395000D01*
X5152619Y-4404524D01*
X5133571Y-4433095D01*
X5124048Y-4471190D01*
X5124048Y-4547381D01*
X5133571Y-4566429D01*
X5143095Y-4575952D01*
X5162143Y-4585476D01*
X5200238Y-4585476D01*
X5219286Y-4575952D01*
X5228810Y-4566429D01*
X5238333Y-4547381D01*
X5238333Y-4499762D01*
X5228810Y-4480714D01*
X5219286Y-4471190D01*
X5200238Y-4461667D01*
X5162143Y-4461667D01*
X5143095Y-4471190D01*
X5133571Y-4480714D01*
X5124048Y-4499762D01*
X5476429Y-4585476D02*
X5476429Y-4385476D01*
X5562143Y-4585476D02*
X5562143Y-4480714D01*
X5552619Y-4461667D01*
X5533571Y-4452143D01*
X5505000Y-4452143D01*
X5485952Y-4461667D01*
X5476429Y-4471190D01*
X5685952Y-4585476D02*
X5666905Y-4575952D01*
X5657381Y-4566429D01*
X5647857Y-4547381D01*
X5647857Y-4490238D01*
X5657381Y-4471190D01*
X5666905Y-4461667D01*
X5685952Y-4452143D01*
X5714524Y-4452143D01*
X5733571Y-4461667D01*
X5743095Y-4471190D01*
X5752619Y-4490238D01*
X5752619Y-4547381D01*
X5743095Y-4566429D01*
X5733571Y-4575952D01*
X5714524Y-4585476D01*
X5685952Y-4585476D01*
X5866905Y-4585476D02*
X5847857Y-4575952D01*
X5838333Y-4556905D01*
X5838333Y-4385476D01*
X6019286Y-4575952D02*
X6000238Y-4585476D01*
X5962143Y-4585476D01*
X5943095Y-4575952D01*
X5933571Y-4556905D01*
X5933571Y-4480714D01*
X5943095Y-4461667D01*
X5962143Y-4452143D01*
X6000238Y-4452143D01*
X6019286Y-4461667D01*
X6028809Y-4480714D01*
X6028809Y-4499762D01*
X5933571Y-4518810D01*
X6105000Y-4575952D02*
X6124048Y-4585476D01*
X6162143Y-4585476D01*
X6181190Y-4575952D01*
X6190714Y-4556905D01*
X6190714Y-4547381D01*
X6181190Y-4528333D01*
X6162143Y-4518810D01*
X6133571Y-4518810D01*
X6114524Y-4509286D01*
X6105000Y-4490238D01*
X6105000Y-4480714D01*
X6114524Y-4461667D01*
X6133571Y-4452143D01*
X6162143Y-4452143D01*
X6181190Y-4461667D01*
X6257381Y-4661667D02*
X6266905Y-4652143D01*
X6285952Y-4623571D01*
X6295476Y-4604524D01*
X6305000Y-4575952D01*
X6314524Y-4528333D01*
X6314524Y-4490238D01*
X6305000Y-4442619D01*
X6295476Y-4414048D01*
X6285952Y-4395000D01*
X6266905Y-4366429D01*
X6257381Y-4356905D01*
D13*
X1295000Y-4759000D02*
G75*
G03*
X1295000Y-4759000I-25000J0D01*
G01*
D11*
X1590714Y-4649476D02*
X1609762Y-4649476D01*
X1628809Y-4659000D01*
X1638333Y-4668524D01*
X1647857Y-4687571D01*
X1657381Y-4725667D01*
X1657381Y-4773286D01*
X1647857Y-4811381D01*
X1638333Y-4830429D01*
X1628809Y-4839952D01*
X1609762Y-4849476D01*
X1590714Y-4849476D01*
X1571667Y-4839952D01*
X1562143Y-4830429D01*
X1552619Y-4811381D01*
X1543095Y-4773286D01*
X1543095Y-4725667D01*
X1552619Y-4687571D01*
X1562143Y-4668524D01*
X1571667Y-4659000D01*
X1590714Y-4649476D01*
X1743095Y-4830429D02*
X1752619Y-4839952D01*
X1743095Y-4849476D01*
X1733571Y-4839952D01*
X1743095Y-4830429D01*
X1743095Y-4849476D01*
X1933571Y-4649476D02*
X1838333Y-4649476D01*
X1828809Y-4744714D01*
X1838333Y-4735190D01*
X1857381Y-4725667D01*
X1905000Y-4725667D01*
X1924048Y-4735190D01*
X1933571Y-4744714D01*
X1943095Y-4763762D01*
X1943095Y-4811381D01*
X1933571Y-4830429D01*
X1924048Y-4839952D01*
X1905000Y-4849476D01*
X1857381Y-4849476D01*
X1838333Y-4839952D01*
X1828809Y-4830429D01*
X2066905Y-4649476D02*
X2085952Y-4649476D01*
X2105000Y-4659000D01*
X2114524Y-4668524D01*
X2124048Y-4687571D01*
X2133571Y-4725667D01*
X2133571Y-4773286D01*
X2124048Y-4811381D01*
X2114524Y-4830429D01*
X2105000Y-4839952D01*
X2085952Y-4849476D01*
X2066905Y-4849476D01*
X2047857Y-4839952D01*
X2038333Y-4830429D01*
X2028809Y-4811381D01*
X2019286Y-4773286D01*
X2019286Y-4725667D01*
X2028809Y-4687571D01*
X2038333Y-4668524D01*
X2047857Y-4659000D01*
X2066905Y-4649476D01*
X2257381Y-4649476D02*
X2276429Y-4649476D01*
X2295476Y-4659000D01*
X2305000Y-4668524D01*
X2314524Y-4687571D01*
X2324048Y-4725667D01*
X2324048Y-4773286D01*
X2314524Y-4811381D01*
X2305000Y-4830429D01*
X2295476Y-4839952D01*
X2276429Y-4849476D01*
X2257381Y-4849476D01*
X2238333Y-4839952D01*
X2228810Y-4830429D01*
X2219286Y-4811381D01*
X2209762Y-4773286D01*
X2209762Y-4725667D01*
X2219286Y-4687571D01*
X2228810Y-4668524D01*
X2238333Y-4659000D01*
X2257381Y-4649476D01*
X2409762Y-4849476D02*
X2409762Y-4716143D01*
X2409762Y-4735190D02*
X2419286Y-4725667D01*
X2438333Y-4716143D01*
X2466905Y-4716143D01*
X2485952Y-4725667D01*
X2495476Y-4744714D01*
X2495476Y-4849476D01*
X2495476Y-4744714D02*
X2505000Y-4725667D01*
X2524048Y-4716143D01*
X2552619Y-4716143D01*
X2571667Y-4725667D01*
X2581190Y-4744714D01*
X2581190Y-4849476D01*
X2676429Y-4849476D02*
X2676429Y-4716143D01*
X2676429Y-4735190D02*
X2685952Y-4725667D01*
X2705000Y-4716143D01*
X2733571Y-4716143D01*
X2752619Y-4725667D01*
X2762143Y-4744714D01*
X2762143Y-4849476D01*
X2762143Y-4744714D02*
X2771667Y-4725667D01*
X2790714Y-4716143D01*
X2819286Y-4716143D01*
X2838333Y-4725667D01*
X2847857Y-4744714D01*
X2847857Y-4849476D01*
X3238333Y-4639952D02*
X3066905Y-4897095D01*
X3495476Y-4649476D02*
X3514524Y-4649476D01*
X3533571Y-4659000D01*
X3543095Y-4668524D01*
X3552619Y-4687571D01*
X3562143Y-4725667D01*
X3562143Y-4773286D01*
X3552619Y-4811381D01*
X3543095Y-4830429D01*
X3533571Y-4839952D01*
X3514524Y-4849476D01*
X3495476Y-4849476D01*
X3476428Y-4839952D01*
X3466905Y-4830429D01*
X3457381Y-4811381D01*
X3447857Y-4773286D01*
X3447857Y-4725667D01*
X3457381Y-4687571D01*
X3466905Y-4668524D01*
X3476428Y-4659000D01*
X3495476Y-4649476D01*
X3647857Y-4830429D02*
X3657381Y-4839952D01*
X3647857Y-4849476D01*
X3638333Y-4839952D01*
X3647857Y-4830429D01*
X3647857Y-4849476D01*
X3781190Y-4649476D02*
X3800238Y-4649476D01*
X3819286Y-4659000D01*
X3828809Y-4668524D01*
X3838333Y-4687571D01*
X3847857Y-4725667D01*
X3847857Y-4773286D01*
X3838333Y-4811381D01*
X3828809Y-4830429D01*
X3819286Y-4839952D01*
X3800238Y-4849476D01*
X3781190Y-4849476D01*
X3762143Y-4839952D01*
X3752619Y-4830429D01*
X3743095Y-4811381D01*
X3733571Y-4773286D01*
X3733571Y-4725667D01*
X3743095Y-4687571D01*
X3752619Y-4668524D01*
X3762143Y-4659000D01*
X3781190Y-4649476D01*
X4038333Y-4849476D02*
X3924048Y-4849476D01*
X3981190Y-4849476D02*
X3981190Y-4649476D01*
X3962143Y-4678048D01*
X3943095Y-4697095D01*
X3924048Y-4706619D01*
X4133571Y-4849476D02*
X4171667Y-4849476D01*
X4190714Y-4839952D01*
X4200238Y-4830429D01*
X4219286Y-4801857D01*
X4228810Y-4763762D01*
X4228810Y-4687571D01*
X4219286Y-4668524D01*
X4209762Y-4659000D01*
X4190714Y-4649476D01*
X4152619Y-4649476D01*
X4133571Y-4659000D01*
X4124048Y-4668524D01*
X4114524Y-4687571D01*
X4114524Y-4735190D01*
X4124048Y-4754238D01*
X4133571Y-4763762D01*
X4152619Y-4773286D01*
X4190714Y-4773286D01*
X4209762Y-4763762D01*
X4219286Y-4754238D01*
X4228810Y-4735190D01*
X4295476Y-4649476D02*
X4428810Y-4649476D01*
X4343095Y-4849476D01*
X4495476Y-4649476D02*
X4495476Y-4687571D01*
X4571667Y-4649476D02*
X4571667Y-4687571D01*
X4866905Y-4925667D02*
X4857381Y-4916143D01*
X4838333Y-4887571D01*
X4828810Y-4868524D01*
X4819286Y-4839952D01*
X4809762Y-4792333D01*
X4809762Y-4754238D01*
X4819286Y-4706619D01*
X4828810Y-4678048D01*
X4838333Y-4659000D01*
X4857381Y-4630429D01*
X4866905Y-4620905D01*
X5047857Y-4849476D02*
X4933571Y-4849476D01*
X4990714Y-4849476D02*
X4990714Y-4649476D01*
X4971667Y-4678048D01*
X4952619Y-4697095D01*
X4933571Y-4706619D01*
X5219286Y-4649476D02*
X5181190Y-4649476D01*
X5162143Y-4659000D01*
X5152619Y-4668524D01*
X5133571Y-4697095D01*
X5124048Y-4735190D01*
X5124048Y-4811381D01*
X5133571Y-4830429D01*
X5143095Y-4839952D01*
X5162143Y-4849476D01*
X5200238Y-4849476D01*
X5219286Y-4839952D01*
X5228810Y-4830429D01*
X5238333Y-4811381D01*
X5238333Y-4763762D01*
X5228810Y-4744714D01*
X5219286Y-4735190D01*
X5200238Y-4725667D01*
X5162143Y-4725667D01*
X5143095Y-4735190D01*
X5133571Y-4744714D01*
X5124048Y-4763762D01*
X5476429Y-4849476D02*
X5476429Y-4649476D01*
X5562143Y-4849476D02*
X5562143Y-4744714D01*
X5552619Y-4725667D01*
X5533571Y-4716143D01*
X5505000Y-4716143D01*
X5485952Y-4725667D01*
X5476429Y-4735190D01*
X5685952Y-4849476D02*
X5666905Y-4839952D01*
X5657381Y-4830429D01*
X5647857Y-4811381D01*
X5647857Y-4754238D01*
X5657381Y-4735190D01*
X5666905Y-4725667D01*
X5685952Y-4716143D01*
X5714524Y-4716143D01*
X5733571Y-4725667D01*
X5743095Y-4735190D01*
X5752619Y-4754238D01*
X5752619Y-4811381D01*
X5743095Y-4830429D01*
X5733571Y-4839952D01*
X5714524Y-4849476D01*
X5685952Y-4849476D01*
X5866905Y-4849476D02*
X5847857Y-4839952D01*
X5838333Y-4820905D01*
X5838333Y-4649476D01*
X6019286Y-4839952D02*
X6000238Y-4849476D01*
X5962143Y-4849476D01*
X5943095Y-4839952D01*
X5933571Y-4820905D01*
X5933571Y-4744714D01*
X5943095Y-4725667D01*
X5962143Y-4716143D01*
X6000238Y-4716143D01*
X6019286Y-4725667D01*
X6028809Y-4744714D01*
X6028809Y-4763762D01*
X5933571Y-4782810D01*
X6105000Y-4839952D02*
X6124048Y-4849476D01*
X6162143Y-4849476D01*
X6181190Y-4839952D01*
X6190714Y-4820905D01*
X6190714Y-4811381D01*
X6181190Y-4792333D01*
X6162143Y-4782810D01*
X6133571Y-4782810D01*
X6114524Y-4773286D01*
X6105000Y-4754238D01*
X6105000Y-4744714D01*
X6114524Y-4725667D01*
X6133571Y-4716143D01*
X6162143Y-4716143D01*
X6181190Y-4725667D01*
X6257381Y-4925667D02*
X6266905Y-4916143D01*
X6285952Y-4887571D01*
X6295476Y-4868524D01*
X6305000Y-4839952D01*
X6314524Y-4792333D01*
X6314524Y-4754238D01*
X6305000Y-4706619D01*
X6295476Y-4678048D01*
X6285952Y-4659000D01*
X6266905Y-4630429D01*
X6257381Y-4620905D01*
D14*
X1247500Y-4975500D02*
X1247500Y-5070500D01*
X1200000Y-5023000D02*
X1295000Y-5023000D01*
D11*
X1590714Y-4913476D02*
X1609762Y-4913476D01*
X1628809Y-4923000D01*
X1638333Y-4932524D01*
X1647857Y-4951571D01*
X1657381Y-4989667D01*
X1657381Y-5037286D01*
X1647857Y-5075381D01*
X1638333Y-5094429D01*
X1628809Y-5103952D01*
X1609762Y-5113476D01*
X1590714Y-5113476D01*
X1571667Y-5103952D01*
X1562143Y-5094429D01*
X1552619Y-5075381D01*
X1543095Y-5037286D01*
X1543095Y-4989667D01*
X1552619Y-4951571D01*
X1562143Y-4932524D01*
X1571667Y-4923000D01*
X1590714Y-4913476D01*
X1743095Y-5094429D02*
X1752619Y-5103952D01*
X1743095Y-5113476D01*
X1733571Y-5103952D01*
X1743095Y-5094429D01*
X1743095Y-5113476D01*
X1847857Y-5113476D02*
X1885952Y-5113476D01*
X1905000Y-5103952D01*
X1914524Y-5094429D01*
X1933571Y-5065857D01*
X1943095Y-5027762D01*
X1943095Y-4951571D01*
X1933571Y-4932524D01*
X1924048Y-4923000D01*
X1905000Y-4913476D01*
X1866905Y-4913476D01*
X1847857Y-4923000D01*
X1838333Y-4932524D01*
X1828809Y-4951571D01*
X1828809Y-4999190D01*
X1838333Y-5018238D01*
X1847857Y-5027762D01*
X1866905Y-5037286D01*
X1905000Y-5037286D01*
X1924048Y-5027762D01*
X1933571Y-5018238D01*
X1943095Y-4999190D01*
X2124048Y-4913476D02*
X2028809Y-4913476D01*
X2019286Y-5008714D01*
X2028809Y-4999190D01*
X2047857Y-4989667D01*
X2095476Y-4989667D01*
X2114524Y-4999190D01*
X2124048Y-5008714D01*
X2133571Y-5027762D01*
X2133571Y-5075381D01*
X2124048Y-5094429D01*
X2114524Y-5103952D01*
X2095476Y-5113476D01*
X2047857Y-5113476D01*
X2028809Y-5103952D01*
X2019286Y-5094429D01*
X2257381Y-4913476D02*
X2276429Y-4913476D01*
X2295476Y-4923000D01*
X2305000Y-4932524D01*
X2314524Y-4951571D01*
X2324048Y-4989667D01*
X2324048Y-5037286D01*
X2314524Y-5075381D01*
X2305000Y-5094429D01*
X2295476Y-5103952D01*
X2276429Y-5113476D01*
X2257381Y-5113476D01*
X2238333Y-5103952D01*
X2228810Y-5094429D01*
X2219286Y-5075381D01*
X2209762Y-5037286D01*
X2209762Y-4989667D01*
X2219286Y-4951571D01*
X2228810Y-4932524D01*
X2238333Y-4923000D01*
X2257381Y-4913476D01*
X2409762Y-5113476D02*
X2409762Y-4980143D01*
X2409762Y-4999190D02*
X2419286Y-4989667D01*
X2438333Y-4980143D01*
X2466905Y-4980143D01*
X2485952Y-4989667D01*
X2495476Y-5008714D01*
X2495476Y-5113476D01*
X2495476Y-5008714D02*
X2505000Y-4989667D01*
X2524048Y-4980143D01*
X2552619Y-4980143D01*
X2571667Y-4989667D01*
X2581190Y-5008714D01*
X2581190Y-5113476D01*
X2676429Y-5113476D02*
X2676429Y-4980143D01*
X2676429Y-4999190D02*
X2685952Y-4989667D01*
X2705000Y-4980143D01*
X2733571Y-4980143D01*
X2752619Y-4989667D01*
X2762143Y-5008714D01*
X2762143Y-5113476D01*
X2762143Y-5008714D02*
X2771667Y-4989667D01*
X2790714Y-4980143D01*
X2819286Y-4980143D01*
X2838333Y-4989667D01*
X2847857Y-5008714D01*
X2847857Y-5113476D01*
X3238333Y-4903952D02*
X3066905Y-5161095D01*
X3495476Y-4913476D02*
X3514524Y-4913476D01*
X3533571Y-4923000D01*
X3543095Y-4932524D01*
X3552619Y-4951571D01*
X3562143Y-4989667D01*
X3562143Y-5037286D01*
X3552619Y-5075381D01*
X3543095Y-5094429D01*
X3533571Y-5103952D01*
X3514524Y-5113476D01*
X3495476Y-5113476D01*
X3476428Y-5103952D01*
X3466905Y-5094429D01*
X3457381Y-5075381D01*
X3447857Y-5037286D01*
X3447857Y-4989667D01*
X3457381Y-4951571D01*
X3466905Y-4932524D01*
X3476428Y-4923000D01*
X3495476Y-4913476D01*
X3647857Y-5094429D02*
X3657381Y-5103952D01*
X3647857Y-5113476D01*
X3638333Y-5103952D01*
X3647857Y-5094429D01*
X3647857Y-5113476D01*
X3781190Y-4913476D02*
X3800238Y-4913476D01*
X3819286Y-4923000D01*
X3828809Y-4932524D01*
X3838333Y-4951571D01*
X3847857Y-4989667D01*
X3847857Y-5037286D01*
X3838333Y-5075381D01*
X3828809Y-5094429D01*
X3819286Y-5103952D01*
X3800238Y-5113476D01*
X3781190Y-5113476D01*
X3762143Y-5103952D01*
X3752619Y-5094429D01*
X3743095Y-5075381D01*
X3733571Y-5037286D01*
X3733571Y-4989667D01*
X3743095Y-4951571D01*
X3752619Y-4932524D01*
X3762143Y-4923000D01*
X3781190Y-4913476D01*
X3914524Y-4913476D02*
X4038333Y-4913476D01*
X3971667Y-4989667D01*
X4000238Y-4989667D01*
X4019286Y-4999190D01*
X4028809Y-5008714D01*
X4038333Y-5027762D01*
X4038333Y-5075381D01*
X4028809Y-5094429D01*
X4019286Y-5103952D01*
X4000238Y-5113476D01*
X3943095Y-5113476D01*
X3924048Y-5103952D01*
X3914524Y-5094429D01*
X4105000Y-4913476D02*
X4238333Y-4913476D01*
X4152619Y-5113476D01*
X4400238Y-4980143D02*
X4400238Y-5113476D01*
X4352619Y-4903952D02*
X4305000Y-5046810D01*
X4428810Y-5046810D01*
X4495476Y-4913476D02*
X4495476Y-4951571D01*
X4571667Y-4913476D02*
X4571667Y-4951571D01*
X4866905Y-5189667D02*
X4857381Y-5180143D01*
X4838333Y-5151571D01*
X4828810Y-5132524D01*
X4819286Y-5103952D01*
X4809762Y-5056333D01*
X4809762Y-5018238D01*
X4819286Y-4970619D01*
X4828810Y-4942048D01*
X4838333Y-4923000D01*
X4857381Y-4894429D01*
X4866905Y-4884905D01*
X5028810Y-4913476D02*
X4990714Y-4913476D01*
X4971667Y-4923000D01*
X4962143Y-4932524D01*
X4943095Y-4961095D01*
X4933571Y-4999190D01*
X4933571Y-5075381D01*
X4943095Y-5094429D01*
X4952619Y-5103952D01*
X4971667Y-5113476D01*
X5009762Y-5113476D01*
X5028810Y-5103952D01*
X5038333Y-5094429D01*
X5047857Y-5075381D01*
X5047857Y-5027762D01*
X5038333Y-5008714D01*
X5028810Y-4999190D01*
X5009762Y-4989667D01*
X4971667Y-4989667D01*
X4952619Y-4999190D01*
X4943095Y-5008714D01*
X4933571Y-5027762D01*
X5285952Y-5113476D02*
X5285952Y-4913476D01*
X5371667Y-5113476D02*
X5371667Y-5008714D01*
X5362143Y-4989667D01*
X5343095Y-4980143D01*
X5314524Y-4980143D01*
X5295476Y-4989667D01*
X5285952Y-4999190D01*
X5495476Y-5113476D02*
X5476429Y-5103952D01*
X5466905Y-5094429D01*
X5457381Y-5075381D01*
X5457381Y-5018238D01*
X5466905Y-4999190D01*
X5476429Y-4989667D01*
X5495476Y-4980143D01*
X5524048Y-4980143D01*
X5543095Y-4989667D01*
X5552619Y-4999190D01*
X5562143Y-5018238D01*
X5562143Y-5075381D01*
X5552619Y-5094429D01*
X5543095Y-5103952D01*
X5524048Y-5113476D01*
X5495476Y-5113476D01*
X5676428Y-5113476D02*
X5657381Y-5103952D01*
X5647857Y-5084905D01*
X5647857Y-4913476D01*
X5828809Y-5103952D02*
X5809762Y-5113476D01*
X5771667Y-5113476D01*
X5752619Y-5103952D01*
X5743095Y-5084905D01*
X5743095Y-5008714D01*
X5752619Y-4989667D01*
X5771667Y-4980143D01*
X5809762Y-4980143D01*
X5828809Y-4989667D01*
X5838333Y-5008714D01*
X5838333Y-5027762D01*
X5743095Y-5046810D01*
X5914524Y-5103952D02*
X5933571Y-5113476D01*
X5971667Y-5113476D01*
X5990714Y-5103952D01*
X6000238Y-5084905D01*
X6000238Y-5075381D01*
X5990714Y-5056333D01*
X5971667Y-5046810D01*
X5943095Y-5046810D01*
X5924048Y-5037286D01*
X5914524Y-5018238D01*
X5914524Y-5008714D01*
X5924048Y-4989667D01*
X5943095Y-4980143D01*
X5971667Y-4980143D01*
X5990714Y-4989667D01*
X6066905Y-5189667D02*
X6076428Y-5180143D01*
X6095476Y-5151571D01*
X6105000Y-5132524D01*
X6114524Y-5103952D01*
X6124048Y-5056333D01*
X6124048Y-5018238D01*
X6114524Y-4970619D01*
X6105000Y-4942048D01*
X6095476Y-4923000D01*
X6076428Y-4894429D01*
X6066905Y-4884905D01*
D10*
X1280356Y-5322356D02*
X1280356Y-5251644D01*
X1209644Y-5251644D01*
X1209644Y-5322356D01*
X1280356Y-5322356D01*
D11*
X1657381Y-5377476D02*
X1543095Y-5377476D01*
X1600238Y-5377476D02*
X1600238Y-5177476D01*
X1581190Y-5206048D01*
X1562143Y-5225095D01*
X1543095Y-5234619D01*
X1743095Y-5358429D02*
X1752619Y-5367952D01*
X1743095Y-5377476D01*
X1733571Y-5367952D01*
X1743095Y-5358429D01*
X1743095Y-5377476D01*
X1876428Y-5177476D02*
X1895476Y-5177476D01*
X1914524Y-5187000D01*
X1924048Y-5196524D01*
X1933571Y-5215571D01*
X1943095Y-5253667D01*
X1943095Y-5301286D01*
X1933571Y-5339381D01*
X1924048Y-5358429D01*
X1914524Y-5367952D01*
X1895476Y-5377476D01*
X1876428Y-5377476D01*
X1857381Y-5367952D01*
X1847857Y-5358429D01*
X1838333Y-5339381D01*
X1828809Y-5301286D01*
X1828809Y-5253667D01*
X1838333Y-5215571D01*
X1847857Y-5196524D01*
X1857381Y-5187000D01*
X1876428Y-5177476D01*
X2066905Y-5177476D02*
X2085952Y-5177476D01*
X2105000Y-5187000D01*
X2114524Y-5196524D01*
X2124048Y-5215571D01*
X2133571Y-5253667D01*
X2133571Y-5301286D01*
X2124048Y-5339381D01*
X2114524Y-5358429D01*
X2105000Y-5367952D01*
X2085952Y-5377476D01*
X2066905Y-5377476D01*
X2047857Y-5367952D01*
X2038333Y-5358429D01*
X2028809Y-5339381D01*
X2019286Y-5301286D01*
X2019286Y-5253667D01*
X2028809Y-5215571D01*
X2038333Y-5196524D01*
X2047857Y-5187000D01*
X2066905Y-5177476D01*
X2257381Y-5177476D02*
X2276429Y-5177476D01*
X2295476Y-5187000D01*
X2305000Y-5196524D01*
X2314524Y-5215571D01*
X2324048Y-5253667D01*
X2324048Y-5301286D01*
X2314524Y-5339381D01*
X2305000Y-5358429D01*
X2295476Y-5367952D01*
X2276429Y-5377476D01*
X2257381Y-5377476D01*
X2238333Y-5367952D01*
X2228810Y-5358429D01*
X2219286Y-5339381D01*
X2209762Y-5301286D01*
X2209762Y-5253667D01*
X2219286Y-5215571D01*
X2228810Y-5196524D01*
X2238333Y-5187000D01*
X2257381Y-5177476D01*
X2409762Y-5377476D02*
X2409762Y-5244143D01*
X2409762Y-5263190D02*
X2419286Y-5253667D01*
X2438333Y-5244143D01*
X2466905Y-5244143D01*
X2485952Y-5253667D01*
X2495476Y-5272714D01*
X2495476Y-5377476D01*
X2495476Y-5272714D02*
X2505000Y-5253667D01*
X2524048Y-5244143D01*
X2552619Y-5244143D01*
X2571667Y-5253667D01*
X2581190Y-5272714D01*
X2581190Y-5377476D01*
X2676429Y-5377476D02*
X2676429Y-5244143D01*
X2676429Y-5263190D02*
X2685952Y-5253667D01*
X2705000Y-5244143D01*
X2733571Y-5244143D01*
X2752619Y-5253667D01*
X2762143Y-5272714D01*
X2762143Y-5377476D01*
X2762143Y-5272714D02*
X2771667Y-5253667D01*
X2790714Y-5244143D01*
X2819286Y-5244143D01*
X2838333Y-5253667D01*
X2847857Y-5272714D01*
X2847857Y-5377476D01*
X3238333Y-5167952D02*
X3066905Y-5425095D01*
X3495476Y-5177476D02*
X3514524Y-5177476D01*
X3533571Y-5187000D01*
X3543095Y-5196524D01*
X3552619Y-5215571D01*
X3562143Y-5253667D01*
X3562143Y-5301286D01*
X3552619Y-5339381D01*
X3543095Y-5358429D01*
X3533571Y-5367952D01*
X3514524Y-5377476D01*
X3495476Y-5377476D01*
X3476428Y-5367952D01*
X3466905Y-5358429D01*
X3457381Y-5339381D01*
X3447857Y-5301286D01*
X3447857Y-5253667D01*
X3457381Y-5215571D01*
X3466905Y-5196524D01*
X3476428Y-5187000D01*
X3495476Y-5177476D01*
X3647857Y-5358429D02*
X3657381Y-5367952D01*
X3647857Y-5377476D01*
X3638333Y-5367952D01*
X3647857Y-5358429D01*
X3647857Y-5377476D01*
X3781190Y-5177476D02*
X3800238Y-5177476D01*
X3819286Y-5187000D01*
X3828809Y-5196524D01*
X3838333Y-5215571D01*
X3847857Y-5253667D01*
X3847857Y-5301286D01*
X3838333Y-5339381D01*
X3828809Y-5358429D01*
X3819286Y-5367952D01*
X3800238Y-5377476D01*
X3781190Y-5377476D01*
X3762143Y-5367952D01*
X3752619Y-5358429D01*
X3743095Y-5339381D01*
X3733571Y-5301286D01*
X3733571Y-5253667D01*
X3743095Y-5215571D01*
X3752619Y-5196524D01*
X3762143Y-5187000D01*
X3781190Y-5177476D01*
X3914524Y-5177476D02*
X4038333Y-5177476D01*
X3971667Y-5253667D01*
X4000238Y-5253667D01*
X4019286Y-5263190D01*
X4028809Y-5272714D01*
X4038333Y-5291762D01*
X4038333Y-5339381D01*
X4028809Y-5358429D01*
X4019286Y-5367952D01*
X4000238Y-5377476D01*
X3943095Y-5377476D01*
X3924048Y-5367952D01*
X3914524Y-5358429D01*
X4133571Y-5377476D02*
X4171667Y-5377476D01*
X4190714Y-5367952D01*
X4200238Y-5358429D01*
X4219286Y-5329857D01*
X4228810Y-5291762D01*
X4228810Y-5215571D01*
X4219286Y-5196524D01*
X4209762Y-5187000D01*
X4190714Y-5177476D01*
X4152619Y-5177476D01*
X4133571Y-5187000D01*
X4124048Y-5196524D01*
X4114524Y-5215571D01*
X4114524Y-5263190D01*
X4124048Y-5282238D01*
X4133571Y-5291762D01*
X4152619Y-5301286D01*
X4190714Y-5301286D01*
X4209762Y-5291762D01*
X4219286Y-5282238D01*
X4228810Y-5263190D01*
X4400238Y-5244143D02*
X4400238Y-5377476D01*
X4352619Y-5167952D02*
X4305000Y-5310810D01*
X4428810Y-5310810D01*
X4495476Y-5177476D02*
X4495476Y-5215571D01*
X4571667Y-5177476D02*
X4571667Y-5215571D01*
X4866905Y-5453667D02*
X4857381Y-5444143D01*
X4838333Y-5415571D01*
X4828810Y-5396524D01*
X4819286Y-5367952D01*
X4809762Y-5320333D01*
X4809762Y-5282238D01*
X4819286Y-5234619D01*
X4828810Y-5206048D01*
X4838333Y-5187000D01*
X4857381Y-5158429D01*
X4866905Y-5148905D01*
X5047857Y-5377476D02*
X4933571Y-5377476D01*
X4990714Y-5377476D02*
X4990714Y-5177476D01*
X4971667Y-5206048D01*
X4952619Y-5225095D01*
X4933571Y-5234619D01*
X5285952Y-5377476D02*
X5285952Y-5177476D01*
X5371667Y-5377476D02*
X5371667Y-5272714D01*
X5362143Y-5253667D01*
X5343095Y-5244143D01*
X5314524Y-5244143D01*
X5295476Y-5253667D01*
X5285952Y-5263190D01*
X5495476Y-5377476D02*
X5476429Y-5367952D01*
X5466905Y-5358429D01*
X5457381Y-5339381D01*
X5457381Y-5282238D01*
X5466905Y-5263190D01*
X5476429Y-5253667D01*
X5495476Y-5244143D01*
X5524048Y-5244143D01*
X5543095Y-5253667D01*
X5552619Y-5263190D01*
X5562143Y-5282238D01*
X5562143Y-5339381D01*
X5552619Y-5358429D01*
X5543095Y-5367952D01*
X5524048Y-5377476D01*
X5495476Y-5377476D01*
X5676428Y-5377476D02*
X5657381Y-5367952D01*
X5647857Y-5348905D01*
X5647857Y-5177476D01*
X5828809Y-5367952D02*
X5809762Y-5377476D01*
X5771667Y-5377476D01*
X5752619Y-5367952D01*
X5743095Y-5348905D01*
X5743095Y-5272714D01*
X5752619Y-5253667D01*
X5771667Y-5244143D01*
X5809762Y-5244143D01*
X5828809Y-5253667D01*
X5838333Y-5272714D01*
X5838333Y-5291762D01*
X5743095Y-5310810D01*
X5905000Y-5453667D02*
X5914524Y-5444143D01*
X5933571Y-5415571D01*
X5943095Y-5396524D01*
X5952619Y-5367952D01*
X5962143Y-5320333D01*
X5962143Y-5282238D01*
X5952619Y-5234619D01*
X5943095Y-5206048D01*
X5933571Y-5187000D01*
X5914524Y-5158429D01*
X5905000Y-5148905D01*
X1195000Y-5651000D02*
X1295000Y-5551000D01*
X1195000Y-5451000D01*
X1095000Y-5551000D01*
X1195000Y-5651000D01*
X1533571Y-5441476D02*
X1657381Y-5441476D01*
X1590714Y-5517667D01*
X1619286Y-5517667D01*
X1638333Y-5527190D01*
X1647857Y-5536714D01*
X1657381Y-5555762D01*
X1657381Y-5603381D01*
X1647857Y-5622428D01*
X1638333Y-5631952D01*
X1619286Y-5641476D01*
X1562143Y-5641476D01*
X1543095Y-5631952D01*
X1533571Y-5622428D01*
X1743095Y-5622428D02*
X1752619Y-5631952D01*
X1743095Y-5641476D01*
X1733571Y-5631952D01*
X1743095Y-5622428D01*
X1743095Y-5641476D01*
X1828809Y-5460524D02*
X1838333Y-5451000D01*
X1857381Y-5441476D01*
X1905000Y-5441476D01*
X1924048Y-5451000D01*
X1933571Y-5460524D01*
X1943095Y-5479571D01*
X1943095Y-5498619D01*
X1933571Y-5527190D01*
X1819286Y-5641476D01*
X1943095Y-5641476D01*
X2066905Y-5441476D02*
X2085952Y-5441476D01*
X2105000Y-5451000D01*
X2114524Y-5460524D01*
X2124048Y-5479571D01*
X2133571Y-5517667D01*
X2133571Y-5565286D01*
X2124048Y-5603381D01*
X2114524Y-5622428D01*
X2105000Y-5631952D01*
X2085952Y-5641476D01*
X2066905Y-5641476D01*
X2047857Y-5631952D01*
X2038333Y-5622428D01*
X2028809Y-5603381D01*
X2019286Y-5565286D01*
X2019286Y-5517667D01*
X2028809Y-5479571D01*
X2038333Y-5460524D01*
X2047857Y-5451000D01*
X2066905Y-5441476D01*
X2257381Y-5441476D02*
X2276429Y-5441476D01*
X2295476Y-5451000D01*
X2305000Y-5460524D01*
X2314524Y-5479571D01*
X2324048Y-5517667D01*
X2324048Y-5565286D01*
X2314524Y-5603381D01*
X2305000Y-5622428D01*
X2295476Y-5631952D01*
X2276429Y-5641476D01*
X2257381Y-5641476D01*
X2238333Y-5631952D01*
X2228810Y-5622428D01*
X2219286Y-5603381D01*
X2209762Y-5565286D01*
X2209762Y-5517667D01*
X2219286Y-5479571D01*
X2228810Y-5460524D01*
X2238333Y-5451000D01*
X2257381Y-5441476D01*
X2409762Y-5641476D02*
X2409762Y-5508143D01*
X2409762Y-5527190D02*
X2419286Y-5517667D01*
X2438333Y-5508143D01*
X2466905Y-5508143D01*
X2485952Y-5517667D01*
X2495476Y-5536714D01*
X2495476Y-5641476D01*
X2495476Y-5536714D02*
X2505000Y-5517667D01*
X2524048Y-5508143D01*
X2552619Y-5508143D01*
X2571667Y-5517667D01*
X2581190Y-5536714D01*
X2581190Y-5641476D01*
X2676429Y-5641476D02*
X2676429Y-5508143D01*
X2676429Y-5527190D02*
X2685952Y-5517667D01*
X2705000Y-5508143D01*
X2733571Y-5508143D01*
X2752619Y-5517667D01*
X2762143Y-5536714D01*
X2762143Y-5641476D01*
X2762143Y-5536714D02*
X2771667Y-5517667D01*
X2790714Y-5508143D01*
X2819286Y-5508143D01*
X2838333Y-5517667D01*
X2847857Y-5536714D01*
X2847857Y-5641476D01*
X3238333Y-5431952D02*
X3066905Y-5689095D01*
X3495476Y-5441476D02*
X3514524Y-5441476D01*
X3533571Y-5451000D01*
X3543095Y-5460524D01*
X3552619Y-5479571D01*
X3562143Y-5517667D01*
X3562143Y-5565286D01*
X3552619Y-5603381D01*
X3543095Y-5622428D01*
X3533571Y-5631952D01*
X3514524Y-5641476D01*
X3495476Y-5641476D01*
X3476428Y-5631952D01*
X3466905Y-5622428D01*
X3457381Y-5603381D01*
X3447857Y-5565286D01*
X3447857Y-5517667D01*
X3457381Y-5479571D01*
X3466905Y-5460524D01*
X3476428Y-5451000D01*
X3495476Y-5441476D01*
X3647857Y-5622428D02*
X3657381Y-5631952D01*
X3647857Y-5641476D01*
X3638333Y-5631952D01*
X3647857Y-5622428D01*
X3647857Y-5641476D01*
X3847857Y-5641476D02*
X3733571Y-5641476D01*
X3790714Y-5641476D02*
X3790714Y-5441476D01*
X3771667Y-5470048D01*
X3752619Y-5489095D01*
X3733571Y-5498619D01*
X3924048Y-5460524D02*
X3933571Y-5451000D01*
X3952619Y-5441476D01*
X4000238Y-5441476D01*
X4019286Y-5451000D01*
X4028809Y-5460524D01*
X4038333Y-5479571D01*
X4038333Y-5498619D01*
X4028809Y-5527190D01*
X3914524Y-5641476D01*
X4038333Y-5641476D01*
X4209762Y-5441476D02*
X4171667Y-5441476D01*
X4152619Y-5451000D01*
X4143095Y-5460524D01*
X4124048Y-5489095D01*
X4114524Y-5527190D01*
X4114524Y-5603381D01*
X4124048Y-5622428D01*
X4133571Y-5631952D01*
X4152619Y-5641476D01*
X4190714Y-5641476D01*
X4209762Y-5631952D01*
X4219286Y-5622428D01*
X4228810Y-5603381D01*
X4228810Y-5555762D01*
X4219286Y-5536714D01*
X4209762Y-5527190D01*
X4190714Y-5517667D01*
X4152619Y-5517667D01*
X4133571Y-5527190D01*
X4124048Y-5536714D01*
X4114524Y-5555762D01*
X4352619Y-5441476D02*
X4371667Y-5441476D01*
X4390714Y-5451000D01*
X4400238Y-5460524D01*
X4409762Y-5479571D01*
X4419286Y-5517667D01*
X4419286Y-5565286D01*
X4409762Y-5603381D01*
X4400238Y-5622428D01*
X4390714Y-5631952D01*
X4371667Y-5641476D01*
X4352619Y-5641476D01*
X4333571Y-5631952D01*
X4324048Y-5622428D01*
X4314524Y-5603381D01*
X4305000Y-5565286D01*
X4305000Y-5517667D01*
X4314524Y-5479571D01*
X4324048Y-5460524D01*
X4333571Y-5451000D01*
X4352619Y-5441476D01*
X4495476Y-5441476D02*
X4495476Y-5479571D01*
X4571667Y-5441476D02*
X4571667Y-5479571D01*
X4866905Y-5717667D02*
X4857381Y-5708143D01*
X4838333Y-5679571D01*
X4828810Y-5660524D01*
X4819286Y-5631952D01*
X4809762Y-5584333D01*
X4809762Y-5546238D01*
X4819286Y-5498619D01*
X4828810Y-5470048D01*
X4838333Y-5451000D01*
X4857381Y-5422429D01*
X4866905Y-5412905D01*
X4933571Y-5460524D02*
X4943095Y-5451000D01*
X4962143Y-5441476D01*
X5009762Y-5441476D01*
X5028810Y-5451000D01*
X5038333Y-5460524D01*
X5047857Y-5479571D01*
X5047857Y-5498619D01*
X5038333Y-5527190D01*
X4924048Y-5641476D01*
X5047857Y-5641476D01*
X5285952Y-5641476D02*
X5285952Y-5441476D01*
X5371667Y-5641476D02*
X5371667Y-5536714D01*
X5362143Y-5517667D01*
X5343095Y-5508143D01*
X5314524Y-5508143D01*
X5295476Y-5517667D01*
X5285952Y-5527190D01*
X5495476Y-5641476D02*
X5476429Y-5631952D01*
X5466905Y-5622428D01*
X5457381Y-5603381D01*
X5457381Y-5546238D01*
X5466905Y-5527190D01*
X5476429Y-5517667D01*
X5495476Y-5508143D01*
X5524048Y-5508143D01*
X5543095Y-5517667D01*
X5552619Y-5527190D01*
X5562143Y-5546238D01*
X5562143Y-5603381D01*
X5552619Y-5622428D01*
X5543095Y-5631952D01*
X5524048Y-5641476D01*
X5495476Y-5641476D01*
X5676428Y-5641476D02*
X5657381Y-5631952D01*
X5647857Y-5612905D01*
X5647857Y-5441476D01*
X5828809Y-5631952D02*
X5809762Y-5641476D01*
X5771667Y-5641476D01*
X5752619Y-5631952D01*
X5743095Y-5612905D01*
X5743095Y-5536714D01*
X5752619Y-5517667D01*
X5771667Y-5508143D01*
X5809762Y-5508143D01*
X5828809Y-5517667D01*
X5838333Y-5536714D01*
X5838333Y-5555762D01*
X5743095Y-5574810D01*
X5914524Y-5631952D02*
X5933571Y-5641476D01*
X5971667Y-5641476D01*
X5990714Y-5631952D01*
X6000238Y-5612905D01*
X6000238Y-5603381D01*
X5990714Y-5584333D01*
X5971667Y-5574810D01*
X5943095Y-5574810D01*
X5924048Y-5565286D01*
X5914524Y-5546238D01*
X5914524Y-5536714D01*
X5924048Y-5517667D01*
X5943095Y-5508143D01*
X5971667Y-5508143D01*
X5990714Y-5517667D01*
X6066905Y-5717667D02*
X6076428Y-5708143D01*
X6095476Y-5679571D01*
X6105000Y-5660524D01*
X6114524Y-5631952D01*
X6124048Y-5584333D01*
X6124048Y-5546238D01*
X6114524Y-5498619D01*
X6105000Y-5470048D01*
X6095476Y-5451000D01*
X6076428Y-5422429D01*
X6066905Y-5412905D01*
M02*
